<?xml version="1.0" encoding="utf-8" standalone="no"?>
<!DOCTYPE svg PUBLIC "-//W3C//DTD SVG 1.1//EN"
  "http://www.w3.org/Graphics/SVG/1.1/DTD/svg11.dtd">
<!-- Created with matplotlib (http://matplotlib.org/) -->
<svg height="345.6pt" version="1.1" viewBox="0 0 460.8 345.6" width="460.8pt" xmlns="http://www.w3.org/2000/svg" xmlns:xlink="http://www.w3.org/1999/xlink">
 <defs>
  <style type="text/css">
*{stroke-linecap:butt;stroke-linejoin:round;}
  </style>
 </defs>
 <g id="figure_1">
  <g id="patch_1">
   <path d="M 0 345.6 
L 460.8 345.6 
L 460.8 0 
L 0 0 
z
" style="fill:#ffffff;"/>
  </g>
  <g id="axes_1">
   <g id="patch_2">
    <path d="M 57.6 307.584 
L 414.72 307.584 
L 414.72 41.472 
L 57.6 41.472 
z
" style="fill:#ffffff;"/>
   </g>
   <g id="PolyCollection_1">
    <path clip-path="url(#p39a57ce509)" d="M 73.832727 288.121615 
L 73.832727 273.893983 
L 81.949091 241.82726 
L 90.065455 224.850119 
L 98.181818 209.726679 
L 106.298182 205.751221 
L 114.414545 202.720261 
L 122.530909 195.666365 
L 130.647273 191.012886 
L 138.763636 189.254528 
L 146.88 182.491121 
L 154.996364 186.636239 
L 163.112727 185.267607 
L 171.229091 177.990314 
L 179.345455 176.089562 
L 187.461818 176.059833 
L 195.578182 175.739339 
L 203.694545 175.254369 
L 211.810909 166.201631 
L 219.927273 171.695663 
L 228.043636 173.391491 
L 236.16 159.278143 
L 244.276364 165.559799 
L 252.392727 161.207004 
L 260.509091 160.948149 
L 268.625455 158.319524 
L 276.741818 160.262864 
L 284.858182 155.774242 
L 292.974545 158.173699 
L 301.090909 157.772668 
L 309.207273 159.274356 
L 317.323636 153.971327 
L 325.44 142.786692 
L 333.556364 149.449869 
L 341.672727 148.00677 
L 349.789091 146.272645 
L 357.905455 149.255847 
L 366.021818 146.81886 
L 374.138182 144.599452 
L 382.254545 145.856002 
L 390.370909 147.823077 
L 398.487273 155.236346 
L 398.487273 188.130529 
L 398.487273 188.130529 
L 390.370909 181.831488 
L 382.254545 180.564185 
L 374.138182 180.162514 
L 366.021818 181.270964 
L 357.905455 182.865534 
L 349.789091 181.132338 
L 341.672727 182.111227 
L 333.556364 182.38428 
L 325.44 179.177628 
L 317.323636 188.290067 
L 309.207273 191.640204 
L 301.090909 191.609183 
L 292.974545 192.239965 
L 284.858182 190.556675 
L 276.741818 192.396811 
L 268.625455 192.882268 
L 260.509091 193.04631 
L 252.392727 194.114948 
L 244.276364 197.807113 
L 236.16 192.319499 
L 228.043636 204.269437 
L 219.927273 202.855345 
L 211.810909 199.12763 
L 203.694545 207.85914 
L 195.578182 205.619399 
L 187.461818 205.605447 
L 179.345455 207.312134 
L 171.229091 209.793732 
L 163.112727 217.005966 
L 154.996364 214.259103 
L 146.88 214.733615 
L 138.763636 218.918163 
L 130.647273 219.358698 
L 122.530909 221.369484 
L 114.414545 228.455127 
L 106.298182 232.839147 
L 98.181818 236.705797 
L 90.065455 248.232176 
L 81.949091 267.132484 
L 73.832727 288.121615 
z
" style="fill:#1f77b4;fill-opacity:0.3;"/>
   </g>
   <g id="PolyCollection_2">
    <path clip-path="url(#p39a57ce509)" d="M 73.832727 282.027741 
L 73.832727 270.259381 
L 81.949091 244.663111 
L 90.065455 224.854549 
L 98.181818 216.706601 
L 106.298182 211.088741 
L 114.414545 204.871952 
L 122.530909 199.565045 
L 130.647273 196.308651 
L 138.763636 193.539132 
L 146.88 191.335789 
L 154.996364 187.093246 
L 163.112727 185.433144 
L 171.229091 185.091524 
L 179.345455 179.962825 
L 187.461818 177.006365 
L 195.578182 172.723533 
L 203.694545 171.984592 
L 211.810909 169.048843 
L 219.927273 171.796359 
L 228.043636 161.030712 
L 236.16 162.861143 
L 244.276364 165.348748 
L 252.392727 166.286274 
L 260.509091 162.705765 
L 268.625455 156.205559 
L 276.741818 160.877247 
L 284.858182 163.886951 
L 292.974545 161.102218 
L 301.090909 159.416702 
L 309.207273 158.259062 
L 317.323636 157.28582 
L 325.44 154.562025 
L 333.556364 152.710453 
L 341.672727 156.369303 
L 349.789091 146.190617 
L 357.905455 139.80121 
L 366.021818 137.693087 
L 374.138182 146.609629 
L 382.254545 149.374784 
L 390.370909 137.374313 
L 398.487273 145.308987 
L 398.487273 175.862579 
L 398.487273 175.862579 
L 390.370909 170.205628 
L 382.254545 175.01547 
L 374.138182 177.606837 
L 366.021818 167.954625 
L 357.905455 170.4133 
L 349.789091 172.905154 
L 341.672727 181.120178 
L 333.556364 180.261762 
L 325.44 181.333751 
L 317.323636 181.081046 
L 309.207273 183.290286 
L 301.090909 183.071582 
L 292.974545 184.913206 
L 284.858182 186.281771 
L 276.741818 184.565423 
L 268.625455 180.902556 
L 260.509091 187.372443 
L 252.392727 189.777342 
L 244.276364 187.907114 
L 236.16 189.232517 
L 228.043636 185.816739 
L 219.927273 193.047721 
L 211.810909 192.769671 
L 203.694545 197.580739 
L 195.578182 197.955727 
L 187.461818 201.33523 
L 179.345455 202.946071 
L 171.229091 205.582945 
L 163.112727 207.039542 
L 154.996364 209.083284 
L 146.88 213.150355 
L 138.763636 213.950477 
L 130.647273 217.525406 
L 122.530909 220.270713 
L 114.414545 225.094165 
L 106.298182 229.533195 
L 98.181818 234.267278 
L 90.065455 243.562037 
L 81.949091 261.067083 
L 73.832727 282.027741 
z
" style="fill:#ff7f0e;fill-opacity:0.3;"/>
   </g>
   <g id="PolyCollection_3">
    <path clip-path="url(#p39a57ce509)" d="M 73.832727 279.484128 
L 73.832727 270.320489 
L 81.949091 241.636189 
L 90.065455 230.478008 
L 98.181818 219.253511 
L 106.298182 208.818065 
L 114.414545 204.330921 
L 122.530909 197.572338 
L 130.647273 194.440442 
L 138.763636 194.013259 
L 146.88 192.049891 
L 154.996364 187.278842 
L 163.112727 185.506902 
L 171.229091 186.914921 
L 179.345455 184.275082 
L 187.461818 183.557639 
L 195.578182 179.613062 
L 203.694545 178.535217 
L 211.810909 179.591559 
L 219.927273 179.436519 
L 228.043636 180.913178 
L 236.16 176.222019 
L 244.276364 174.599265 
L 252.392727 170.919933 
L 260.509091 170.856913 
L 268.625455 171.246718 
L 276.741818 169.9268 
L 284.858182 172.402405 
L 292.974545 169.740566 
L 301.090909 169.540426 
L 309.207273 168.81644 
L 317.323636 165.396788 
L 325.44 168.187552 
L 333.556364 168.964299 
L 341.672727 164.40623 
L 349.789091 162.271459 
L 357.905455 166.833315 
L 366.021818 166.908298 
L 374.138182 164.403861 
L 382.254545 158.550759 
L 390.370909 161.396137 
L 398.487273 154.728179 
L 398.487273 177.194673 
L 398.487273 177.194673 
L 390.370909 180.234071 
L 382.254545 179.779902 
L 374.138182 182.689186 
L 366.021818 185.07863 
L 357.905455 185.158365 
L 349.789091 181.232394 
L 341.672727 181.766588 
L 333.556364 186.739674 
L 325.44 184.096288 
L 317.323636 183.172849 
L 309.207273 187.136145 
L 301.090909 186.798957 
L 292.974545 186.44625 
L 284.858182 186.812315 
L 276.741818 185.871911 
L 268.625455 187.484656 
L 260.509091 187.462923 
L 252.392727 187.254715 
L 244.276364 190.548365 
L 236.16 191.212001 
L 228.043636 194.988152 
L 219.927273 195.408937 
L 211.810909 194.495865 
L 203.694545 194.599996 
L 195.578182 195.482088 
L 187.461818 198.476336 
L 179.345455 199.476502 
L 171.229091 202.083223 
L 163.112727 200.630388 
L 154.996364 202.511 
L 146.88 206.836197 
L 138.763636 208.432894 
L 130.647273 208.791978 
L 122.530909 212.78054 
L 114.414545 219.027049 
L 106.298182 222.134519 
L 98.181818 231.737867 
L 90.065455 243.271679 
L 81.949091 253.471853 
L 73.832727 279.484128 
z
" style="fill:#2ca02c;fill-opacity:0.3;"/>
   </g>
   <g id="PolyCollection_4">
    <path clip-path="url(#p39a57ce509)" d="M 73.832727 280.126393 
L 73.832727 274.495998 
L 81.949091 243.697853 
L 90.065455 228.633616 
L 98.181818 219.928869 
L 106.298182 211.921822 
L 114.414545 208.948999 
L 122.530909 200.391126 
L 130.647273 197.187416 
L 138.763636 194.734957 
L 146.88 192.754742 
L 154.996364 189.600912 
L 163.112727 188.752506 
L 171.229091 185.511417 
L 179.345455 185.090662 
L 187.461818 184.277073 
L 195.578182 183.332985 
L 203.694545 181.893296 
L 211.810909 180.660593 
L 219.927273 178.916259 
L 228.043636 176.94875 
L 236.16 178.590126 
L 244.276364 177.033501 
L 252.392727 177.534775 
L 260.509091 176.285806 
L 268.625455 175.539315 
L 276.741818 175.044338 
L 284.858182 177.034184 
L 292.974545 175.53145 
L 301.090909 173.996732 
L 309.207273 178.617132 
L 317.323636 176.464157 
L 325.44 175.351615 
L 333.556364 176.961421 
L 341.672727 176.583733 
L 349.789091 174.874918 
L 357.905455 173.957116 
L 366.021818 172.19354 
L 374.138182 174.975159 
L 382.254545 170.41845 
L 390.370909 169.812155 
L 398.487273 166.514978 
L 398.487273 178.712871 
L 398.487273 178.712871 
L 390.370909 181.998195 
L 382.254545 181.293541 
L 374.138182 185.748435 
L 366.021818 183.058496 
L 357.905455 184.47194 
L 349.789091 185.587089 
L 341.672727 186.033117 
L 333.556364 187.173052 
L 325.44 185.479225 
L 317.323636 186.157521 
L 309.207273 187.651668 
L 301.090909 185.057476 
L 292.974545 185.886746 
L 284.858182 187.426141 
L 276.741818 185.955323 
L 268.625455 185.813654 
L 260.509091 187.435319 
L 252.392727 187.971197 
L 244.276364 188.029648 
L 236.16 189.234916 
L 228.043636 188.273704 
L 219.927273 189.698357 
L 211.810909 191.551677 
L 203.694545 192.608382 
L 195.578182 194.47518 
L 187.461818 194.646228 
L 179.345455 195.412446 
L 171.229091 196.190974 
L 163.112727 200.094178 
L 154.996364 201.191527 
L 146.88 204.069594 
L 138.763636 205.224769 
L 130.647273 207.7162 
L 122.530909 211.412394 
L 114.414545 218.753355 
L 106.298182 221.775042 
L 98.181818 229.060937 
L 90.065455 237.335765 
L 81.949091 251.274718 
L 73.832727 280.126393 
z
" style="fill:#d62728;fill-opacity:0.3;"/>
   </g>
   <g id="matplotlib.axis_1">
    <g id="xtick_1">
     <g id="line2d_1">
      <defs>
       <path d="M 0 0 
L 0 3.5 
" id="m0a30ef7bca" style="stroke:#000000;stroke-width:0.8;"/>
      </defs>
      <g>
       <use style="stroke:#000000;stroke-width:0.8;" x="73.832727" xlink:href="#m0a30ef7bca" y="307.584"/>
      </g>
     </g>
     <g id="text_1">
      <!-- 0 -->
      <defs>
       <path d="M 31.78125 66.40625 
Q 24.171875 66.40625 20.328125 58.90625 
Q 16.5 51.421875 16.5 36.375 
Q 16.5 21.390625 20.328125 13.890625 
Q 24.171875 6.390625 31.78125 6.390625 
Q 39.453125 6.390625 43.28125 13.890625 
Q 47.125 21.390625 47.125 36.375 
Q 47.125 51.421875 43.28125 58.90625 
Q 39.453125 66.40625 31.78125 66.40625 
z
M 31.78125 74.21875 
Q 44.046875 74.21875 50.515625 64.515625 
Q 56.984375 54.828125 56.984375 36.375 
Q 56.984375 17.96875 50.515625 8.265625 
Q 44.046875 -1.421875 31.78125 -1.421875 
Q 19.53125 -1.421875 13.0625 8.265625 
Q 6.59375 17.96875 6.59375 36.375 
Q 6.59375 54.828125 13.0625 64.515625 
Q 19.53125 74.21875 31.78125 74.21875 
z
" id="DejaVuSans-30"/>
      </defs>
      <g transform="translate(70.651477 322.182437)scale(0.1 -0.1)">
       <use xlink:href="#DejaVuSans-30"/>
      </g>
     </g>
    </g>
    <g id="xtick_2">
     <g id="line2d_2">
      <g>
       <use style="stroke:#000000;stroke-width:0.8;" x="114.414545" xlink:href="#m0a30ef7bca" y="307.584"/>
      </g>
     </g>
     <g id="text_2">
      <!-- 250 -->
      <defs>
       <path d="M 19.1875 8.296875 
L 53.609375 8.296875 
L 53.609375 0 
L 7.328125 0 
L 7.328125 8.296875 
Q 12.9375 14.109375 22.625 23.890625 
Q 32.328125 33.6875 34.8125 36.53125 
Q 39.546875 41.84375 41.421875 45.53125 
Q 43.3125 49.21875 43.3125 52.78125 
Q 43.3125 58.59375 39.234375 62.25 
Q 35.15625 65.921875 28.609375 65.921875 
Q 23.96875 65.921875 18.8125 64.3125 
Q 13.671875 62.703125 7.8125 59.421875 
L 7.8125 69.390625 
Q 13.765625 71.78125 18.9375 73 
Q 24.125 74.21875 28.421875 74.21875 
Q 39.75 74.21875 46.484375 68.546875 
Q 53.21875 62.890625 53.21875 53.421875 
Q 53.21875 48.921875 51.53125 44.890625 
Q 49.859375 40.875 45.40625 35.40625 
Q 44.1875 33.984375 37.640625 27.21875 
Q 31.109375 20.453125 19.1875 8.296875 
z
" id="DejaVuSans-32"/>
       <path d="M 10.796875 72.90625 
L 49.515625 72.90625 
L 49.515625 64.59375 
L 19.828125 64.59375 
L 19.828125 46.734375 
Q 21.96875 47.46875 24.109375 47.828125 
Q 26.265625 48.1875 28.421875 48.1875 
Q 40.625 48.1875 47.75 41.5 
Q 54.890625 34.8125 54.890625 23.390625 
Q 54.890625 11.625 47.5625 5.09375 
Q 40.234375 -1.421875 26.90625 -1.421875 
Q 22.3125 -1.421875 17.546875 -0.640625 
Q 12.796875 0.140625 7.71875 1.703125 
L 7.71875 11.625 
Q 12.109375 9.234375 16.796875 8.0625 
Q 21.484375 6.890625 26.703125 6.890625 
Q 35.15625 6.890625 40.078125 11.328125 
Q 45.015625 15.765625 45.015625 23.390625 
Q 45.015625 31 40.078125 35.4375 
Q 35.15625 39.890625 26.703125 39.890625 
Q 22.75 39.890625 18.8125 39.015625 
Q 14.890625 38.140625 10.796875 36.28125 
z
" id="DejaVuSans-35"/>
      </defs>
      <g transform="translate(104.870795 322.182437)scale(0.1 -0.1)">
       <use xlink:href="#DejaVuSans-32"/>
       <use x="63.623047" xlink:href="#DejaVuSans-35"/>
       <use x="127.246094" xlink:href="#DejaVuSans-30"/>
      </g>
     </g>
    </g>
    <g id="xtick_3">
     <g id="line2d_3">
      <g>
       <use style="stroke:#000000;stroke-width:0.8;" x="154.996364" xlink:href="#m0a30ef7bca" y="307.584"/>
      </g>
     </g>
     <g id="text_3">
      <!-- 500 -->
      <g transform="translate(145.452614 322.182437)scale(0.1 -0.1)">
       <use xlink:href="#DejaVuSans-35"/>
       <use x="63.623047" xlink:href="#DejaVuSans-30"/>
       <use x="127.246094" xlink:href="#DejaVuSans-30"/>
      </g>
     </g>
    </g>
    <g id="xtick_4">
     <g id="line2d_4">
      <g>
       <use style="stroke:#000000;stroke-width:0.8;" x="195.578182" xlink:href="#m0a30ef7bca" y="307.584"/>
      </g>
     </g>
     <g id="text_4">
      <!-- 750 -->
      <defs>
       <path d="M 8.203125 72.90625 
L 55.078125 72.90625 
L 55.078125 68.703125 
L 28.609375 0 
L 18.3125 0 
L 43.21875 64.59375 
L 8.203125 64.59375 
z
" id="DejaVuSans-37"/>
      </defs>
      <g transform="translate(186.034432 322.182437)scale(0.1 -0.1)">
       <use xlink:href="#DejaVuSans-37"/>
       <use x="63.623047" xlink:href="#DejaVuSans-35"/>
       <use x="127.246094" xlink:href="#DejaVuSans-30"/>
      </g>
     </g>
    </g>
    <g id="xtick_5">
     <g id="line2d_5">
      <g>
       <use style="stroke:#000000;stroke-width:0.8;" x="236.16" xlink:href="#m0a30ef7bca" y="307.584"/>
      </g>
     </g>
     <g id="text_5">
      <!-- 1000 -->
      <defs>
       <path d="M 12.40625 8.296875 
L 28.515625 8.296875 
L 28.515625 63.921875 
L 10.984375 60.40625 
L 10.984375 69.390625 
L 28.421875 72.90625 
L 38.28125 72.90625 
L 38.28125 8.296875 
L 54.390625 8.296875 
L 54.390625 0 
L 12.40625 0 
z
" id="DejaVuSans-31"/>
      </defs>
      <g transform="translate(223.435 322.182437)scale(0.1 -0.1)">
       <use xlink:href="#DejaVuSans-31"/>
       <use x="63.623047" xlink:href="#DejaVuSans-30"/>
       <use x="127.246094" xlink:href="#DejaVuSans-30"/>
       <use x="190.869141" xlink:href="#DejaVuSans-30"/>
      </g>
     </g>
    </g>
    <g id="xtick_6">
     <g id="line2d_6">
      <g>
       <use style="stroke:#000000;stroke-width:0.8;" x="276.741818" xlink:href="#m0a30ef7bca" y="307.584"/>
      </g>
     </g>
     <g id="text_6">
      <!-- 1250 -->
      <g transform="translate(264.016818 322.182437)scale(0.1 -0.1)">
       <use xlink:href="#DejaVuSans-31"/>
       <use x="63.623047" xlink:href="#DejaVuSans-32"/>
       <use x="127.246094" xlink:href="#DejaVuSans-35"/>
       <use x="190.869141" xlink:href="#DejaVuSans-30"/>
      </g>
     </g>
    </g>
    <g id="xtick_7">
     <g id="line2d_7">
      <g>
       <use style="stroke:#000000;stroke-width:0.8;" x="317.323636" xlink:href="#m0a30ef7bca" y="307.584"/>
      </g>
     </g>
     <g id="text_7">
      <!-- 1500 -->
      <g transform="translate(304.598636 322.182437)scale(0.1 -0.1)">
       <use xlink:href="#DejaVuSans-31"/>
       <use x="63.623047" xlink:href="#DejaVuSans-35"/>
       <use x="127.246094" xlink:href="#DejaVuSans-30"/>
       <use x="190.869141" xlink:href="#DejaVuSans-30"/>
      </g>
     </g>
    </g>
    <g id="xtick_8">
     <g id="line2d_8">
      <g>
       <use style="stroke:#000000;stroke-width:0.8;" x="357.905455" xlink:href="#m0a30ef7bca" y="307.584"/>
      </g>
     </g>
     <g id="text_8">
      <!-- 1750 -->
      <g transform="translate(345.180455 322.182437)scale(0.1 -0.1)">
       <use xlink:href="#DejaVuSans-31"/>
       <use x="63.623047" xlink:href="#DejaVuSans-37"/>
       <use x="127.246094" xlink:href="#DejaVuSans-35"/>
       <use x="190.869141" xlink:href="#DejaVuSans-30"/>
      </g>
     </g>
    </g>
    <g id="xtick_9">
     <g id="line2d_9">
      <g>
       <use style="stroke:#000000;stroke-width:0.8;" x="398.487273" xlink:href="#m0a30ef7bca" y="307.584"/>
      </g>
     </g>
     <g id="text_9">
      <!-- 2000 -->
      <g transform="translate(385.762273 322.182437)scale(0.1 -0.1)">
       <use xlink:href="#DejaVuSans-32"/>
       <use x="63.623047" xlink:href="#DejaVuSans-30"/>
       <use x="127.246094" xlink:href="#DejaVuSans-30"/>
       <use x="190.869141" xlink:href="#DejaVuSans-30"/>
      </g>
     </g>
    </g>
    <g id="text_10">
     <!-- Episode Number -->
     <defs>
      <path d="M 9.8125 72.90625 
L 55.90625 72.90625 
L 55.90625 64.59375 
L 19.671875 64.59375 
L 19.671875 43.015625 
L 54.390625 43.015625 
L 54.390625 34.71875 
L 19.671875 34.71875 
L 19.671875 8.296875 
L 56.78125 8.296875 
L 56.78125 0 
L 9.8125 0 
z
" id="DejaVuSans-45"/>
      <path d="M 18.109375 8.203125 
L 18.109375 -20.796875 
L 9.078125 -20.796875 
L 9.078125 54.6875 
L 18.109375 54.6875 
L 18.109375 46.390625 
Q 20.953125 51.265625 25.265625 53.625 
Q 29.59375 56 35.59375 56 
Q 45.5625 56 51.78125 48.09375 
Q 58.015625 40.1875 58.015625 27.296875 
Q 58.015625 14.40625 51.78125 6.484375 
Q 45.5625 -1.421875 35.59375 -1.421875 
Q 29.59375 -1.421875 25.265625 0.953125 
Q 20.953125 3.328125 18.109375 8.203125 
z
M 48.6875 27.296875 
Q 48.6875 37.203125 44.609375 42.84375 
Q 40.53125 48.484375 33.40625 48.484375 
Q 26.265625 48.484375 22.1875 42.84375 
Q 18.109375 37.203125 18.109375 27.296875 
Q 18.109375 17.390625 22.1875 11.75 
Q 26.265625 6.109375 33.40625 6.109375 
Q 40.53125 6.109375 44.609375 11.75 
Q 48.6875 17.390625 48.6875 27.296875 
z
" id="DejaVuSans-70"/>
      <path d="M 9.421875 54.6875 
L 18.40625 54.6875 
L 18.40625 0 
L 9.421875 0 
z
M 9.421875 75.984375 
L 18.40625 75.984375 
L 18.40625 64.59375 
L 9.421875 64.59375 
z
" id="DejaVuSans-69"/>
      <path d="M 44.28125 53.078125 
L 44.28125 44.578125 
Q 40.484375 46.53125 36.375 47.5 
Q 32.28125 48.484375 27.875 48.484375 
Q 21.1875 48.484375 17.84375 46.4375 
Q 14.5 44.390625 14.5 40.28125 
Q 14.5 37.15625 16.890625 35.375 
Q 19.28125 33.59375 26.515625 31.984375 
L 29.59375 31.296875 
Q 39.15625 29.25 43.1875 25.515625 
Q 47.21875 21.78125 47.21875 15.09375 
Q 47.21875 7.46875 41.1875 3.015625 
Q 35.15625 -1.421875 24.609375 -1.421875 
Q 20.21875 -1.421875 15.453125 -0.5625 
Q 10.6875 0.296875 5.421875 2 
L 5.421875 11.28125 
Q 10.40625 8.6875 15.234375 7.390625 
Q 20.0625 6.109375 24.8125 6.109375 
Q 31.15625 6.109375 34.5625 8.28125 
Q 37.984375 10.453125 37.984375 14.40625 
Q 37.984375 18.0625 35.515625 20.015625 
Q 33.0625 21.96875 24.703125 23.78125 
L 21.578125 24.515625 
Q 13.234375 26.265625 9.515625 29.90625 
Q 5.8125 33.546875 5.8125 39.890625 
Q 5.8125 47.609375 11.28125 51.796875 
Q 16.75 56 26.8125 56 
Q 31.78125 56 36.171875 55.265625 
Q 40.578125 54.546875 44.28125 53.078125 
z
" id="DejaVuSans-73"/>
      <path d="M 30.609375 48.390625 
Q 23.390625 48.390625 19.1875 42.75 
Q 14.984375 37.109375 14.984375 27.296875 
Q 14.984375 17.484375 19.15625 11.84375 
Q 23.34375 6.203125 30.609375 6.203125 
Q 37.796875 6.203125 41.984375 11.859375 
Q 46.1875 17.53125 46.1875 27.296875 
Q 46.1875 37.015625 41.984375 42.703125 
Q 37.796875 48.390625 30.609375 48.390625 
z
M 30.609375 56 
Q 42.328125 56 49.015625 48.375 
Q 55.71875 40.765625 55.71875 27.296875 
Q 55.71875 13.875 49.015625 6.21875 
Q 42.328125 -1.421875 30.609375 -1.421875 
Q 18.84375 -1.421875 12.171875 6.21875 
Q 5.515625 13.875 5.515625 27.296875 
Q 5.515625 40.765625 12.171875 48.375 
Q 18.84375 56 30.609375 56 
z
" id="DejaVuSans-6f"/>
      <path d="M 45.40625 46.390625 
L 45.40625 75.984375 
L 54.390625 75.984375 
L 54.390625 0 
L 45.40625 0 
L 45.40625 8.203125 
Q 42.578125 3.328125 38.25 0.953125 
Q 33.9375 -1.421875 27.875 -1.421875 
Q 17.96875 -1.421875 11.734375 6.484375 
Q 5.515625 14.40625 5.515625 27.296875 
Q 5.515625 40.1875 11.734375 48.09375 
Q 17.96875 56 27.875 56 
Q 33.9375 56 38.25 53.625 
Q 42.578125 51.265625 45.40625 46.390625 
z
M 14.796875 27.296875 
Q 14.796875 17.390625 18.875 11.75 
Q 22.953125 6.109375 30.078125 6.109375 
Q 37.203125 6.109375 41.296875 11.75 
Q 45.40625 17.390625 45.40625 27.296875 
Q 45.40625 37.203125 41.296875 42.84375 
Q 37.203125 48.484375 30.078125 48.484375 
Q 22.953125 48.484375 18.875 42.84375 
Q 14.796875 37.203125 14.796875 27.296875 
z
" id="DejaVuSans-64"/>
      <path d="M 56.203125 29.59375 
L 56.203125 25.203125 
L 14.890625 25.203125 
Q 15.484375 15.921875 20.484375 11.0625 
Q 25.484375 6.203125 34.421875 6.203125 
Q 39.59375 6.203125 44.453125 7.46875 
Q 49.3125 8.734375 54.109375 11.28125 
L 54.109375 2.78125 
Q 49.265625 0.734375 44.1875 -0.34375 
Q 39.109375 -1.421875 33.890625 -1.421875 
Q 20.796875 -1.421875 13.15625 6.1875 
Q 5.515625 13.8125 5.515625 26.8125 
Q 5.515625 40.234375 12.765625 48.109375 
Q 20.015625 56 32.328125 56 
Q 43.359375 56 49.78125 48.890625 
Q 56.203125 41.796875 56.203125 29.59375 
z
M 47.21875 32.234375 
Q 47.125 39.59375 43.09375 43.984375 
Q 39.0625 48.390625 32.421875 48.390625 
Q 24.90625 48.390625 20.390625 44.140625 
Q 15.875 39.890625 15.1875 32.171875 
z
" id="DejaVuSans-65"/>
      <path id="DejaVuSans-20"/>
      <path d="M 9.8125 72.90625 
L 23.09375 72.90625 
L 55.421875 11.921875 
L 55.421875 72.90625 
L 64.984375 72.90625 
L 64.984375 0 
L 51.703125 0 
L 19.390625 60.984375 
L 19.390625 0 
L 9.8125 0 
z
" id="DejaVuSans-4e"/>
      <path d="M 8.5 21.578125 
L 8.5 54.6875 
L 17.484375 54.6875 
L 17.484375 21.921875 
Q 17.484375 14.15625 20.5 10.265625 
Q 23.53125 6.390625 29.59375 6.390625 
Q 36.859375 6.390625 41.078125 11.03125 
Q 45.3125 15.671875 45.3125 23.6875 
L 45.3125 54.6875 
L 54.296875 54.6875 
L 54.296875 0 
L 45.3125 0 
L 45.3125 8.40625 
Q 42.046875 3.421875 37.71875 1 
Q 33.40625 -1.421875 27.6875 -1.421875 
Q 18.265625 -1.421875 13.375 4.4375 
Q 8.5 10.296875 8.5 21.578125 
z
M 31.109375 56 
z
" id="DejaVuSans-75"/>
      <path d="M 52 44.1875 
Q 55.375 50.25 60.0625 53.125 
Q 64.75 56 71.09375 56 
Q 79.640625 56 84.28125 50.015625 
Q 88.921875 44.046875 88.921875 33.015625 
L 88.921875 0 
L 79.890625 0 
L 79.890625 32.71875 
Q 79.890625 40.578125 77.09375 44.375 
Q 74.3125 48.1875 68.609375 48.1875 
Q 61.625 48.1875 57.5625 43.546875 
Q 53.515625 38.921875 53.515625 30.90625 
L 53.515625 0 
L 44.484375 0 
L 44.484375 32.71875 
Q 44.484375 40.625 41.703125 44.40625 
Q 38.921875 48.1875 33.109375 48.1875 
Q 26.21875 48.1875 22.15625 43.53125 
Q 18.109375 38.875 18.109375 30.90625 
L 18.109375 0 
L 9.078125 0 
L 9.078125 54.6875 
L 18.109375 54.6875 
L 18.109375 46.1875 
Q 21.1875 51.21875 25.484375 53.609375 
Q 29.78125 56 35.6875 56 
Q 41.65625 56 45.828125 52.96875 
Q 50 49.953125 52 44.1875 
z
" id="DejaVuSans-6d"/>
      <path d="M 48.6875 27.296875 
Q 48.6875 37.203125 44.609375 42.84375 
Q 40.53125 48.484375 33.40625 48.484375 
Q 26.265625 48.484375 22.1875 42.84375 
Q 18.109375 37.203125 18.109375 27.296875 
Q 18.109375 17.390625 22.1875 11.75 
Q 26.265625 6.109375 33.40625 6.109375 
Q 40.53125 6.109375 44.609375 11.75 
Q 48.6875 17.390625 48.6875 27.296875 
z
M 18.109375 46.390625 
Q 20.953125 51.265625 25.265625 53.625 
Q 29.59375 56 35.59375 56 
Q 45.5625 56 51.78125 48.09375 
Q 58.015625 40.1875 58.015625 27.296875 
Q 58.015625 14.40625 51.78125 6.484375 
Q 45.5625 -1.421875 35.59375 -1.421875 
Q 29.59375 -1.421875 25.265625 0.953125 
Q 20.953125 3.328125 18.109375 8.203125 
L 18.109375 0 
L 9.078125 0 
L 9.078125 75.984375 
L 18.109375 75.984375 
z
" id="DejaVuSans-62"/>
      <path d="M 41.109375 46.296875 
Q 39.59375 47.171875 37.8125 47.578125 
Q 36.03125 48 33.890625 48 
Q 26.265625 48 22.1875 43.046875 
Q 18.109375 38.09375 18.109375 28.8125 
L 18.109375 0 
L 9.078125 0 
L 9.078125 54.6875 
L 18.109375 54.6875 
L 18.109375 46.1875 
Q 20.953125 51.171875 25.484375 53.578125 
Q 30.03125 56 36.53125 56 
Q 37.453125 56 38.578125 55.875 
Q 39.703125 55.765625 41.0625 55.515625 
z
" id="DejaVuSans-72"/>
     </defs>
     <g transform="translate(194.8475 335.860562)scale(0.1 -0.1)">
      <use xlink:href="#DejaVuSans-45"/>
      <use x="63.183594" xlink:href="#DejaVuSans-70"/>
      <use x="126.660156" xlink:href="#DejaVuSans-69"/>
      <use x="154.443359" xlink:href="#DejaVuSans-73"/>
      <use x="206.542969" xlink:href="#DejaVuSans-6f"/>
      <use x="267.724609" xlink:href="#DejaVuSans-64"/>
      <use x="331.201172" xlink:href="#DejaVuSans-65"/>
      <use x="392.724609" xlink:href="#DejaVuSans-20"/>
      <use x="424.511719" xlink:href="#DejaVuSans-4e"/>
      <use x="499.316406" xlink:href="#DejaVuSans-75"/>
      <use x="562.695312" xlink:href="#DejaVuSans-6d"/>
      <use x="660.107422" xlink:href="#DejaVuSans-62"/>
      <use x="723.583984" xlink:href="#DejaVuSans-65"/>
      <use x="785.107422" xlink:href="#DejaVuSans-72"/>
     </g>
    </g>
   </g>
   <g id="matplotlib.axis_2">
    <g id="ytick_1">
     <g id="line2d_10">
      <defs>
       <path d="M 0 0 
L -3.5 0 
" id="m0cdb3d7287" style="stroke:#000000;stroke-width:0.8;"/>
      </defs>
      <g>
       <use style="stroke:#000000;stroke-width:0.8;" x="57.6" xlink:href="#m0cdb3d7287" y="307.584"/>
      </g>
     </g>
     <g id="text_11">
      <!-- −200 -->
      <defs>
       <path d="M 10.59375 35.5 
L 73.1875 35.5 
L 73.1875 27.203125 
L 10.59375 27.203125 
z
" id="DejaVuSans-2212"/>
      </defs>
      <g transform="translate(23.132812 311.383219)scale(0.1 -0.1)">
       <use xlink:href="#DejaVuSans-2212"/>
       <use x="83.789062" xlink:href="#DejaVuSans-32"/>
       <use x="147.412109" xlink:href="#DejaVuSans-30"/>
       <use x="211.035156" xlink:href="#DejaVuSans-30"/>
      </g>
     </g>
    </g>
    <g id="ytick_2">
     <g id="line2d_11">
      <g>
       <use style="stroke:#000000;stroke-width:0.8;" x="57.6" xlink:href="#m0cdb3d7287" y="278.016"/>
      </g>
     </g>
     <g id="text_12">
      <!-- −150 -->
      <g transform="translate(23.132812 281.815219)scale(0.1 -0.1)">
       <use xlink:href="#DejaVuSans-2212"/>
       <use x="83.789062" xlink:href="#DejaVuSans-31"/>
       <use x="147.412109" xlink:href="#DejaVuSans-35"/>
       <use x="211.035156" xlink:href="#DejaVuSans-30"/>
      </g>
     </g>
    </g>
    <g id="ytick_3">
     <g id="line2d_12">
      <g>
       <use style="stroke:#000000;stroke-width:0.8;" x="57.6" xlink:href="#m0cdb3d7287" y="248.448"/>
      </g>
     </g>
     <g id="text_13">
      <!-- −100 -->
      <g transform="translate(23.132812 252.247219)scale(0.1 -0.1)">
       <use xlink:href="#DejaVuSans-2212"/>
       <use x="83.789062" xlink:href="#DejaVuSans-31"/>
       <use x="147.412109" xlink:href="#DejaVuSans-30"/>
       <use x="211.035156" xlink:href="#DejaVuSans-30"/>
      </g>
     </g>
    </g>
    <g id="ytick_4">
     <g id="line2d_13">
      <g>
       <use style="stroke:#000000;stroke-width:0.8;" x="57.6" xlink:href="#m0cdb3d7287" y="218.88"/>
      </g>
     </g>
     <g id="text_14">
      <!-- −50 -->
      <g transform="translate(29.495313 222.679219)scale(0.1 -0.1)">
       <use xlink:href="#DejaVuSans-2212"/>
       <use x="83.789062" xlink:href="#DejaVuSans-35"/>
       <use x="147.412109" xlink:href="#DejaVuSans-30"/>
      </g>
     </g>
    </g>
    <g id="ytick_5">
     <g id="line2d_14">
      <g>
       <use style="stroke:#000000;stroke-width:0.8;" x="57.6" xlink:href="#m0cdb3d7287" y="189.312"/>
      </g>
     </g>
     <g id="text_15">
      <!-- 0 -->
      <g transform="translate(44.2375 193.111219)scale(0.1 -0.1)">
       <use xlink:href="#DejaVuSans-30"/>
      </g>
     </g>
    </g>
    <g id="ytick_6">
     <g id="line2d_15">
      <g>
       <use style="stroke:#000000;stroke-width:0.8;" x="57.6" xlink:href="#m0cdb3d7287" y="159.744"/>
      </g>
     </g>
     <g id="text_16">
      <!-- 50 -->
      <g transform="translate(37.875 163.543219)scale(0.1 -0.1)">
       <use xlink:href="#DejaVuSans-35"/>
       <use x="63.623047" xlink:href="#DejaVuSans-30"/>
      </g>
     </g>
    </g>
    <g id="ytick_7">
     <g id="line2d_16">
      <g>
       <use style="stroke:#000000;stroke-width:0.8;" x="57.6" xlink:href="#m0cdb3d7287" y="130.176"/>
      </g>
     </g>
     <g id="text_17">
      <!-- 100 -->
      <g transform="translate(31.5125 133.975219)scale(0.1 -0.1)">
       <use xlink:href="#DejaVuSans-31"/>
       <use x="63.623047" xlink:href="#DejaVuSans-30"/>
       <use x="127.246094" xlink:href="#DejaVuSans-30"/>
      </g>
     </g>
    </g>
    <g id="ytick_8">
     <g id="line2d_17">
      <g>
       <use style="stroke:#000000;stroke-width:0.8;" x="57.6" xlink:href="#m0cdb3d7287" y="100.608"/>
      </g>
     </g>
     <g id="text_18">
      <!-- 150 -->
      <g transform="translate(31.5125 104.407219)scale(0.1 -0.1)">
       <use xlink:href="#DejaVuSans-31"/>
       <use x="63.623047" xlink:href="#DejaVuSans-35"/>
       <use x="127.246094" xlink:href="#DejaVuSans-30"/>
      </g>
     </g>
    </g>
    <g id="ytick_9">
     <g id="line2d_18">
      <g>
       <use style="stroke:#000000;stroke-width:0.8;" x="57.6" xlink:href="#m0cdb3d7287" y="71.04"/>
      </g>
     </g>
     <g id="text_19">
      <!-- 200 -->
      <g transform="translate(31.5125 74.839219)scale(0.1 -0.1)">
       <use xlink:href="#DejaVuSans-32"/>
       <use x="63.623047" xlink:href="#DejaVuSans-30"/>
       <use x="127.246094" xlink:href="#DejaVuSans-30"/>
      </g>
     </g>
    </g>
    <g id="ytick_10">
     <g id="line2d_19">
      <g>
       <use style="stroke:#000000;stroke-width:0.8;" x="57.6" xlink:href="#m0cdb3d7287" y="41.472"/>
      </g>
     </g>
     <g id="text_20">
      <!-- 250 -->
      <g transform="translate(31.5125 45.271219)scale(0.1 -0.1)">
       <use xlink:href="#DejaVuSans-32"/>
       <use x="63.623047" xlink:href="#DejaVuSans-35"/>
       <use x="127.246094" xlink:href="#DejaVuSans-30"/>
      </g>
     </g>
    </g>
    <g id="text_21">
     <!-- Cumulative Reward -->
     <defs>
      <path d="M 64.40625 67.28125 
L 64.40625 56.890625 
Q 59.421875 61.53125 53.78125 63.8125 
Q 48.140625 66.109375 41.796875 66.109375 
Q 29.296875 66.109375 22.65625 58.46875 
Q 16.015625 50.828125 16.015625 36.375 
Q 16.015625 21.96875 22.65625 14.328125 
Q 29.296875 6.6875 41.796875 6.6875 
Q 48.140625 6.6875 53.78125 8.984375 
Q 59.421875 11.28125 64.40625 15.921875 
L 64.40625 5.609375 
Q 59.234375 2.09375 53.4375 0.328125 
Q 47.65625 -1.421875 41.21875 -1.421875 
Q 24.65625 -1.421875 15.125 8.703125 
Q 5.609375 18.84375 5.609375 36.375 
Q 5.609375 53.953125 15.125 64.078125 
Q 24.65625 74.21875 41.21875 74.21875 
Q 47.75 74.21875 53.53125 72.484375 
Q 59.328125 70.75 64.40625 67.28125 
z
" id="DejaVuSans-43"/>
      <path d="M 9.421875 75.984375 
L 18.40625 75.984375 
L 18.40625 0 
L 9.421875 0 
z
" id="DejaVuSans-6c"/>
      <path d="M 34.28125 27.484375 
Q 23.390625 27.484375 19.1875 25 
Q 14.984375 22.515625 14.984375 16.5 
Q 14.984375 11.71875 18.140625 8.90625 
Q 21.296875 6.109375 26.703125 6.109375 
Q 34.1875 6.109375 38.703125 11.40625 
Q 43.21875 16.703125 43.21875 25.484375 
L 43.21875 27.484375 
z
M 52.203125 31.203125 
L 52.203125 0 
L 43.21875 0 
L 43.21875 8.296875 
Q 40.140625 3.328125 35.546875 0.953125 
Q 30.953125 -1.421875 24.3125 -1.421875 
Q 15.921875 -1.421875 10.953125 3.296875 
Q 6 8.015625 6 15.921875 
Q 6 25.140625 12.171875 29.828125 
Q 18.359375 34.515625 30.609375 34.515625 
L 43.21875 34.515625 
L 43.21875 35.40625 
Q 43.21875 41.609375 39.140625 45 
Q 35.0625 48.390625 27.6875 48.390625 
Q 23 48.390625 18.546875 47.265625 
Q 14.109375 46.140625 10.015625 43.890625 
L 10.015625 52.203125 
Q 14.9375 54.109375 19.578125 55.046875 
Q 24.21875 56 28.609375 56 
Q 40.484375 56 46.34375 49.84375 
Q 52.203125 43.703125 52.203125 31.203125 
z
" id="DejaVuSans-61"/>
      <path d="M 18.3125 70.21875 
L 18.3125 54.6875 
L 36.8125 54.6875 
L 36.8125 47.703125 
L 18.3125 47.703125 
L 18.3125 18.015625 
Q 18.3125 11.328125 20.140625 9.421875 
Q 21.96875 7.515625 27.59375 7.515625 
L 36.8125 7.515625 
L 36.8125 0 
L 27.59375 0 
Q 17.1875 0 13.234375 3.875 
Q 9.28125 7.765625 9.28125 18.015625 
L 9.28125 47.703125 
L 2.6875 47.703125 
L 2.6875 54.6875 
L 9.28125 54.6875 
L 9.28125 70.21875 
z
" id="DejaVuSans-74"/>
      <path d="M 2.984375 54.6875 
L 12.5 54.6875 
L 29.59375 8.796875 
L 46.6875 54.6875 
L 56.203125 54.6875 
L 35.6875 0 
L 23.484375 0 
z
" id="DejaVuSans-76"/>
      <path d="M 44.390625 34.1875 
Q 47.5625 33.109375 50.5625 29.59375 
Q 53.5625 26.078125 56.59375 19.921875 
L 66.609375 0 
L 56 0 
L 46.6875 18.703125 
Q 43.0625 26.03125 39.671875 28.421875 
Q 36.28125 30.8125 30.421875 30.8125 
L 19.671875 30.8125 
L 19.671875 0 
L 9.8125 0 
L 9.8125 72.90625 
L 32.078125 72.90625 
Q 44.578125 72.90625 50.734375 67.671875 
Q 56.890625 62.453125 56.890625 51.90625 
Q 56.890625 45.015625 53.6875 40.46875 
Q 50.484375 35.9375 44.390625 34.1875 
z
M 19.671875 64.796875 
L 19.671875 38.921875 
L 32.078125 38.921875 
Q 39.203125 38.921875 42.84375 42.21875 
Q 46.484375 45.515625 46.484375 51.90625 
Q 46.484375 58.296875 42.84375 61.546875 
Q 39.203125 64.796875 32.078125 64.796875 
z
" id="DejaVuSans-52"/>
      <path d="M 4.203125 54.6875 
L 13.1875 54.6875 
L 24.421875 12.015625 
L 35.59375 54.6875 
L 46.1875 54.6875 
L 57.421875 12.015625 
L 68.609375 54.6875 
L 77.59375 54.6875 
L 63.28125 0 
L 52.6875 0 
L 40.921875 44.828125 
L 29.109375 0 
L 18.5 0 
z
" id="DejaVuSans-77"/>
     </defs>
     <g transform="translate(17.053125 223.58425)rotate(-90)scale(0.1 -0.1)">
      <use xlink:href="#DejaVuSans-43"/>
      <use x="69.824219" xlink:href="#DejaVuSans-75"/>
      <use x="133.203125" xlink:href="#DejaVuSans-6d"/>
      <use x="230.615234" xlink:href="#DejaVuSans-75"/>
      <use x="293.994141" xlink:href="#DejaVuSans-6c"/>
      <use x="321.777344" xlink:href="#DejaVuSans-61"/>
      <use x="383.056641" xlink:href="#DejaVuSans-74"/>
      <use x="422.265625" xlink:href="#DejaVuSans-69"/>
      <use x="450.048828" xlink:href="#DejaVuSans-76"/>
      <use x="509.228516" xlink:href="#DejaVuSans-65"/>
      <use x="570.751953" xlink:href="#DejaVuSans-20"/>
      <use x="602.539062" xlink:href="#DejaVuSans-52"/>
      <use x="671.958984" xlink:href="#DejaVuSans-65"/>
      <use x="733.482422" xlink:href="#DejaVuSans-77"/>
      <use x="815.269531" xlink:href="#DejaVuSans-61"/>
      <use x="876.548828" xlink:href="#DejaVuSans-72"/>
      <use x="917.646484" xlink:href="#DejaVuSans-64"/>
     </g>
    </g>
   </g>
   <g id="line2d_20">
    <path clip-path="url(#p39a57ce509)" d="M 73.832727 281.007799 
L 81.949091 254.479872 
L 90.065455 236.541147 
L 98.181818 223.216238 
L 106.298182 219.295184 
L 114.414545 215.587694 
L 122.530909 208.517925 
L 130.647273 205.185792 
L 138.763636 204.086345 
L 146.88 198.612368 
L 154.996364 200.447671 
L 163.112727 201.136786 
L 171.229091 193.892023 
L 179.345455 191.700848 
L 187.461818 190.83264 
L 195.578182 190.679369 
L 203.694545 191.556754 
L 211.810909 182.664631 
L 219.927273 187.275504 
L 228.043636 188.830464 
L 236.16 175.798821 
L 244.276364 181.683456 
L 252.392727 177.660976 
L 260.509091 176.99723 
L 268.625455 175.600896 
L 276.741818 176.329838 
L 284.858182 173.165458 
L 292.974545 175.206832 
L 301.090909 174.690926 
L 309.207273 175.45728 
L 317.323636 171.130697 
L 325.44 160.98216 
L 333.556364 165.917074 
L 341.672727 165.058999 
L 349.789091 163.702491 
L 357.905455 166.06069 
L 366.021818 164.044912 
L 374.138182 162.380983 
L 382.254545 163.210094 
L 390.370909 164.827282 
L 398.487273 171.683438 
" style="fill:none;opacity:0.7;stroke:#1f77b4;stroke-linecap:square;stroke-width:1.5;"/>
   </g>
   <g id="line2d_21">
    <path clip-path="url(#p39a57ce509)" d="M 73.832727 276.143561 
L 81.949091 252.865097 
L 90.065455 234.208293 
L 98.181818 225.486939 
L 106.298182 220.310968 
L 114.414545 214.983058 
L 122.530909 209.917879 
L 130.647273 206.917029 
L 138.763636 203.744805 
L 146.88 202.243072 
L 154.996364 198.088265 
L 163.112727 196.236343 
L 171.229091 195.337234 
L 179.345455 191.454448 
L 187.461818 189.170798 
L 195.578182 185.33963 
L 203.694545 184.782665 
L 211.810909 180.909257 
L 219.927273 182.42204 
L 228.043636 173.423726 
L 236.16 176.04683 
L 244.276364 176.627931 
L 252.392727 178.031808 
L 260.509091 175.039104 
L 268.625455 168.554057 
L 276.741818 172.721335 
L 284.858182 175.084361 
L 292.974545 173.007712 
L 301.090909 171.244142 
L 309.207273 170.774674 
L 317.323636 169.183433 
L 325.44 167.947888 
L 333.556364 166.486107 
L 341.672727 168.744741 
L 349.789091 159.547886 
L 357.905455 155.107255 
L 366.021818 152.823856 
L 374.138182 162.108233 
L 382.254545 162.195127 
L 390.370909 153.78997 
L 398.487273 160.585783 
" style="fill:none;opacity:0.7;stroke:#ff7f0e;stroke-linecap:square;stroke-width:1.5;"/>
   </g>
   <g id="line2d_22">
    <path clip-path="url(#p39a57ce509)" d="M 73.832727 274.902309 
L 81.949091 247.554021 
L 90.065455 236.874843 
L 98.181818 225.495689 
L 106.298182 215.476292 
L 114.414545 211.678985 
L 122.530909 205.176439 
L 130.647273 201.61621 
L 138.763636 201.223077 
L 146.88 199.443044 
L 154.996364 194.894921 
L 163.112727 193.068645 
L 171.229091 194.499072 
L 179.345455 191.875792 
L 187.461818 191.016987 
L 195.578182 187.547575 
L 203.694545 186.567607 
L 211.810909 187.043712 
L 219.927273 187.422728 
L 228.043636 187.950665 
L 236.16 183.71701 
L 244.276364 182.573815 
L 252.392727 179.087324 
L 260.509091 179.159918 
L 268.625455 179.365687 
L 276.741818 177.899355 
L 284.858182 179.60736 
L 292.974545 178.093408 
L 301.090909 178.169691 
L 309.207273 177.976293 
L 317.323636 174.284818 
L 325.44 176.14192 
L 333.556364 177.851986 
L 341.672727 173.086409 
L 349.789091 171.751927 
L 357.905455 175.99584 
L 366.021818 175.993464 
L 374.138182 173.546523 
L 382.254545 169.16533 
L 390.370909 170.815104 
L 398.487273 165.961426 
" style="fill:none;opacity:0.7;stroke:#2ca02c;stroke-linecap:square;stroke-width:1.5;"/>
   </g>
   <g id="line2d_23">
    <path clip-path="url(#p39a57ce509)" d="M 73.832727 277.311195 
L 81.949091 247.486286 
L 90.065455 232.98469 
L 98.181818 224.494903 
L 106.298182 216.848432 
L 114.414545 213.851177 
L 122.530909 205.90176 
L 130.647273 202.451808 
L 138.763636 199.979863 
L 146.88 198.412168 
L 154.996364 195.396219 
L 163.112727 194.423342 
L 171.229091 190.851195 
L 179.345455 190.251554 
L 187.461818 189.46165 
L 195.578182 188.904082 
L 203.694545 187.250839 
L 211.810909 186.106135 
L 219.927273 184.307308 
L 228.043636 182.611227 
L 236.16 183.912521 
L 244.276364 182.531575 
L 252.392727 182.752986 
L 260.509091 181.860562 
L 268.625455 180.676485 
L 276.741818 180.499831 
L 284.858182 182.230162 
L 292.974545 180.709098 
L 301.090909 179.527104 
L 309.207273 183.1344 
L 317.323636 181.310839 
L 325.44 180.41542 
L 333.556364 182.067237 
L 341.672727 181.308425 
L 349.789091 180.231003 
L 357.905455 179.214528 
L 366.021818 177.626018 
L 374.138182 180.361797 
L 382.254545 175.855995 
L 390.370909 175.905175 
L 398.487273 172.613925 
" style="fill:none;opacity:0.7;stroke:#d62728;stroke-linecap:square;stroke-width:1.5;"/>
   </g>
   <g id="patch_3">
    <path d="M 57.6 307.584 
L 57.6 41.472 
" style="fill:none;stroke:#000000;stroke-linecap:square;stroke-linejoin:miter;stroke-width:0.8;"/>
   </g>
   <g id="patch_4">
    <path d="M 414.72 307.584 
L 414.72 41.472 
" style="fill:none;stroke:#000000;stroke-linecap:square;stroke-linejoin:miter;stroke-width:0.8;"/>
   </g>
   <g id="patch_5">
    <path d="M 57.6 307.584 
L 414.72 307.584 
" style="fill:none;stroke:#000000;stroke-linecap:square;stroke-linejoin:miter;stroke-width:0.8;"/>
   </g>
   <g id="patch_6">
    <path d="M 57.6 41.472 
L 414.72 41.472 
" style="fill:none;stroke:#000000;stroke-linecap:square;stroke-linejoin:miter;stroke-width:0.8;"/>
   </g>
   <g id="text_22">
    <!-- Average Performance and Standard Error  -->
    <defs>
     <path d="M 34.1875 63.1875 
L 20.796875 26.90625 
L 47.609375 26.90625 
z
M 28.609375 72.90625 
L 39.796875 72.90625 
L 67.578125 0 
L 57.328125 0 
L 50.6875 18.703125 
L 17.828125 18.703125 
L 11.1875 0 
L 0.78125 0 
z
" id="DejaVuSans-41"/>
     <path d="M 45.40625 27.984375 
Q 45.40625 37.75 41.375 43.109375 
Q 37.359375 48.484375 30.078125 48.484375 
Q 22.859375 48.484375 18.828125 43.109375 
Q 14.796875 37.75 14.796875 27.984375 
Q 14.796875 18.265625 18.828125 12.890625 
Q 22.859375 7.515625 30.078125 7.515625 
Q 37.359375 7.515625 41.375 12.890625 
Q 45.40625 18.265625 45.40625 27.984375 
z
M 54.390625 6.78125 
Q 54.390625 -7.171875 48.1875 -13.984375 
Q 42 -20.796875 29.203125 -20.796875 
Q 24.46875 -20.796875 20.265625 -20.09375 
Q 16.0625 -19.390625 12.109375 -17.921875 
L 12.109375 -9.1875 
Q 16.0625 -11.328125 19.921875 -12.34375 
Q 23.78125 -13.375 27.78125 -13.375 
Q 36.625 -13.375 41.015625 -8.765625 
Q 45.40625 -4.15625 45.40625 5.171875 
L 45.40625 9.625 
Q 42.625 4.78125 38.28125 2.390625 
Q 33.9375 0 27.875 0 
Q 17.828125 0 11.671875 7.65625 
Q 5.515625 15.328125 5.515625 27.984375 
Q 5.515625 40.671875 11.671875 48.328125 
Q 17.828125 56 27.875 56 
Q 33.9375 56 38.28125 53.609375 
Q 42.625 51.21875 45.40625 46.390625 
L 45.40625 54.6875 
L 54.390625 54.6875 
z
" id="DejaVuSans-67"/>
     <path d="M 19.671875 64.796875 
L 19.671875 37.40625 
L 32.078125 37.40625 
Q 38.96875 37.40625 42.71875 40.96875 
Q 46.484375 44.53125 46.484375 51.125 
Q 46.484375 57.671875 42.71875 61.234375 
Q 38.96875 64.796875 32.078125 64.796875 
z
M 9.8125 72.90625 
L 32.078125 72.90625 
Q 44.34375 72.90625 50.609375 67.359375 
Q 56.890625 61.8125 56.890625 51.125 
Q 56.890625 40.328125 50.609375 34.8125 
Q 44.34375 29.296875 32.078125 29.296875 
L 19.671875 29.296875 
L 19.671875 0 
L 9.8125 0 
z
" id="DejaVuSans-50"/>
     <path d="M 37.109375 75.984375 
L 37.109375 68.5 
L 28.515625 68.5 
Q 23.6875 68.5 21.796875 66.546875 
Q 19.921875 64.59375 19.921875 59.515625 
L 19.921875 54.6875 
L 34.71875 54.6875 
L 34.71875 47.703125 
L 19.921875 47.703125 
L 19.921875 0 
L 10.890625 0 
L 10.890625 47.703125 
L 2.296875 47.703125 
L 2.296875 54.6875 
L 10.890625 54.6875 
L 10.890625 58.5 
Q 10.890625 67.625 15.140625 71.796875 
Q 19.390625 75.984375 28.609375 75.984375 
z
" id="DejaVuSans-66"/>
     <path d="M 54.890625 33.015625 
L 54.890625 0 
L 45.90625 0 
L 45.90625 32.71875 
Q 45.90625 40.484375 42.875 44.328125 
Q 39.84375 48.1875 33.796875 48.1875 
Q 26.515625 48.1875 22.3125 43.546875 
Q 18.109375 38.921875 18.109375 30.90625 
L 18.109375 0 
L 9.078125 0 
L 9.078125 54.6875 
L 18.109375 54.6875 
L 18.109375 46.1875 
Q 21.34375 51.125 25.703125 53.5625 
Q 30.078125 56 35.796875 56 
Q 45.21875 56 50.046875 50.171875 
Q 54.890625 44.34375 54.890625 33.015625 
z
" id="DejaVuSans-6e"/>
     <path d="M 48.78125 52.59375 
L 48.78125 44.1875 
Q 44.96875 46.296875 41.140625 47.34375 
Q 37.3125 48.390625 33.40625 48.390625 
Q 24.65625 48.390625 19.8125 42.84375 
Q 14.984375 37.3125 14.984375 27.296875 
Q 14.984375 17.28125 19.8125 11.734375 
Q 24.65625 6.203125 33.40625 6.203125 
Q 37.3125 6.203125 41.140625 7.25 
Q 44.96875 8.296875 48.78125 10.40625 
L 48.78125 2.09375 
Q 45.015625 0.34375 40.984375 -0.53125 
Q 36.96875 -1.421875 32.421875 -1.421875 
Q 20.0625 -1.421875 12.78125 6.34375 
Q 5.515625 14.109375 5.515625 27.296875 
Q 5.515625 40.671875 12.859375 48.328125 
Q 20.21875 56 33.015625 56 
Q 37.15625 56 41.109375 55.140625 
Q 45.0625 54.296875 48.78125 52.59375 
z
" id="DejaVuSans-63"/>
     <path d="M 53.515625 70.515625 
L 53.515625 60.890625 
Q 47.90625 63.578125 42.921875 64.890625 
Q 37.9375 66.21875 33.296875 66.21875 
Q 25.25 66.21875 20.875 63.09375 
Q 16.5 59.96875 16.5 54.203125 
Q 16.5 49.359375 19.40625 46.890625 
Q 22.3125 44.4375 30.421875 42.921875 
L 36.375 41.703125 
Q 47.40625 39.59375 52.65625 34.296875 
Q 57.90625 29 57.90625 20.125 
Q 57.90625 9.515625 50.796875 4.046875 
Q 43.703125 -1.421875 29.984375 -1.421875 
Q 24.8125 -1.421875 18.96875 -0.25 
Q 13.140625 0.921875 6.890625 3.21875 
L 6.890625 13.375 
Q 12.890625 10.015625 18.65625 8.296875 
Q 24.421875 6.59375 29.984375 6.59375 
Q 38.421875 6.59375 43.015625 9.90625 
Q 47.609375 13.234375 47.609375 19.390625 
Q 47.609375 24.75 44.3125 27.78125 
Q 41.015625 30.8125 33.5 32.328125 
L 27.484375 33.5 
Q 16.453125 35.6875 11.515625 40.375 
Q 6.59375 45.0625 6.59375 53.421875 
Q 6.59375 63.09375 13.40625 68.65625 
Q 20.21875 74.21875 32.171875 74.21875 
Q 37.3125 74.21875 42.625 73.28125 
Q 47.953125 72.359375 53.515625 70.515625 
z
" id="DejaVuSans-53"/>
    </defs>
    <g transform="translate(109.752188 22.034625)scale(0.12 -0.12)">
     <use xlink:href="#DejaVuSans-41"/>
     <use x="68.330078" xlink:href="#DejaVuSans-76"/>
     <use x="127.509766" xlink:href="#DejaVuSans-65"/>
     <use x="189.033203" xlink:href="#DejaVuSans-72"/>
     <use x="230.146484" xlink:href="#DejaVuSans-61"/>
     <use x="291.425781" xlink:href="#DejaVuSans-67"/>
     <use x="354.902344" xlink:href="#DejaVuSans-65"/>
     <use x="416.425781" xlink:href="#DejaVuSans-20"/>
     <use x="448.212891" xlink:href="#DejaVuSans-50"/>
     <use x="508.46875" xlink:href="#DejaVuSans-65"/>
     <use x="569.992188" xlink:href="#DejaVuSans-72"/>
     <use x="611.105469" xlink:href="#DejaVuSans-66"/>
     <use x="646.310547" xlink:href="#DejaVuSans-6f"/>
     <use x="707.492188" xlink:href="#DejaVuSans-72"/>
     <use x="748.589844" xlink:href="#DejaVuSans-6d"/>
     <use x="846.001953" xlink:href="#DejaVuSans-61"/>
     <use x="907.28125" xlink:href="#DejaVuSans-6e"/>
     <use x="970.660156" xlink:href="#DejaVuSans-63"/>
     <use x="1025.640625" xlink:href="#DejaVuSans-65"/>
     <use x="1087.164062" xlink:href="#DejaVuSans-20"/>
     <use x="1118.951172" xlink:href="#DejaVuSans-61"/>
     <use x="1180.230469" xlink:href="#DejaVuSans-6e"/>
     <use x="1243.609375" xlink:href="#DejaVuSans-64"/>
     <use x="1307.085938" xlink:href="#DejaVuSans-20"/>
     <use x="1338.873047" xlink:href="#DejaVuSans-53"/>
     <use x="1402.349609" xlink:href="#DejaVuSans-74"/>
     <use x="1441.558594" xlink:href="#DejaVuSans-61"/>
     <use x="1502.837891" xlink:href="#DejaVuSans-6e"/>
     <use x="1566.216797" xlink:href="#DejaVuSans-64"/>
     <use x="1629.693359" xlink:href="#DejaVuSans-61"/>
     <use x="1690.972656" xlink:href="#DejaVuSans-72"/>
     <use x="1732.070312" xlink:href="#DejaVuSans-64"/>
     <use x="1795.546875" xlink:href="#DejaVuSans-20"/>
     <use x="1827.333984" xlink:href="#DejaVuSans-45"/>
     <use x="1890.517578" xlink:href="#DejaVuSans-72"/>
     <use x="1931.615234" xlink:href="#DejaVuSans-72"/>
     <use x="1972.697266" xlink:href="#DejaVuSans-6f"/>
     <use x="2033.878906" xlink:href="#DejaVuSans-72"/>
     <use x="2074.992188" xlink:href="#DejaVuSans-20"/>
    </g>
    <!-- with DistQL-Partial tau 50 in CartPole-v1 -->
    <defs>
     <path d="M 54.890625 33.015625 
L 54.890625 0 
L 45.90625 0 
L 45.90625 32.71875 
Q 45.90625 40.484375 42.875 44.328125 
Q 39.84375 48.1875 33.796875 48.1875 
Q 26.515625 48.1875 22.3125 43.546875 
Q 18.109375 38.921875 18.109375 30.90625 
L 18.109375 0 
L 9.078125 0 
L 9.078125 75.984375 
L 18.109375 75.984375 
L 18.109375 46.1875 
Q 21.34375 51.125 25.703125 53.5625 
Q 30.078125 56 35.796875 56 
Q 45.21875 56 50.046875 50.171875 
Q 54.890625 44.34375 54.890625 33.015625 
z
" id="DejaVuSans-68"/>
     <path d="M 19.671875 64.796875 
L 19.671875 8.109375 
L 31.59375 8.109375 
Q 46.6875 8.109375 53.6875 14.9375 
Q 60.6875 21.78125 60.6875 36.53125 
Q 60.6875 51.171875 53.6875 57.984375 
Q 46.6875 64.796875 31.59375 64.796875 
z
M 9.8125 72.90625 
L 30.078125 72.90625 
Q 51.265625 72.90625 61.171875 64.09375 
Q 71.09375 55.28125 71.09375 36.53125 
Q 71.09375 17.671875 61.125 8.828125 
Q 51.171875 0 30.078125 0 
L 9.8125 0 
z
" id="DejaVuSans-44"/>
     <path d="M 39.40625 66.21875 
Q 28.65625 66.21875 22.328125 58.203125 
Q 16.015625 50.203125 16.015625 36.375 
Q 16.015625 22.609375 22.328125 14.59375 
Q 28.65625 6.59375 39.40625 6.59375 
Q 50.140625 6.59375 56.421875 14.59375 
Q 62.703125 22.609375 62.703125 36.375 
Q 62.703125 50.203125 56.421875 58.203125 
Q 50.140625 66.21875 39.40625 66.21875 
z
M 53.21875 1.3125 
L 66.21875 -12.890625 
L 54.296875 -12.890625 
L 43.5 -1.21875 
Q 41.890625 -1.3125 41.03125 -1.359375 
Q 40.1875 -1.421875 39.40625 -1.421875 
Q 24.03125 -1.421875 14.8125 8.859375 
Q 5.609375 19.140625 5.609375 36.375 
Q 5.609375 53.65625 14.8125 63.9375 
Q 24.03125 74.21875 39.40625 74.21875 
Q 54.734375 74.21875 63.90625 63.9375 
Q 73.09375 53.65625 73.09375 36.375 
Q 73.09375 23.6875 67.984375 14.640625 
Q 62.890625 5.609375 53.21875 1.3125 
z
" id="DejaVuSans-51"/>
     <path d="M 9.8125 72.90625 
L 19.671875 72.90625 
L 19.671875 8.296875 
L 55.171875 8.296875 
L 55.171875 0 
L 9.8125 0 
z
" id="DejaVuSans-4c"/>
     <path d="M 4.890625 31.390625 
L 31.203125 31.390625 
L 31.203125 23.390625 
L 4.890625 23.390625 
z
" id="DejaVuSans-2d"/>
    </defs>
    <g transform="translate(114.984375 35.472)scale(0.12 -0.12)">
     <use xlink:href="#DejaVuSans-77"/>
     <use x="81.787109" xlink:href="#DejaVuSans-69"/>
     <use x="109.570312" xlink:href="#DejaVuSans-74"/>
     <use x="148.779297" xlink:href="#DejaVuSans-68"/>
     <use x="212.158203" xlink:href="#DejaVuSans-20"/>
     <use x="243.945312" xlink:href="#DejaVuSans-44"/>
     <use x="320.947266" xlink:href="#DejaVuSans-69"/>
     <use x="348.730469" xlink:href="#DejaVuSans-73"/>
     <use x="400.830078" xlink:href="#DejaVuSans-74"/>
     <use x="440.039062" xlink:href="#DejaVuSans-51"/>
     <use x="518.75" xlink:href="#DejaVuSans-4c"/>
     <use x="574.447266" xlink:href="#DejaVuSans-2d"/>
     <use x="610.53125" xlink:href="#DejaVuSans-50"/>
     <use x="670.771484" xlink:href="#DejaVuSans-61"/>
     <use x="732.050781" xlink:href="#DejaVuSans-72"/>
     <use x="773.164062" xlink:href="#DejaVuSans-74"/>
     <use x="812.373047" xlink:href="#DejaVuSans-69"/>
     <use x="840.15625" xlink:href="#DejaVuSans-61"/>
     <use x="901.435547" xlink:href="#DejaVuSans-6c"/>
     <use x="929.21875" xlink:href="#DejaVuSans-20"/>
     <use x="961.005859" xlink:href="#DejaVuSans-74"/>
     <use x="1000.214844" xlink:href="#DejaVuSans-61"/>
     <use x="1061.494141" xlink:href="#DejaVuSans-75"/>
     <use x="1124.873047" xlink:href="#DejaVuSans-20"/>
     <use x="1156.660156" xlink:href="#DejaVuSans-35"/>
     <use x="1220.283203" xlink:href="#DejaVuSans-30"/>
     <use x="1283.90625" xlink:href="#DejaVuSans-20"/>
     <use x="1315.693359" xlink:href="#DejaVuSans-69"/>
     <use x="1343.476562" xlink:href="#DejaVuSans-6e"/>
     <use x="1406.855469" xlink:href="#DejaVuSans-20"/>
     <use x="1438.642578" xlink:href="#DejaVuSans-43"/>
     <use x="1508.466797" xlink:href="#DejaVuSans-61"/>
     <use x="1569.746094" xlink:href="#DejaVuSans-72"/>
     <use x="1610.859375" xlink:href="#DejaVuSans-74"/>
     <use x="1650.068359" xlink:href="#DejaVuSans-50"/>
     <use x="1710.324219" xlink:href="#DejaVuSans-6f"/>
     <use x="1771.505859" xlink:href="#DejaVuSans-6c"/>
     <use x="1799.289062" xlink:href="#DejaVuSans-65"/>
     <use x="1860.8125" xlink:href="#DejaVuSans-2d"/>
     <use x="1896.865234" xlink:href="#DejaVuSans-76"/>
     <use x="1956.044922" xlink:href="#DejaVuSans-31"/>
    </g>
   </g>
   <g id="legend_1">
    <g id="patch_7">
     <path d="M 332.0825 302.584 
L 407.72 302.584 
Q 409.72 302.584 409.72 300.584 
L 409.72 242.8715 
Q 409.72 240.8715 407.72 240.8715 
L 332.0825 240.8715 
Q 330.0825 240.8715 330.0825 242.8715 
L 330.0825 300.584 
Q 330.0825 302.584 332.0825 302.584 
z
" style="fill:#ffffff;opacity:0.8;stroke:#cccccc;stroke-linejoin:miter;"/>
    </g>
    <g id="line2d_24">
     <path d="M 334.0825 248.969937 
L 354.0825 248.969937 
" style="fill:none;opacity:0.7;stroke:#1f77b4;stroke-linecap:square;stroke-width:1.5;"/>
    </g>
    <g id="line2d_25"/>
    <g id="text_23">
     <!-- 1 agent -->
     <g transform="translate(362.0825 252.469937)scale(0.1 -0.1)">
      <use xlink:href="#DejaVuSans-31"/>
      <use x="63.623047" xlink:href="#DejaVuSans-20"/>
      <use x="95.410156" xlink:href="#DejaVuSans-61"/>
      <use x="156.689453" xlink:href="#DejaVuSans-67"/>
      <use x="220.166016" xlink:href="#DejaVuSans-65"/>
      <use x="281.689453" xlink:href="#DejaVuSans-6e"/>
      <use x="345.068359" xlink:href="#DejaVuSans-74"/>
     </g>
    </g>
    <g id="line2d_26">
     <path d="M 334.0825 263.648062 
L 354.0825 263.648062 
" style="fill:none;opacity:0.7;stroke:#ff7f0e;stroke-linecap:square;stroke-width:1.5;"/>
    </g>
    <g id="line2d_27"/>
    <g id="text_24">
     <!-- 2 agents -->
     <g transform="translate(362.0825 267.148062)scale(0.1 -0.1)">
      <use xlink:href="#DejaVuSans-32"/>
      <use x="63.623047" xlink:href="#DejaVuSans-20"/>
      <use x="95.410156" xlink:href="#DejaVuSans-61"/>
      <use x="156.689453" xlink:href="#DejaVuSans-67"/>
      <use x="220.166016" xlink:href="#DejaVuSans-65"/>
      <use x="281.689453" xlink:href="#DejaVuSans-6e"/>
      <use x="345.068359" xlink:href="#DejaVuSans-74"/>
      <use x="384.277344" xlink:href="#DejaVuSans-73"/>
     </g>
    </g>
    <g id="line2d_28">
     <path d="M 334.0825 278.326187 
L 354.0825 278.326187 
" style="fill:none;opacity:0.7;stroke:#2ca02c;stroke-linecap:square;stroke-width:1.5;"/>
    </g>
    <g id="line2d_29"/>
    <g id="text_25">
     <!-- 4 agents -->
     <defs>
      <path d="M 37.796875 64.3125 
L 12.890625 25.390625 
L 37.796875 25.390625 
z
M 35.203125 72.90625 
L 47.609375 72.90625 
L 47.609375 25.390625 
L 58.015625 25.390625 
L 58.015625 17.1875 
L 47.609375 17.1875 
L 47.609375 0 
L 37.796875 0 
L 37.796875 17.1875 
L 4.890625 17.1875 
L 4.890625 26.703125 
z
" id="DejaVuSans-34"/>
     </defs>
     <g transform="translate(362.0825 281.826187)scale(0.1 -0.1)">
      <use xlink:href="#DejaVuSans-34"/>
      <use x="63.623047" xlink:href="#DejaVuSans-20"/>
      <use x="95.410156" xlink:href="#DejaVuSans-61"/>
      <use x="156.689453" xlink:href="#DejaVuSans-67"/>
      <use x="220.166016" xlink:href="#DejaVuSans-65"/>
      <use x="281.689453" xlink:href="#DejaVuSans-6e"/>
      <use x="345.068359" xlink:href="#DejaVuSans-74"/>
      <use x="384.277344" xlink:href="#DejaVuSans-73"/>
     </g>
    </g>
    <g id="line2d_30">
     <path d="M 334.0825 293.004312 
L 354.0825 293.004312 
" style="fill:none;opacity:0.7;stroke:#d62728;stroke-linecap:square;stroke-width:1.5;"/>
    </g>
    <g id="line2d_31"/>
    <g id="text_26">
     <!-- 8 agents -->
     <defs>
      <path d="M 31.78125 34.625 
Q 24.75 34.625 20.71875 30.859375 
Q 16.703125 27.09375 16.703125 20.515625 
Q 16.703125 13.921875 20.71875 10.15625 
Q 24.75 6.390625 31.78125 6.390625 
Q 38.8125 6.390625 42.859375 10.171875 
Q 46.921875 13.96875 46.921875 20.515625 
Q 46.921875 27.09375 42.890625 30.859375 
Q 38.875 34.625 31.78125 34.625 
z
M 21.921875 38.8125 
Q 15.578125 40.375 12.03125 44.71875 
Q 8.5 49.078125 8.5 55.328125 
Q 8.5 64.0625 14.71875 69.140625 
Q 20.953125 74.21875 31.78125 74.21875 
Q 42.671875 74.21875 48.875 69.140625 
Q 55.078125 64.0625 55.078125 55.328125 
Q 55.078125 49.078125 51.53125 44.71875 
Q 48 40.375 41.703125 38.8125 
Q 48.828125 37.15625 52.796875 32.3125 
Q 56.78125 27.484375 56.78125 20.515625 
Q 56.78125 9.90625 50.3125 4.234375 
Q 43.84375 -1.421875 31.78125 -1.421875 
Q 19.734375 -1.421875 13.25 4.234375 
Q 6.78125 9.90625 6.78125 20.515625 
Q 6.78125 27.484375 10.78125 32.3125 
Q 14.796875 37.15625 21.921875 38.8125 
z
M 18.3125 54.390625 
Q 18.3125 48.734375 21.84375 45.5625 
Q 25.390625 42.390625 31.78125 42.390625 
Q 38.140625 42.390625 41.71875 45.5625 
Q 45.3125 48.734375 45.3125 54.390625 
Q 45.3125 60.0625 41.71875 63.234375 
Q 38.140625 66.40625 31.78125 66.40625 
Q 25.390625 66.40625 21.84375 63.234375 
Q 18.3125 60.0625 18.3125 54.390625 
z
" id="DejaVuSans-38"/>
     </defs>
     <g transform="translate(362.0825 296.504312)scale(0.1 -0.1)">
      <use xlink:href="#DejaVuSans-38"/>
      <use x="63.623047" xlink:href="#DejaVuSans-20"/>
      <use x="95.410156" xlink:href="#DejaVuSans-61"/>
      <use x="156.689453" xlink:href="#DejaVuSans-67"/>
      <use x="220.166016" xlink:href="#DejaVuSans-65"/>
      <use x="281.689453" xlink:href="#DejaVuSans-6e"/>
      <use x="345.068359" xlink:href="#DejaVuSans-74"/>
      <use x="384.277344" xlink:href="#DejaVuSans-73"/>
     </g>
    </g>
   </g>
  </g>
 </g>
 <defs>
  <clipPath id="p39a57ce509">
   <rect height="266.112" width="357.12" x="57.6" y="41.472"/>
  </clipPath>
 </defs>
</svg>
