<?xml version="1.0" encoding="utf-8" standalone="no"?>
<!DOCTYPE svg PUBLIC "-//W3C//DTD SVG 1.1//EN"
  "http://www.w3.org/Graphics/SVG/1.1/DTD/svg11.dtd">
<!-- Created with matplotlib (http://matplotlib.org/) -->
<svg height="345.6pt" version="1.1" viewBox="0 0 460.8 345.6" width="460.8pt" xmlns="http://www.w3.org/2000/svg" xmlns:xlink="http://www.w3.org/1999/xlink">
 <defs>
  <style type="text/css">
*{stroke-linecap:butt;stroke-linejoin:round;}
  </style>
 </defs>
 <g id="figure_1">
  <g id="patch_1">
   <path d="M 0 345.6 
L 460.8 345.6 
L 460.8 0 
L 0 0 
z
" style="fill:#ffffff;"/>
  </g>
  <g id="axes_1">
   <g id="patch_2">
    <path d="M 57.6 307.584 
L 414.72 307.584 
L 414.72 41.472 
L 57.6 41.472 
z
" style="fill:#ffffff;"/>
   </g>
   <g id="PolyCollection_1">
    <path clip-path="url(#pd5e6229fe0)" d="M 73.832727 289.487519 
L 73.832727 276.930694 
L 81.949091 236.833499 
L 90.065455 230.428413 
L 98.181818 223.26791 
L 106.298182 213.057295 
L 114.414545 204.139089 
L 122.530909 195.305753 
L 130.647273 190.665571 
L 138.763636 187.844018 
L 146.88 179.652383 
L 154.996364 182.335732 
L 163.112727 184.890167 
L 171.229091 178.877764 
L 179.345455 171.783217 
L 187.461818 177.780884 
L 195.578182 176.807586 
L 203.694545 177.904407 
L 211.810909 168.909914 
L 219.927273 168.910554 
L 228.043636 171.576714 
L 236.16 170.320423 
L 244.276364 170.707178 
L 252.392727 165.016445 
L 260.509091 159.27895 
L 268.625455 157.848528 
L 276.741818 153.702709 
L 284.858182 159.602387 
L 292.974545 149.612648 
L 301.090909 141.477862 
L 309.207273 149.04836 
L 317.323636 136.079545 
L 325.44 144.505008 
L 333.556364 143.423681 
L 341.672727 131.931657 
L 349.789091 128.746963 
L 357.905455 136.04109 
L 366.021818 141.059952 
L 374.138182 126.687093 
L 382.254545 123.139448 
L 390.370909 135.636409 
L 398.487273 141.168818 
L 398.487273 181.693554 
L 398.487273 181.693554 
L 390.370909 177.076295 
L 382.254545 168.339811 
L 374.138182 168.564801 
L 366.021818 180.571728 
L 357.905455 175.288555 
L 349.789091 171.404772 
L 341.672727 171.968576 
L 333.556364 182.137224 
L 325.44 185.908368 
L 317.323636 179.126526 
L 309.207273 187.205299 
L 301.090909 179.682842 
L 292.974545 187.648184 
L 284.858182 195.661686 
L 276.741818 192.799581 
L 268.625455 192.153648 
L 260.509091 196.508899 
L 252.392727 198.589475 
L 244.276364 201.766678 
L 236.16 202.761689 
L 228.043636 204.049452 
L 219.927273 200.369958 
L 211.810909 202.509148 
L 203.694545 209.387241 
L 195.578182 207.0059 
L 187.461818 209.624208 
L 179.345455 206.865423 
L 171.229091 212.90822 
L 163.112727 215.273819 
L 154.996364 216.879665 
L 146.88 212.797121 
L 138.763636 217.738757 
L 130.647273 219.363265 
L 122.530909 223.998987 
L 114.414545 233.029551 
L 106.298182 241.499793 
L 98.181818 250.355057 
L 90.065455 254.983134 
L 81.949091 259.133221 
L 73.832727 289.487519 
z
" style="fill:#1f77b4;fill-opacity:0.3;"/>
   </g>
   <g id="PolyCollection_2">
    <path clip-path="url(#pd5e6229fe0)" d="M 73.832727 282.961611 
L 73.832727 270.907701 
L 81.949091 240.642024 
L 90.065455 226.266665 
L 98.181818 220.611211 
L 106.298182 210.503269 
L 114.414545 206.394802 
L 122.530909 194.5282 
L 130.647273 197.191404 
L 138.763636 189.605215 
L 146.88 189.244647 
L 154.996364 184.093247 
L 163.112727 191.08296 
L 171.229091 182.518595 
L 179.345455 179.32508 
L 187.461818 174.11535 
L 195.578182 181.054678 
L 203.694545 172.549093 
L 211.810909 168.978653 
L 219.927273 167.697157 
L 228.043636 173.693839 
L 236.16 164.822816 
L 244.276364 165.234845 
L 252.392727 162.108051 
L 260.509091 154.405128 
L 268.625455 155.071112 
L 276.741818 153.077476 
L 284.858182 160.247666 
L 292.974545 162.975866 
L 301.090909 153.559615 
L 309.207273 148.794278 
L 317.323636 158.066352 
L 325.44 152.153349 
L 333.556364 143.825553 
L 341.672727 139.690343 
L 349.789091 140.397955 
L 357.905455 140.660572 
L 366.021818 147.384801 
L 374.138182 141.480971 
L 382.254545 141.970287 
L 390.370909 140.200486 
L 398.487273 142.026303 
L 398.487273 171.012252 
L 398.487273 171.012252 
L 390.370909 167.573758 
L 382.254545 170.410532 
L 374.138182 168.017872 
L 366.021818 177.576975 
L 357.905455 167.516763 
L 349.789091 169.308468 
L 341.672727 166.687567 
L 333.556364 171.816194 
L 325.44 177.895355 
L 317.323636 183.455239 
L 309.207273 176.903002 
L 301.090909 179.684143 
L 292.974545 186.457126 
L 284.858182 186.384965 
L 276.741818 180.04801 
L 268.625455 182.351992 
L 260.509091 179.357579 
L 252.392727 187.917533 
L 244.276364 189.377526 
L 236.16 189.604905 
L 228.043636 198.353996 
L 219.927273 191.832075 
L 211.810909 194.416016 
L 203.694545 196.772452 
L 195.578182 203.814807 
L 187.461818 199.760874 
L 179.345455 202.185496 
L 171.229091 206.837985 
L 163.112727 212.833145 
L 154.996364 209.338891 
L 146.88 211.517161 
L 138.763636 212.11079 
L 130.647273 216.821268 
L 122.530909 216.049757 
L 114.414545 226.199849 
L 106.298182 228.970443 
L 98.181818 238.192757 
L 90.065455 244.907588 
L 81.949091 257.236357 
L 73.832727 282.961611 
z
" style="fill:#ff7f0e;fill-opacity:0.3;"/>
   </g>
   <g id="PolyCollection_3">
    <path clip-path="url(#pd5e6229fe0)" d="M 73.832727 279.92421 
L 73.832727 271.974908 
L 81.949091 245.524027 
L 90.065455 228.677129 
L 98.181818 225.352815 
L 106.298182 213.06057 
L 114.414545 208.918501 
L 122.530909 199.914931 
L 130.647273 204.141784 
L 138.763636 197.797256 
L 146.88 195.954556 
L 154.996364 188.153233 
L 163.112727 188.83136 
L 171.229091 186.553994 
L 179.345455 185.021783 
L 187.461818 180.774738 
L 195.578182 185.789248 
L 203.694545 179.980524 
L 211.810909 181.85079 
L 219.927273 178.050917 
L 228.043636 178.695426 
L 236.16 177.87926 
L 244.276364 175.40609 
L 252.392727 176.147591 
L 260.509091 172.358087 
L 268.625455 167.321971 
L 276.741818 169.567731 
L 284.858182 170.53753 
L 292.974545 169.271268 
L 301.090909 170.940738 
L 309.207273 171.571197 
L 317.323636 165.606335 
L 325.44 166.540482 
L 333.556364 162.621232 
L 341.672727 167.053899 
L 349.789091 167.959748 
L 357.905455 167.841161 
L 366.021818 164.794219 
L 374.138182 164.989493 
L 382.254545 157.392031 
L 390.370909 161.839488 
L 398.487273 159.481105 
L 398.487273 177.074872 
L 398.487273 177.074872 
L 390.370909 177.434331 
L 382.254545 175.662854 
L 374.138182 180.777218 
L 366.021818 180.489397 
L 357.905455 182.515227 
L 349.789091 183.827973 
L 341.672727 182.340625 
L 333.556364 179.536976 
L 325.44 182.939326 
L 317.323636 181.295425 
L 309.207273 186.516922 
L 301.090909 186.808254 
L 292.974545 185.96506 
L 284.858182 187.17224 
L 276.741818 185.888836 
L 268.625455 183.269151 
L 260.509091 188.496752 
L 252.392727 191.614481 
L 244.276364 191.593462 
L 236.16 192.328722 
L 228.043636 194.26057 
L 219.927273 193.352331 
L 211.810909 197.823779 
L 203.694545 196.287088 
L 195.578182 200.941211 
L 187.461818 197.213248 
L 179.345455 201.229529 
L 171.229091 201.601161 
L 163.112727 203.976229 
L 154.996364 204.503499 
L 146.88 210.170148 
L 138.763636 212.421661 
L 130.647273 218.355697 
L 122.530909 214.056708 
L 114.414545 222.900141 
L 106.298182 225.79283 
L 98.181818 237.622051 
L 90.065455 241.212425 
L 81.949091 256.852311 
L 73.832727 279.92421 
z
" style="fill:#2ca02c;fill-opacity:0.3;"/>
   </g>
   <g id="PolyCollection_4">
    <path clip-path="url(#pd5e6229fe0)" d="M 73.832727 280.054048 
L 73.832727 274.030688 
L 81.949091 246.029761 
L 90.065455 231.538985 
L 98.181818 226.277336 
L 106.298182 213.222739 
L 114.414545 213.173696 
L 122.530909 204.103254 
L 130.647273 202.150386 
L 138.763636 195.709147 
L 146.88 195.6126 
L 154.996364 190.756508 
L 163.112727 191.986521 
L 171.229091 189.309926 
L 179.345455 188.962559 
L 187.461818 185.311884 
L 195.578182 186.642683 
L 203.694545 184.468941 
L 211.810909 182.497826 
L 219.927273 181.494409 
L 228.043636 179.871514 
L 236.16 174.888505 
L 244.276364 174.550607 
L 252.392727 174.433857 
L 260.509091 174.319055 
L 268.625455 172.254237 
L 276.741818 173.487355 
L 284.858182 170.553142 
L 292.974545 171.796764 
L 301.090909 170.098408 
L 309.207273 168.303619 
L 317.323636 168.28812 
L 325.44 169.605117 
L 333.556364 170.800301 
L 341.672727 167.19782 
L 349.789091 166.088666 
L 357.905455 163.203568 
L 366.021818 167.356491 
L 374.138182 165.941069 
L 382.254545 169.839994 
L 390.370909 160.377487 
L 398.487273 167.198771 
L 398.487273 180.963853 
L 398.487273 180.963853 
L 390.370909 176.195688 
L 382.254545 182.49926 
L 374.138182 180.062186 
L 366.021818 181.055789 
L 357.905455 178.858695 
L 349.789091 180.643229 
L 341.672727 182.865001 
L 333.556364 184.029303 
L 325.44 184.027455 
L 317.323636 182.910052 
L 309.207273 182.039795 
L 301.090909 183.957601 
L 292.974545 184.356788 
L 284.858182 183.653423 
L 276.741818 185.807319 
L 268.625455 184.959816 
L 260.509091 186.02649 
L 252.392727 185.801927 
L 244.276364 186.042042 
L 236.16 187.349694 
L 228.043636 190.945327 
L 219.927273 191.912071 
L 211.810909 193.055326 
L 203.694545 194.782021 
L 195.578182 197.900046 
L 187.461818 195.852248 
L 179.345455 199.000309 
L 171.229091 199.78356 
L 163.112727 202.771047 
L 154.996364 201.569243 
L 146.88 206.137272 
L 138.763636 205.910912 
L 130.647273 212.275333 
L 122.530909 214.38897 
L 114.414545 222.448055 
L 106.298182 223.448481 
L 98.181818 235.214604 
L 90.065455 240.371451 
L 81.949091 254.267465 
L 73.832727 280.054048 
z
" style="fill:#d62728;fill-opacity:0.3;"/>
   </g>
   <g id="matplotlib.axis_1">
    <g id="xtick_1">
     <g id="line2d_1">
      <defs>
       <path d="M 0 0 
L 0 3.5 
" id="m54aff756a9" style="stroke:#000000;stroke-width:0.8;"/>
      </defs>
      <g>
       <use style="stroke:#000000;stroke-width:0.8;" x="73.832727" xlink:href="#m54aff756a9" y="307.584"/>
      </g>
     </g>
     <g id="text_1">
      <!-- 0 -->
      <defs>
       <path d="M 31.78125 66.40625 
Q 24.171875 66.40625 20.328125 58.90625 
Q 16.5 51.421875 16.5 36.375 
Q 16.5 21.390625 20.328125 13.890625 
Q 24.171875 6.390625 31.78125 6.390625 
Q 39.453125 6.390625 43.28125 13.890625 
Q 47.125 21.390625 47.125 36.375 
Q 47.125 51.421875 43.28125 58.90625 
Q 39.453125 66.40625 31.78125 66.40625 
z
M 31.78125 74.21875 
Q 44.046875 74.21875 50.515625 64.515625 
Q 56.984375 54.828125 56.984375 36.375 
Q 56.984375 17.96875 50.515625 8.265625 
Q 44.046875 -1.421875 31.78125 -1.421875 
Q 19.53125 -1.421875 13.0625 8.265625 
Q 6.59375 17.96875 6.59375 36.375 
Q 6.59375 54.828125 13.0625 64.515625 
Q 19.53125 74.21875 31.78125 74.21875 
z
" id="DejaVuSans-30"/>
      </defs>
      <g transform="translate(70.651477 322.182437)scale(0.1 -0.1)">
       <use xlink:href="#DejaVuSans-30"/>
      </g>
     </g>
    </g>
    <g id="xtick_2">
     <g id="line2d_2">
      <g>
       <use style="stroke:#000000;stroke-width:0.8;" x="114.414545" xlink:href="#m54aff756a9" y="307.584"/>
      </g>
     </g>
     <g id="text_2">
      <!-- 250 -->
      <defs>
       <path d="M 19.1875 8.296875 
L 53.609375 8.296875 
L 53.609375 0 
L 7.328125 0 
L 7.328125 8.296875 
Q 12.9375 14.109375 22.625 23.890625 
Q 32.328125 33.6875 34.8125 36.53125 
Q 39.546875 41.84375 41.421875 45.53125 
Q 43.3125 49.21875 43.3125 52.78125 
Q 43.3125 58.59375 39.234375 62.25 
Q 35.15625 65.921875 28.609375 65.921875 
Q 23.96875 65.921875 18.8125 64.3125 
Q 13.671875 62.703125 7.8125 59.421875 
L 7.8125 69.390625 
Q 13.765625 71.78125 18.9375 73 
Q 24.125 74.21875 28.421875 74.21875 
Q 39.75 74.21875 46.484375 68.546875 
Q 53.21875 62.890625 53.21875 53.421875 
Q 53.21875 48.921875 51.53125 44.890625 
Q 49.859375 40.875 45.40625 35.40625 
Q 44.1875 33.984375 37.640625 27.21875 
Q 31.109375 20.453125 19.1875 8.296875 
z
" id="DejaVuSans-32"/>
       <path d="M 10.796875 72.90625 
L 49.515625 72.90625 
L 49.515625 64.59375 
L 19.828125 64.59375 
L 19.828125 46.734375 
Q 21.96875 47.46875 24.109375 47.828125 
Q 26.265625 48.1875 28.421875 48.1875 
Q 40.625 48.1875 47.75 41.5 
Q 54.890625 34.8125 54.890625 23.390625 
Q 54.890625 11.625 47.5625 5.09375 
Q 40.234375 -1.421875 26.90625 -1.421875 
Q 22.3125 -1.421875 17.546875 -0.640625 
Q 12.796875 0.140625 7.71875 1.703125 
L 7.71875 11.625 
Q 12.109375 9.234375 16.796875 8.0625 
Q 21.484375 6.890625 26.703125 6.890625 
Q 35.15625 6.890625 40.078125 11.328125 
Q 45.015625 15.765625 45.015625 23.390625 
Q 45.015625 31 40.078125 35.4375 
Q 35.15625 39.890625 26.703125 39.890625 
Q 22.75 39.890625 18.8125 39.015625 
Q 14.890625 38.140625 10.796875 36.28125 
z
" id="DejaVuSans-35"/>
      </defs>
      <g transform="translate(104.870795 322.182437)scale(0.1 -0.1)">
       <use xlink:href="#DejaVuSans-32"/>
       <use x="63.623047" xlink:href="#DejaVuSans-35"/>
       <use x="127.246094" xlink:href="#DejaVuSans-30"/>
      </g>
     </g>
    </g>
    <g id="xtick_3">
     <g id="line2d_3">
      <g>
       <use style="stroke:#000000;stroke-width:0.8;" x="154.996364" xlink:href="#m54aff756a9" y="307.584"/>
      </g>
     </g>
     <g id="text_3">
      <!-- 500 -->
      <g transform="translate(145.452614 322.182437)scale(0.1 -0.1)">
       <use xlink:href="#DejaVuSans-35"/>
       <use x="63.623047" xlink:href="#DejaVuSans-30"/>
       <use x="127.246094" xlink:href="#DejaVuSans-30"/>
      </g>
     </g>
    </g>
    <g id="xtick_4">
     <g id="line2d_4">
      <g>
       <use style="stroke:#000000;stroke-width:0.8;" x="195.578182" xlink:href="#m54aff756a9" y="307.584"/>
      </g>
     </g>
     <g id="text_4">
      <!-- 750 -->
      <defs>
       <path d="M 8.203125 72.90625 
L 55.078125 72.90625 
L 55.078125 68.703125 
L 28.609375 0 
L 18.3125 0 
L 43.21875 64.59375 
L 8.203125 64.59375 
z
" id="DejaVuSans-37"/>
      </defs>
      <g transform="translate(186.034432 322.182437)scale(0.1 -0.1)">
       <use xlink:href="#DejaVuSans-37"/>
       <use x="63.623047" xlink:href="#DejaVuSans-35"/>
       <use x="127.246094" xlink:href="#DejaVuSans-30"/>
      </g>
     </g>
    </g>
    <g id="xtick_5">
     <g id="line2d_5">
      <g>
       <use style="stroke:#000000;stroke-width:0.8;" x="236.16" xlink:href="#m54aff756a9" y="307.584"/>
      </g>
     </g>
     <g id="text_5">
      <!-- 1000 -->
      <defs>
       <path d="M 12.40625 8.296875 
L 28.515625 8.296875 
L 28.515625 63.921875 
L 10.984375 60.40625 
L 10.984375 69.390625 
L 28.421875 72.90625 
L 38.28125 72.90625 
L 38.28125 8.296875 
L 54.390625 8.296875 
L 54.390625 0 
L 12.40625 0 
z
" id="DejaVuSans-31"/>
      </defs>
      <g transform="translate(223.435 322.182437)scale(0.1 -0.1)">
       <use xlink:href="#DejaVuSans-31"/>
       <use x="63.623047" xlink:href="#DejaVuSans-30"/>
       <use x="127.246094" xlink:href="#DejaVuSans-30"/>
       <use x="190.869141" xlink:href="#DejaVuSans-30"/>
      </g>
     </g>
    </g>
    <g id="xtick_6">
     <g id="line2d_6">
      <g>
       <use style="stroke:#000000;stroke-width:0.8;" x="276.741818" xlink:href="#m54aff756a9" y="307.584"/>
      </g>
     </g>
     <g id="text_6">
      <!-- 1250 -->
      <g transform="translate(264.016818 322.182437)scale(0.1 -0.1)">
       <use xlink:href="#DejaVuSans-31"/>
       <use x="63.623047" xlink:href="#DejaVuSans-32"/>
       <use x="127.246094" xlink:href="#DejaVuSans-35"/>
       <use x="190.869141" xlink:href="#DejaVuSans-30"/>
      </g>
     </g>
    </g>
    <g id="xtick_7">
     <g id="line2d_7">
      <g>
       <use style="stroke:#000000;stroke-width:0.8;" x="317.323636" xlink:href="#m54aff756a9" y="307.584"/>
      </g>
     </g>
     <g id="text_7">
      <!-- 1500 -->
      <g transform="translate(304.598636 322.182437)scale(0.1 -0.1)">
       <use xlink:href="#DejaVuSans-31"/>
       <use x="63.623047" xlink:href="#DejaVuSans-35"/>
       <use x="127.246094" xlink:href="#DejaVuSans-30"/>
       <use x="190.869141" xlink:href="#DejaVuSans-30"/>
      </g>
     </g>
    </g>
    <g id="xtick_8">
     <g id="line2d_8">
      <g>
       <use style="stroke:#000000;stroke-width:0.8;" x="357.905455" xlink:href="#m54aff756a9" y="307.584"/>
      </g>
     </g>
     <g id="text_8">
      <!-- 1750 -->
      <g transform="translate(345.180455 322.182437)scale(0.1 -0.1)">
       <use xlink:href="#DejaVuSans-31"/>
       <use x="63.623047" xlink:href="#DejaVuSans-37"/>
       <use x="127.246094" xlink:href="#DejaVuSans-35"/>
       <use x="190.869141" xlink:href="#DejaVuSans-30"/>
      </g>
     </g>
    </g>
    <g id="xtick_9">
     <g id="line2d_9">
      <g>
       <use style="stroke:#000000;stroke-width:0.8;" x="398.487273" xlink:href="#m54aff756a9" y="307.584"/>
      </g>
     </g>
     <g id="text_9">
      <!-- 2000 -->
      <g transform="translate(385.762273 322.182437)scale(0.1 -0.1)">
       <use xlink:href="#DejaVuSans-32"/>
       <use x="63.623047" xlink:href="#DejaVuSans-30"/>
       <use x="127.246094" xlink:href="#DejaVuSans-30"/>
       <use x="190.869141" xlink:href="#DejaVuSans-30"/>
      </g>
     </g>
    </g>
    <g id="text_10">
     <!-- Episode Number -->
     <defs>
      <path d="M 9.8125 72.90625 
L 55.90625 72.90625 
L 55.90625 64.59375 
L 19.671875 64.59375 
L 19.671875 43.015625 
L 54.390625 43.015625 
L 54.390625 34.71875 
L 19.671875 34.71875 
L 19.671875 8.296875 
L 56.78125 8.296875 
L 56.78125 0 
L 9.8125 0 
z
" id="DejaVuSans-45"/>
      <path d="M 18.109375 8.203125 
L 18.109375 -20.796875 
L 9.078125 -20.796875 
L 9.078125 54.6875 
L 18.109375 54.6875 
L 18.109375 46.390625 
Q 20.953125 51.265625 25.265625 53.625 
Q 29.59375 56 35.59375 56 
Q 45.5625 56 51.78125 48.09375 
Q 58.015625 40.1875 58.015625 27.296875 
Q 58.015625 14.40625 51.78125 6.484375 
Q 45.5625 -1.421875 35.59375 -1.421875 
Q 29.59375 -1.421875 25.265625 0.953125 
Q 20.953125 3.328125 18.109375 8.203125 
z
M 48.6875 27.296875 
Q 48.6875 37.203125 44.609375 42.84375 
Q 40.53125 48.484375 33.40625 48.484375 
Q 26.265625 48.484375 22.1875 42.84375 
Q 18.109375 37.203125 18.109375 27.296875 
Q 18.109375 17.390625 22.1875 11.75 
Q 26.265625 6.109375 33.40625 6.109375 
Q 40.53125 6.109375 44.609375 11.75 
Q 48.6875 17.390625 48.6875 27.296875 
z
" id="DejaVuSans-70"/>
      <path d="M 9.421875 54.6875 
L 18.40625 54.6875 
L 18.40625 0 
L 9.421875 0 
z
M 9.421875 75.984375 
L 18.40625 75.984375 
L 18.40625 64.59375 
L 9.421875 64.59375 
z
" id="DejaVuSans-69"/>
      <path d="M 44.28125 53.078125 
L 44.28125 44.578125 
Q 40.484375 46.53125 36.375 47.5 
Q 32.28125 48.484375 27.875 48.484375 
Q 21.1875 48.484375 17.84375 46.4375 
Q 14.5 44.390625 14.5 40.28125 
Q 14.5 37.15625 16.890625 35.375 
Q 19.28125 33.59375 26.515625 31.984375 
L 29.59375 31.296875 
Q 39.15625 29.25 43.1875 25.515625 
Q 47.21875 21.78125 47.21875 15.09375 
Q 47.21875 7.46875 41.1875 3.015625 
Q 35.15625 -1.421875 24.609375 -1.421875 
Q 20.21875 -1.421875 15.453125 -0.5625 
Q 10.6875 0.296875 5.421875 2 
L 5.421875 11.28125 
Q 10.40625 8.6875 15.234375 7.390625 
Q 20.0625 6.109375 24.8125 6.109375 
Q 31.15625 6.109375 34.5625 8.28125 
Q 37.984375 10.453125 37.984375 14.40625 
Q 37.984375 18.0625 35.515625 20.015625 
Q 33.0625 21.96875 24.703125 23.78125 
L 21.578125 24.515625 
Q 13.234375 26.265625 9.515625 29.90625 
Q 5.8125 33.546875 5.8125 39.890625 
Q 5.8125 47.609375 11.28125 51.796875 
Q 16.75 56 26.8125 56 
Q 31.78125 56 36.171875 55.265625 
Q 40.578125 54.546875 44.28125 53.078125 
z
" id="DejaVuSans-73"/>
      <path d="M 30.609375 48.390625 
Q 23.390625 48.390625 19.1875 42.75 
Q 14.984375 37.109375 14.984375 27.296875 
Q 14.984375 17.484375 19.15625 11.84375 
Q 23.34375 6.203125 30.609375 6.203125 
Q 37.796875 6.203125 41.984375 11.859375 
Q 46.1875 17.53125 46.1875 27.296875 
Q 46.1875 37.015625 41.984375 42.703125 
Q 37.796875 48.390625 30.609375 48.390625 
z
M 30.609375 56 
Q 42.328125 56 49.015625 48.375 
Q 55.71875 40.765625 55.71875 27.296875 
Q 55.71875 13.875 49.015625 6.21875 
Q 42.328125 -1.421875 30.609375 -1.421875 
Q 18.84375 -1.421875 12.171875 6.21875 
Q 5.515625 13.875 5.515625 27.296875 
Q 5.515625 40.765625 12.171875 48.375 
Q 18.84375 56 30.609375 56 
z
" id="DejaVuSans-6f"/>
      <path d="M 45.40625 46.390625 
L 45.40625 75.984375 
L 54.390625 75.984375 
L 54.390625 0 
L 45.40625 0 
L 45.40625 8.203125 
Q 42.578125 3.328125 38.25 0.953125 
Q 33.9375 -1.421875 27.875 -1.421875 
Q 17.96875 -1.421875 11.734375 6.484375 
Q 5.515625 14.40625 5.515625 27.296875 
Q 5.515625 40.1875 11.734375 48.09375 
Q 17.96875 56 27.875 56 
Q 33.9375 56 38.25 53.625 
Q 42.578125 51.265625 45.40625 46.390625 
z
M 14.796875 27.296875 
Q 14.796875 17.390625 18.875 11.75 
Q 22.953125 6.109375 30.078125 6.109375 
Q 37.203125 6.109375 41.296875 11.75 
Q 45.40625 17.390625 45.40625 27.296875 
Q 45.40625 37.203125 41.296875 42.84375 
Q 37.203125 48.484375 30.078125 48.484375 
Q 22.953125 48.484375 18.875 42.84375 
Q 14.796875 37.203125 14.796875 27.296875 
z
" id="DejaVuSans-64"/>
      <path d="M 56.203125 29.59375 
L 56.203125 25.203125 
L 14.890625 25.203125 
Q 15.484375 15.921875 20.484375 11.0625 
Q 25.484375 6.203125 34.421875 6.203125 
Q 39.59375 6.203125 44.453125 7.46875 
Q 49.3125 8.734375 54.109375 11.28125 
L 54.109375 2.78125 
Q 49.265625 0.734375 44.1875 -0.34375 
Q 39.109375 -1.421875 33.890625 -1.421875 
Q 20.796875 -1.421875 13.15625 6.1875 
Q 5.515625 13.8125 5.515625 26.8125 
Q 5.515625 40.234375 12.765625 48.109375 
Q 20.015625 56 32.328125 56 
Q 43.359375 56 49.78125 48.890625 
Q 56.203125 41.796875 56.203125 29.59375 
z
M 47.21875 32.234375 
Q 47.125 39.59375 43.09375 43.984375 
Q 39.0625 48.390625 32.421875 48.390625 
Q 24.90625 48.390625 20.390625 44.140625 
Q 15.875 39.890625 15.1875 32.171875 
z
" id="DejaVuSans-65"/>
      <path id="DejaVuSans-20"/>
      <path d="M 9.8125 72.90625 
L 23.09375 72.90625 
L 55.421875 11.921875 
L 55.421875 72.90625 
L 64.984375 72.90625 
L 64.984375 0 
L 51.703125 0 
L 19.390625 60.984375 
L 19.390625 0 
L 9.8125 0 
z
" id="DejaVuSans-4e"/>
      <path d="M 8.5 21.578125 
L 8.5 54.6875 
L 17.484375 54.6875 
L 17.484375 21.921875 
Q 17.484375 14.15625 20.5 10.265625 
Q 23.53125 6.390625 29.59375 6.390625 
Q 36.859375 6.390625 41.078125 11.03125 
Q 45.3125 15.671875 45.3125 23.6875 
L 45.3125 54.6875 
L 54.296875 54.6875 
L 54.296875 0 
L 45.3125 0 
L 45.3125 8.40625 
Q 42.046875 3.421875 37.71875 1 
Q 33.40625 -1.421875 27.6875 -1.421875 
Q 18.265625 -1.421875 13.375 4.4375 
Q 8.5 10.296875 8.5 21.578125 
z
M 31.109375 56 
z
" id="DejaVuSans-75"/>
      <path d="M 52 44.1875 
Q 55.375 50.25 60.0625 53.125 
Q 64.75 56 71.09375 56 
Q 79.640625 56 84.28125 50.015625 
Q 88.921875 44.046875 88.921875 33.015625 
L 88.921875 0 
L 79.890625 0 
L 79.890625 32.71875 
Q 79.890625 40.578125 77.09375 44.375 
Q 74.3125 48.1875 68.609375 48.1875 
Q 61.625 48.1875 57.5625 43.546875 
Q 53.515625 38.921875 53.515625 30.90625 
L 53.515625 0 
L 44.484375 0 
L 44.484375 32.71875 
Q 44.484375 40.625 41.703125 44.40625 
Q 38.921875 48.1875 33.109375 48.1875 
Q 26.21875 48.1875 22.15625 43.53125 
Q 18.109375 38.875 18.109375 30.90625 
L 18.109375 0 
L 9.078125 0 
L 9.078125 54.6875 
L 18.109375 54.6875 
L 18.109375 46.1875 
Q 21.1875 51.21875 25.484375 53.609375 
Q 29.78125 56 35.6875 56 
Q 41.65625 56 45.828125 52.96875 
Q 50 49.953125 52 44.1875 
z
" id="DejaVuSans-6d"/>
      <path d="M 48.6875 27.296875 
Q 48.6875 37.203125 44.609375 42.84375 
Q 40.53125 48.484375 33.40625 48.484375 
Q 26.265625 48.484375 22.1875 42.84375 
Q 18.109375 37.203125 18.109375 27.296875 
Q 18.109375 17.390625 22.1875 11.75 
Q 26.265625 6.109375 33.40625 6.109375 
Q 40.53125 6.109375 44.609375 11.75 
Q 48.6875 17.390625 48.6875 27.296875 
z
M 18.109375 46.390625 
Q 20.953125 51.265625 25.265625 53.625 
Q 29.59375 56 35.59375 56 
Q 45.5625 56 51.78125 48.09375 
Q 58.015625 40.1875 58.015625 27.296875 
Q 58.015625 14.40625 51.78125 6.484375 
Q 45.5625 -1.421875 35.59375 -1.421875 
Q 29.59375 -1.421875 25.265625 0.953125 
Q 20.953125 3.328125 18.109375 8.203125 
L 18.109375 0 
L 9.078125 0 
L 9.078125 75.984375 
L 18.109375 75.984375 
z
" id="DejaVuSans-62"/>
      <path d="M 41.109375 46.296875 
Q 39.59375 47.171875 37.8125 47.578125 
Q 36.03125 48 33.890625 48 
Q 26.265625 48 22.1875 43.046875 
Q 18.109375 38.09375 18.109375 28.8125 
L 18.109375 0 
L 9.078125 0 
L 9.078125 54.6875 
L 18.109375 54.6875 
L 18.109375 46.1875 
Q 20.953125 51.171875 25.484375 53.578125 
Q 30.03125 56 36.53125 56 
Q 37.453125 56 38.578125 55.875 
Q 39.703125 55.765625 41.0625 55.515625 
z
" id="DejaVuSans-72"/>
     </defs>
     <g transform="translate(194.8475 335.860562)scale(0.1 -0.1)">
      <use xlink:href="#DejaVuSans-45"/>
      <use x="63.183594" xlink:href="#DejaVuSans-70"/>
      <use x="126.660156" xlink:href="#DejaVuSans-69"/>
      <use x="154.443359" xlink:href="#DejaVuSans-73"/>
      <use x="206.542969" xlink:href="#DejaVuSans-6f"/>
      <use x="267.724609" xlink:href="#DejaVuSans-64"/>
      <use x="331.201172" xlink:href="#DejaVuSans-65"/>
      <use x="392.724609" xlink:href="#DejaVuSans-20"/>
      <use x="424.511719" xlink:href="#DejaVuSans-4e"/>
      <use x="499.316406" xlink:href="#DejaVuSans-75"/>
      <use x="562.695312" xlink:href="#DejaVuSans-6d"/>
      <use x="660.107422" xlink:href="#DejaVuSans-62"/>
      <use x="723.583984" xlink:href="#DejaVuSans-65"/>
      <use x="785.107422" xlink:href="#DejaVuSans-72"/>
     </g>
    </g>
   </g>
   <g id="matplotlib.axis_2">
    <g id="ytick_1">
     <g id="line2d_10">
      <defs>
       <path d="M 0 0 
L -3.5 0 
" id="m76649982de" style="stroke:#000000;stroke-width:0.8;"/>
      </defs>
      <g>
       <use style="stroke:#000000;stroke-width:0.8;" x="57.6" xlink:href="#m76649982de" y="307.584"/>
      </g>
     </g>
     <g id="text_11">
      <!-- −200 -->
      <defs>
       <path d="M 10.59375 35.5 
L 73.1875 35.5 
L 73.1875 27.203125 
L 10.59375 27.203125 
z
" id="DejaVuSans-2212"/>
      </defs>
      <g transform="translate(23.132812 311.383219)scale(0.1 -0.1)">
       <use xlink:href="#DejaVuSans-2212"/>
       <use x="83.789062" xlink:href="#DejaVuSans-32"/>
       <use x="147.412109" xlink:href="#DejaVuSans-30"/>
       <use x="211.035156" xlink:href="#DejaVuSans-30"/>
      </g>
     </g>
    </g>
    <g id="ytick_2">
     <g id="line2d_11">
      <g>
       <use style="stroke:#000000;stroke-width:0.8;" x="57.6" xlink:href="#m76649982de" y="278.016"/>
      </g>
     </g>
     <g id="text_12">
      <!-- −150 -->
      <g transform="translate(23.132812 281.815219)scale(0.1 -0.1)">
       <use xlink:href="#DejaVuSans-2212"/>
       <use x="83.789062" xlink:href="#DejaVuSans-31"/>
       <use x="147.412109" xlink:href="#DejaVuSans-35"/>
       <use x="211.035156" xlink:href="#DejaVuSans-30"/>
      </g>
     </g>
    </g>
    <g id="ytick_3">
     <g id="line2d_12">
      <g>
       <use style="stroke:#000000;stroke-width:0.8;" x="57.6" xlink:href="#m76649982de" y="248.448"/>
      </g>
     </g>
     <g id="text_13">
      <!-- −100 -->
      <g transform="translate(23.132812 252.247219)scale(0.1 -0.1)">
       <use xlink:href="#DejaVuSans-2212"/>
       <use x="83.789062" xlink:href="#DejaVuSans-31"/>
       <use x="147.412109" xlink:href="#DejaVuSans-30"/>
       <use x="211.035156" xlink:href="#DejaVuSans-30"/>
      </g>
     </g>
    </g>
    <g id="ytick_4">
     <g id="line2d_13">
      <g>
       <use style="stroke:#000000;stroke-width:0.8;" x="57.6" xlink:href="#m76649982de" y="218.88"/>
      </g>
     </g>
     <g id="text_14">
      <!-- −50 -->
      <g transform="translate(29.495313 222.679219)scale(0.1 -0.1)">
       <use xlink:href="#DejaVuSans-2212"/>
       <use x="83.789062" xlink:href="#DejaVuSans-35"/>
       <use x="147.412109" xlink:href="#DejaVuSans-30"/>
      </g>
     </g>
    </g>
    <g id="ytick_5">
     <g id="line2d_14">
      <g>
       <use style="stroke:#000000;stroke-width:0.8;" x="57.6" xlink:href="#m76649982de" y="189.312"/>
      </g>
     </g>
     <g id="text_15">
      <!-- 0 -->
      <g transform="translate(44.2375 193.111219)scale(0.1 -0.1)">
       <use xlink:href="#DejaVuSans-30"/>
      </g>
     </g>
    </g>
    <g id="ytick_6">
     <g id="line2d_15">
      <g>
       <use style="stroke:#000000;stroke-width:0.8;" x="57.6" xlink:href="#m76649982de" y="159.744"/>
      </g>
     </g>
     <g id="text_16">
      <!-- 50 -->
      <g transform="translate(37.875 163.543219)scale(0.1 -0.1)">
       <use xlink:href="#DejaVuSans-35"/>
       <use x="63.623047" xlink:href="#DejaVuSans-30"/>
      </g>
     </g>
    </g>
    <g id="ytick_7">
     <g id="line2d_16">
      <g>
       <use style="stroke:#000000;stroke-width:0.8;" x="57.6" xlink:href="#m76649982de" y="130.176"/>
      </g>
     </g>
     <g id="text_17">
      <!-- 100 -->
      <g transform="translate(31.5125 133.975219)scale(0.1 -0.1)">
       <use xlink:href="#DejaVuSans-31"/>
       <use x="63.623047" xlink:href="#DejaVuSans-30"/>
       <use x="127.246094" xlink:href="#DejaVuSans-30"/>
      </g>
     </g>
    </g>
    <g id="ytick_8">
     <g id="line2d_17">
      <g>
       <use style="stroke:#000000;stroke-width:0.8;" x="57.6" xlink:href="#m76649982de" y="100.608"/>
      </g>
     </g>
     <g id="text_18">
      <!-- 150 -->
      <g transform="translate(31.5125 104.407219)scale(0.1 -0.1)">
       <use xlink:href="#DejaVuSans-31"/>
       <use x="63.623047" xlink:href="#DejaVuSans-35"/>
       <use x="127.246094" xlink:href="#DejaVuSans-30"/>
      </g>
     </g>
    </g>
    <g id="ytick_9">
     <g id="line2d_18">
      <g>
       <use style="stroke:#000000;stroke-width:0.8;" x="57.6" xlink:href="#m76649982de" y="71.04"/>
      </g>
     </g>
     <g id="text_19">
      <!-- 200 -->
      <g transform="translate(31.5125 74.839219)scale(0.1 -0.1)">
       <use xlink:href="#DejaVuSans-32"/>
       <use x="63.623047" xlink:href="#DejaVuSans-30"/>
       <use x="127.246094" xlink:href="#DejaVuSans-30"/>
      </g>
     </g>
    </g>
    <g id="ytick_10">
     <g id="line2d_19">
      <g>
       <use style="stroke:#000000;stroke-width:0.8;" x="57.6" xlink:href="#m76649982de" y="41.472"/>
      </g>
     </g>
     <g id="text_20">
      <!-- 250 -->
      <g transform="translate(31.5125 45.271219)scale(0.1 -0.1)">
       <use xlink:href="#DejaVuSans-32"/>
       <use x="63.623047" xlink:href="#DejaVuSans-35"/>
       <use x="127.246094" xlink:href="#DejaVuSans-30"/>
      </g>
     </g>
    </g>
    <g id="text_21">
     <!-- Cumulative Reward -->
     <defs>
      <path d="M 64.40625 67.28125 
L 64.40625 56.890625 
Q 59.421875 61.53125 53.78125 63.8125 
Q 48.140625 66.109375 41.796875 66.109375 
Q 29.296875 66.109375 22.65625 58.46875 
Q 16.015625 50.828125 16.015625 36.375 
Q 16.015625 21.96875 22.65625 14.328125 
Q 29.296875 6.6875 41.796875 6.6875 
Q 48.140625 6.6875 53.78125 8.984375 
Q 59.421875 11.28125 64.40625 15.921875 
L 64.40625 5.609375 
Q 59.234375 2.09375 53.4375 0.328125 
Q 47.65625 -1.421875 41.21875 -1.421875 
Q 24.65625 -1.421875 15.125 8.703125 
Q 5.609375 18.84375 5.609375 36.375 
Q 5.609375 53.953125 15.125 64.078125 
Q 24.65625 74.21875 41.21875 74.21875 
Q 47.75 74.21875 53.53125 72.484375 
Q 59.328125 70.75 64.40625 67.28125 
z
" id="DejaVuSans-43"/>
      <path d="M 9.421875 75.984375 
L 18.40625 75.984375 
L 18.40625 0 
L 9.421875 0 
z
" id="DejaVuSans-6c"/>
      <path d="M 34.28125 27.484375 
Q 23.390625 27.484375 19.1875 25 
Q 14.984375 22.515625 14.984375 16.5 
Q 14.984375 11.71875 18.140625 8.90625 
Q 21.296875 6.109375 26.703125 6.109375 
Q 34.1875 6.109375 38.703125 11.40625 
Q 43.21875 16.703125 43.21875 25.484375 
L 43.21875 27.484375 
z
M 52.203125 31.203125 
L 52.203125 0 
L 43.21875 0 
L 43.21875 8.296875 
Q 40.140625 3.328125 35.546875 0.953125 
Q 30.953125 -1.421875 24.3125 -1.421875 
Q 15.921875 -1.421875 10.953125 3.296875 
Q 6 8.015625 6 15.921875 
Q 6 25.140625 12.171875 29.828125 
Q 18.359375 34.515625 30.609375 34.515625 
L 43.21875 34.515625 
L 43.21875 35.40625 
Q 43.21875 41.609375 39.140625 45 
Q 35.0625 48.390625 27.6875 48.390625 
Q 23 48.390625 18.546875 47.265625 
Q 14.109375 46.140625 10.015625 43.890625 
L 10.015625 52.203125 
Q 14.9375 54.109375 19.578125 55.046875 
Q 24.21875 56 28.609375 56 
Q 40.484375 56 46.34375 49.84375 
Q 52.203125 43.703125 52.203125 31.203125 
z
" id="DejaVuSans-61"/>
      <path d="M 18.3125 70.21875 
L 18.3125 54.6875 
L 36.8125 54.6875 
L 36.8125 47.703125 
L 18.3125 47.703125 
L 18.3125 18.015625 
Q 18.3125 11.328125 20.140625 9.421875 
Q 21.96875 7.515625 27.59375 7.515625 
L 36.8125 7.515625 
L 36.8125 0 
L 27.59375 0 
Q 17.1875 0 13.234375 3.875 
Q 9.28125 7.765625 9.28125 18.015625 
L 9.28125 47.703125 
L 2.6875 47.703125 
L 2.6875 54.6875 
L 9.28125 54.6875 
L 9.28125 70.21875 
z
" id="DejaVuSans-74"/>
      <path d="M 2.984375 54.6875 
L 12.5 54.6875 
L 29.59375 8.796875 
L 46.6875 54.6875 
L 56.203125 54.6875 
L 35.6875 0 
L 23.484375 0 
z
" id="DejaVuSans-76"/>
      <path d="M 44.390625 34.1875 
Q 47.5625 33.109375 50.5625 29.59375 
Q 53.5625 26.078125 56.59375 19.921875 
L 66.609375 0 
L 56 0 
L 46.6875 18.703125 
Q 43.0625 26.03125 39.671875 28.421875 
Q 36.28125 30.8125 30.421875 30.8125 
L 19.671875 30.8125 
L 19.671875 0 
L 9.8125 0 
L 9.8125 72.90625 
L 32.078125 72.90625 
Q 44.578125 72.90625 50.734375 67.671875 
Q 56.890625 62.453125 56.890625 51.90625 
Q 56.890625 45.015625 53.6875 40.46875 
Q 50.484375 35.9375 44.390625 34.1875 
z
M 19.671875 64.796875 
L 19.671875 38.921875 
L 32.078125 38.921875 
Q 39.203125 38.921875 42.84375 42.21875 
Q 46.484375 45.515625 46.484375 51.90625 
Q 46.484375 58.296875 42.84375 61.546875 
Q 39.203125 64.796875 32.078125 64.796875 
z
" id="DejaVuSans-52"/>
      <path d="M 4.203125 54.6875 
L 13.1875 54.6875 
L 24.421875 12.015625 
L 35.59375 54.6875 
L 46.1875 54.6875 
L 57.421875 12.015625 
L 68.609375 54.6875 
L 77.59375 54.6875 
L 63.28125 0 
L 52.6875 0 
L 40.921875 44.828125 
L 29.109375 0 
L 18.5 0 
z
" id="DejaVuSans-77"/>
     </defs>
     <g transform="translate(17.053125 223.58425)rotate(-90)scale(0.1 -0.1)">
      <use xlink:href="#DejaVuSans-43"/>
      <use x="69.824219" xlink:href="#DejaVuSans-75"/>
      <use x="133.203125" xlink:href="#DejaVuSans-6d"/>
      <use x="230.615234" xlink:href="#DejaVuSans-75"/>
      <use x="293.994141" xlink:href="#DejaVuSans-6c"/>
      <use x="321.777344" xlink:href="#DejaVuSans-61"/>
      <use x="383.056641" xlink:href="#DejaVuSans-74"/>
      <use x="422.265625" xlink:href="#DejaVuSans-69"/>
      <use x="450.048828" xlink:href="#DejaVuSans-76"/>
      <use x="509.228516" xlink:href="#DejaVuSans-65"/>
      <use x="570.751953" xlink:href="#DejaVuSans-20"/>
      <use x="602.539062" xlink:href="#DejaVuSans-52"/>
      <use x="671.958984" xlink:href="#DejaVuSans-65"/>
      <use x="733.482422" xlink:href="#DejaVuSans-77"/>
      <use x="815.269531" xlink:href="#DejaVuSans-61"/>
      <use x="876.548828" xlink:href="#DejaVuSans-72"/>
      <use x="917.646484" xlink:href="#DejaVuSans-64"/>
     </g>
    </g>
   </g>
   <g id="line2d_20">
    <path clip-path="url(#pd5e6229fe0)" d="M 73.832727 283.209106 
L 81.949091 247.98336 
L 90.065455 242.705774 
L 98.181818 236.811483 
L 106.298182 227.278544 
L 114.414545 218.58432 
L 122.530909 209.65237 
L 130.647273 205.014418 
L 138.763636 202.791387 
L 146.88 196.224752 
L 154.996364 199.607698 
L 163.112727 200.081993 
L 171.229091 195.892992 
L 179.345455 189.32432 
L 187.461818 193.702546 
L 195.578182 191.906743 
L 203.694545 193.645824 
L 211.810909 185.709531 
L 219.927273 184.640256 
L 228.043636 187.813083 
L 236.16 186.541056 
L 244.276364 186.236928 
L 252.392727 181.80296 
L 260.509091 177.893925 
L 268.625455 175.001088 
L 276.741818 173.251145 
L 284.858182 177.632037 
L 292.974545 168.630416 
L 301.090909 160.580352 
L 309.207273 168.12683 
L 317.323636 157.603035 
L 325.44 165.206688 
L 333.556364 162.780453 
L 341.672727 151.950117 
L 349.789091 150.075867 
L 357.905455 155.664823 
L 366.021818 160.81584 
L 374.138182 147.625947 
L 382.254545 145.73963 
L 390.370909 156.356352 
L 398.487273 161.431186 
" style="fill:none;opacity:0.7;stroke:#1f77b4;stroke-linecap:square;stroke-width:1.5;"/>
   </g>
   <g id="line2d_21">
    <path clip-path="url(#pd5e6229fe0)" d="M 73.832727 276.934656 
L 81.949091 248.939191 
L 90.065455 235.587127 
L 98.181818 229.401984 
L 106.298182 219.736856 
L 114.414545 216.297326 
L 122.530909 205.288978 
L 130.647273 207.006336 
L 138.763636 200.858002 
L 146.88 200.380904 
L 154.996364 196.716069 
L 163.112727 201.958053 
L 171.229091 194.67829 
L 179.345455 190.755288 
L 187.461818 186.938112 
L 195.578182 192.434743 
L 203.694545 184.660773 
L 211.810909 181.697335 
L 219.927273 179.764616 
L 228.043636 186.023918 
L 236.16 177.213861 
L 244.276364 177.306185 
L 252.392727 175.012792 
L 260.509091 166.881353 
L 268.625455 168.711552 
L 276.741818 166.562743 
L 284.858182 173.316315 
L 292.974545 174.716496 
L 301.090909 166.621879 
L 309.207273 162.84864 
L 317.323636 170.760795 
L 325.44 165.024352 
L 333.556364 157.820873 
L 341.672727 153.188955 
L 349.789091 154.853211 
L 357.905455 154.088667 
L 366.021818 162.480888 
L 374.138182 154.749422 
L 382.254545 156.190409 
L 390.370909 153.887122 
L 398.487273 156.519278 
" style="fill:none;opacity:0.7;stroke:#ff7f0e;stroke-linecap:square;stroke-width:1.5;"/>
   </g>
   <g id="line2d_22">
    <path clip-path="url(#pd5e6229fe0)" d="M 73.832727 275.949559 
L 81.949091 251.188169 
L 90.065455 234.944777 
L 98.181818 231.487433 
L 106.298182 219.4267 
L 114.414545 215.909321 
L 122.530909 206.985819 
L 130.647273 211.248741 
L 138.763636 205.109458 
L 146.88 203.062352 
L 154.996364 196.328366 
L 163.112727 196.403794 
L 171.229091 194.077577 
L 179.345455 193.125656 
L 187.461818 188.993993 
L 195.578182 193.36523 
L 203.694545 188.133806 
L 211.810909 189.837285 
L 219.927273 185.701624 
L 228.043636 186.477998 
L 236.16 185.103991 
L 244.276364 183.499776 
L 252.392727 183.881036 
L 260.509091 180.427419 
L 268.625455 175.295561 
L 276.741818 177.728283 
L 284.858182 178.854885 
L 292.974545 177.618164 
L 301.090909 178.874496 
L 309.207273 179.044059 
L 317.323636 173.45088 
L 325.44 174.739904 
L 333.556364 171.079104 
L 341.672727 174.697262 
L 349.789091 175.893861 
L 357.905455 175.178194 
L 366.021818 172.641808 
L 374.138182 172.883355 
L 382.254545 166.527442 
L 390.370909 169.63691 
L 398.487273 168.277989 
" style="fill:none;opacity:0.7;stroke:#2ca02c;stroke-linecap:square;stroke-width:1.5;"/>
   </g>
   <g id="line2d_23">
    <path clip-path="url(#pd5e6229fe0)" d="M 73.832727 277.042368 
L 81.949091 250.148613 
L 90.065455 235.955218 
L 98.181818 230.74597 
L 106.298182 218.33561 
L 114.414545 217.810875 
L 122.530909 209.246112 
L 130.647273 207.212859 
L 138.763636 200.81003 
L 146.88 200.874936 
L 154.996364 196.162875 
L 163.112727 197.378784 
L 171.229091 194.546743 
L 179.345455 193.981434 
L 187.461818 190.582066 
L 195.578182 192.271365 
L 203.694545 189.625481 
L 211.810909 187.776576 
L 219.927273 186.70324 
L 228.043636 185.408421 
L 236.16 181.119099 
L 244.276364 180.296325 
L 252.392727 180.117892 
L 260.509091 180.172773 
L 268.625455 178.607026 
L 276.741818 179.647337 
L 284.858182 177.103282 
L 292.974545 178.076776 
L 301.090909 177.028005 
L 309.207273 175.171707 
L 317.323636 175.599086 
L 325.44 176.816286 
L 333.556364 177.414802 
L 341.672727 175.03141 
L 349.789091 173.365947 
L 357.905455 171.031131 
L 366.021818 174.20614 
L 374.138182 173.001627 
L 382.254545 176.169627 
L 390.370909 168.286587 
L 398.487273 174.081312 
" style="fill:none;opacity:0.7;stroke:#d62728;stroke-linecap:square;stroke-width:1.5;"/>
   </g>
   <g id="patch_3">
    <path d="M 57.6 307.584 
L 57.6 41.472 
" style="fill:none;stroke:#000000;stroke-linecap:square;stroke-linejoin:miter;stroke-width:0.8;"/>
   </g>
   <g id="patch_4">
    <path d="M 414.72 307.584 
L 414.72 41.472 
" style="fill:none;stroke:#000000;stroke-linecap:square;stroke-linejoin:miter;stroke-width:0.8;"/>
   </g>
   <g id="patch_5">
    <path d="M 57.6 307.584 
L 414.72 307.584 
" style="fill:none;stroke:#000000;stroke-linecap:square;stroke-linejoin:miter;stroke-width:0.8;"/>
   </g>
   <g id="patch_6">
    <path d="M 57.6 41.472 
L 414.72 41.472 
" style="fill:none;stroke:#000000;stroke-linecap:square;stroke-linejoin:miter;stroke-width:0.8;"/>
   </g>
   <g id="text_22">
    <!-- Average Performance and Standard Error  -->
    <defs>
     <path d="M 34.1875 63.1875 
L 20.796875 26.90625 
L 47.609375 26.90625 
z
M 28.609375 72.90625 
L 39.796875 72.90625 
L 67.578125 0 
L 57.328125 0 
L 50.6875 18.703125 
L 17.828125 18.703125 
L 11.1875 0 
L 0.78125 0 
z
" id="DejaVuSans-41"/>
     <path d="M 45.40625 27.984375 
Q 45.40625 37.75 41.375 43.109375 
Q 37.359375 48.484375 30.078125 48.484375 
Q 22.859375 48.484375 18.828125 43.109375 
Q 14.796875 37.75 14.796875 27.984375 
Q 14.796875 18.265625 18.828125 12.890625 
Q 22.859375 7.515625 30.078125 7.515625 
Q 37.359375 7.515625 41.375 12.890625 
Q 45.40625 18.265625 45.40625 27.984375 
z
M 54.390625 6.78125 
Q 54.390625 -7.171875 48.1875 -13.984375 
Q 42 -20.796875 29.203125 -20.796875 
Q 24.46875 -20.796875 20.265625 -20.09375 
Q 16.0625 -19.390625 12.109375 -17.921875 
L 12.109375 -9.1875 
Q 16.0625 -11.328125 19.921875 -12.34375 
Q 23.78125 -13.375 27.78125 -13.375 
Q 36.625 -13.375 41.015625 -8.765625 
Q 45.40625 -4.15625 45.40625 5.171875 
L 45.40625 9.625 
Q 42.625 4.78125 38.28125 2.390625 
Q 33.9375 0 27.875 0 
Q 17.828125 0 11.671875 7.65625 
Q 5.515625 15.328125 5.515625 27.984375 
Q 5.515625 40.671875 11.671875 48.328125 
Q 17.828125 56 27.875 56 
Q 33.9375 56 38.28125 53.609375 
Q 42.625 51.21875 45.40625 46.390625 
L 45.40625 54.6875 
L 54.390625 54.6875 
z
" id="DejaVuSans-67"/>
     <path d="M 19.671875 64.796875 
L 19.671875 37.40625 
L 32.078125 37.40625 
Q 38.96875 37.40625 42.71875 40.96875 
Q 46.484375 44.53125 46.484375 51.125 
Q 46.484375 57.671875 42.71875 61.234375 
Q 38.96875 64.796875 32.078125 64.796875 
z
M 9.8125 72.90625 
L 32.078125 72.90625 
Q 44.34375 72.90625 50.609375 67.359375 
Q 56.890625 61.8125 56.890625 51.125 
Q 56.890625 40.328125 50.609375 34.8125 
Q 44.34375 29.296875 32.078125 29.296875 
L 19.671875 29.296875 
L 19.671875 0 
L 9.8125 0 
z
" id="DejaVuSans-50"/>
     <path d="M 37.109375 75.984375 
L 37.109375 68.5 
L 28.515625 68.5 
Q 23.6875 68.5 21.796875 66.546875 
Q 19.921875 64.59375 19.921875 59.515625 
L 19.921875 54.6875 
L 34.71875 54.6875 
L 34.71875 47.703125 
L 19.921875 47.703125 
L 19.921875 0 
L 10.890625 0 
L 10.890625 47.703125 
L 2.296875 47.703125 
L 2.296875 54.6875 
L 10.890625 54.6875 
L 10.890625 58.5 
Q 10.890625 67.625 15.140625 71.796875 
Q 19.390625 75.984375 28.609375 75.984375 
z
" id="DejaVuSans-66"/>
     <path d="M 54.890625 33.015625 
L 54.890625 0 
L 45.90625 0 
L 45.90625 32.71875 
Q 45.90625 40.484375 42.875 44.328125 
Q 39.84375 48.1875 33.796875 48.1875 
Q 26.515625 48.1875 22.3125 43.546875 
Q 18.109375 38.921875 18.109375 30.90625 
L 18.109375 0 
L 9.078125 0 
L 9.078125 54.6875 
L 18.109375 54.6875 
L 18.109375 46.1875 
Q 21.34375 51.125 25.703125 53.5625 
Q 30.078125 56 35.796875 56 
Q 45.21875 56 50.046875 50.171875 
Q 54.890625 44.34375 54.890625 33.015625 
z
" id="DejaVuSans-6e"/>
     <path d="M 48.78125 52.59375 
L 48.78125 44.1875 
Q 44.96875 46.296875 41.140625 47.34375 
Q 37.3125 48.390625 33.40625 48.390625 
Q 24.65625 48.390625 19.8125 42.84375 
Q 14.984375 37.3125 14.984375 27.296875 
Q 14.984375 17.28125 19.8125 11.734375 
Q 24.65625 6.203125 33.40625 6.203125 
Q 37.3125 6.203125 41.140625 7.25 
Q 44.96875 8.296875 48.78125 10.40625 
L 48.78125 2.09375 
Q 45.015625 0.34375 40.984375 -0.53125 
Q 36.96875 -1.421875 32.421875 -1.421875 
Q 20.0625 -1.421875 12.78125 6.34375 
Q 5.515625 14.109375 5.515625 27.296875 
Q 5.515625 40.671875 12.859375 48.328125 
Q 20.21875 56 33.015625 56 
Q 37.15625 56 41.109375 55.140625 
Q 45.0625 54.296875 48.78125 52.59375 
z
" id="DejaVuSans-63"/>
     <path d="M 53.515625 70.515625 
L 53.515625 60.890625 
Q 47.90625 63.578125 42.921875 64.890625 
Q 37.9375 66.21875 33.296875 66.21875 
Q 25.25 66.21875 20.875 63.09375 
Q 16.5 59.96875 16.5 54.203125 
Q 16.5 49.359375 19.40625 46.890625 
Q 22.3125 44.4375 30.421875 42.921875 
L 36.375 41.703125 
Q 47.40625 39.59375 52.65625 34.296875 
Q 57.90625 29 57.90625 20.125 
Q 57.90625 9.515625 50.796875 4.046875 
Q 43.703125 -1.421875 29.984375 -1.421875 
Q 24.8125 -1.421875 18.96875 -0.25 
Q 13.140625 0.921875 6.890625 3.21875 
L 6.890625 13.375 
Q 12.890625 10.015625 18.65625 8.296875 
Q 24.421875 6.59375 29.984375 6.59375 
Q 38.421875 6.59375 43.015625 9.90625 
Q 47.609375 13.234375 47.609375 19.390625 
Q 47.609375 24.75 44.3125 27.78125 
Q 41.015625 30.8125 33.5 32.328125 
L 27.484375 33.5 
Q 16.453125 35.6875 11.515625 40.375 
Q 6.59375 45.0625 6.59375 53.421875 
Q 6.59375 63.09375 13.40625 68.65625 
Q 20.21875 74.21875 32.171875 74.21875 
Q 37.3125 74.21875 42.625 73.28125 
Q 47.953125 72.359375 53.515625 70.515625 
z
" id="DejaVuSans-53"/>
    </defs>
    <g transform="translate(109.752188 22.034625)scale(0.12 -0.12)">
     <use xlink:href="#DejaVuSans-41"/>
     <use x="68.330078" xlink:href="#DejaVuSans-76"/>
     <use x="127.509766" xlink:href="#DejaVuSans-65"/>
     <use x="189.033203" xlink:href="#DejaVuSans-72"/>
     <use x="230.146484" xlink:href="#DejaVuSans-61"/>
     <use x="291.425781" xlink:href="#DejaVuSans-67"/>
     <use x="354.902344" xlink:href="#DejaVuSans-65"/>
     <use x="416.425781" xlink:href="#DejaVuSans-20"/>
     <use x="448.212891" xlink:href="#DejaVuSans-50"/>
     <use x="508.46875" xlink:href="#DejaVuSans-65"/>
     <use x="569.992188" xlink:href="#DejaVuSans-72"/>
     <use x="611.105469" xlink:href="#DejaVuSans-66"/>
     <use x="646.310547" xlink:href="#DejaVuSans-6f"/>
     <use x="707.492188" xlink:href="#DejaVuSans-72"/>
     <use x="748.589844" xlink:href="#DejaVuSans-6d"/>
     <use x="846.001953" xlink:href="#DejaVuSans-61"/>
     <use x="907.28125" xlink:href="#DejaVuSans-6e"/>
     <use x="970.660156" xlink:href="#DejaVuSans-63"/>
     <use x="1025.640625" xlink:href="#DejaVuSans-65"/>
     <use x="1087.164062" xlink:href="#DejaVuSans-20"/>
     <use x="1118.951172" xlink:href="#DejaVuSans-61"/>
     <use x="1180.230469" xlink:href="#DejaVuSans-6e"/>
     <use x="1243.609375" xlink:href="#DejaVuSans-64"/>
     <use x="1307.085938" xlink:href="#DejaVuSans-20"/>
     <use x="1338.873047" xlink:href="#DejaVuSans-53"/>
     <use x="1402.349609" xlink:href="#DejaVuSans-74"/>
     <use x="1441.558594" xlink:href="#DejaVuSans-61"/>
     <use x="1502.837891" xlink:href="#DejaVuSans-6e"/>
     <use x="1566.216797" xlink:href="#DejaVuSans-64"/>
     <use x="1629.693359" xlink:href="#DejaVuSans-61"/>
     <use x="1690.972656" xlink:href="#DejaVuSans-72"/>
     <use x="1732.070312" xlink:href="#DejaVuSans-64"/>
     <use x="1795.546875" xlink:href="#DejaVuSans-20"/>
     <use x="1827.333984" xlink:href="#DejaVuSans-45"/>
     <use x="1890.517578" xlink:href="#DejaVuSans-72"/>
     <use x="1931.615234" xlink:href="#DejaVuSans-72"/>
     <use x="1972.697266" xlink:href="#DejaVuSans-6f"/>
     <use x="2033.878906" xlink:href="#DejaVuSans-72"/>
     <use x="2074.992188" xlink:href="#DejaVuSans-20"/>
    </g>
    <!-- with DistQL-Partial tau 100 in CartPole-v1 -->
    <defs>
     <path d="M 54.890625 33.015625 
L 54.890625 0 
L 45.90625 0 
L 45.90625 32.71875 
Q 45.90625 40.484375 42.875 44.328125 
Q 39.84375 48.1875 33.796875 48.1875 
Q 26.515625 48.1875 22.3125 43.546875 
Q 18.109375 38.921875 18.109375 30.90625 
L 18.109375 0 
L 9.078125 0 
L 9.078125 75.984375 
L 18.109375 75.984375 
L 18.109375 46.1875 
Q 21.34375 51.125 25.703125 53.5625 
Q 30.078125 56 35.796875 56 
Q 45.21875 56 50.046875 50.171875 
Q 54.890625 44.34375 54.890625 33.015625 
z
" id="DejaVuSans-68"/>
     <path d="M 19.671875 64.796875 
L 19.671875 8.109375 
L 31.59375 8.109375 
Q 46.6875 8.109375 53.6875 14.9375 
Q 60.6875 21.78125 60.6875 36.53125 
Q 60.6875 51.171875 53.6875 57.984375 
Q 46.6875 64.796875 31.59375 64.796875 
z
M 9.8125 72.90625 
L 30.078125 72.90625 
Q 51.265625 72.90625 61.171875 64.09375 
Q 71.09375 55.28125 71.09375 36.53125 
Q 71.09375 17.671875 61.125 8.828125 
Q 51.171875 0 30.078125 0 
L 9.8125 0 
z
" id="DejaVuSans-44"/>
     <path d="M 39.40625 66.21875 
Q 28.65625 66.21875 22.328125 58.203125 
Q 16.015625 50.203125 16.015625 36.375 
Q 16.015625 22.609375 22.328125 14.59375 
Q 28.65625 6.59375 39.40625 6.59375 
Q 50.140625 6.59375 56.421875 14.59375 
Q 62.703125 22.609375 62.703125 36.375 
Q 62.703125 50.203125 56.421875 58.203125 
Q 50.140625 66.21875 39.40625 66.21875 
z
M 53.21875 1.3125 
L 66.21875 -12.890625 
L 54.296875 -12.890625 
L 43.5 -1.21875 
Q 41.890625 -1.3125 41.03125 -1.359375 
Q 40.1875 -1.421875 39.40625 -1.421875 
Q 24.03125 -1.421875 14.8125 8.859375 
Q 5.609375 19.140625 5.609375 36.375 
Q 5.609375 53.65625 14.8125 63.9375 
Q 24.03125 74.21875 39.40625 74.21875 
Q 54.734375 74.21875 63.90625 63.9375 
Q 73.09375 53.65625 73.09375 36.375 
Q 73.09375 23.6875 67.984375 14.640625 
Q 62.890625 5.609375 53.21875 1.3125 
z
" id="DejaVuSans-51"/>
     <path d="M 9.8125 72.90625 
L 19.671875 72.90625 
L 19.671875 8.296875 
L 55.171875 8.296875 
L 55.171875 0 
L 9.8125 0 
z
" id="DejaVuSans-4c"/>
     <path d="M 4.890625 31.390625 
L 31.203125 31.390625 
L 31.203125 23.390625 
L 4.890625 23.390625 
z
" id="DejaVuSans-2d"/>
    </defs>
    <g transform="translate(111.166875 35.472)scale(0.12 -0.12)">
     <use xlink:href="#DejaVuSans-77"/>
     <use x="81.787109" xlink:href="#DejaVuSans-69"/>
     <use x="109.570312" xlink:href="#DejaVuSans-74"/>
     <use x="148.779297" xlink:href="#DejaVuSans-68"/>
     <use x="212.158203" xlink:href="#DejaVuSans-20"/>
     <use x="243.945312" xlink:href="#DejaVuSans-44"/>
     <use x="320.947266" xlink:href="#DejaVuSans-69"/>
     <use x="348.730469" xlink:href="#DejaVuSans-73"/>
     <use x="400.830078" xlink:href="#DejaVuSans-74"/>
     <use x="440.039062" xlink:href="#DejaVuSans-51"/>
     <use x="518.75" xlink:href="#DejaVuSans-4c"/>
     <use x="574.447266" xlink:href="#DejaVuSans-2d"/>
     <use x="610.53125" xlink:href="#DejaVuSans-50"/>
     <use x="670.771484" xlink:href="#DejaVuSans-61"/>
     <use x="732.050781" xlink:href="#DejaVuSans-72"/>
     <use x="773.164062" xlink:href="#DejaVuSans-74"/>
     <use x="812.373047" xlink:href="#DejaVuSans-69"/>
     <use x="840.15625" xlink:href="#DejaVuSans-61"/>
     <use x="901.435547" xlink:href="#DejaVuSans-6c"/>
     <use x="929.21875" xlink:href="#DejaVuSans-20"/>
     <use x="961.005859" xlink:href="#DejaVuSans-74"/>
     <use x="1000.214844" xlink:href="#DejaVuSans-61"/>
     <use x="1061.494141" xlink:href="#DejaVuSans-75"/>
     <use x="1124.873047" xlink:href="#DejaVuSans-20"/>
     <use x="1156.660156" xlink:href="#DejaVuSans-31"/>
     <use x="1220.283203" xlink:href="#DejaVuSans-30"/>
     <use x="1283.90625" xlink:href="#DejaVuSans-30"/>
     <use x="1347.529297" xlink:href="#DejaVuSans-20"/>
     <use x="1379.316406" xlink:href="#DejaVuSans-69"/>
     <use x="1407.099609" xlink:href="#DejaVuSans-6e"/>
     <use x="1470.478516" xlink:href="#DejaVuSans-20"/>
     <use x="1502.265625" xlink:href="#DejaVuSans-43"/>
     <use x="1572.089844" xlink:href="#DejaVuSans-61"/>
     <use x="1633.369141" xlink:href="#DejaVuSans-72"/>
     <use x="1674.482422" xlink:href="#DejaVuSans-74"/>
     <use x="1713.691406" xlink:href="#DejaVuSans-50"/>
     <use x="1773.947266" xlink:href="#DejaVuSans-6f"/>
     <use x="1835.128906" xlink:href="#DejaVuSans-6c"/>
     <use x="1862.912109" xlink:href="#DejaVuSans-65"/>
     <use x="1924.435547" xlink:href="#DejaVuSans-2d"/>
     <use x="1960.488281" xlink:href="#DejaVuSans-76"/>
     <use x="2019.667969" xlink:href="#DejaVuSans-31"/>
    </g>
   </g>
   <g id="legend_1">
    <g id="patch_7">
     <path d="M 332.0825 302.584 
L 407.72 302.584 
Q 409.72 302.584 409.72 300.584 
L 409.72 242.8715 
Q 409.72 240.8715 407.72 240.8715 
L 332.0825 240.8715 
Q 330.0825 240.8715 330.0825 242.8715 
L 330.0825 300.584 
Q 330.0825 302.584 332.0825 302.584 
z
" style="fill:#ffffff;opacity:0.8;stroke:#cccccc;stroke-linejoin:miter;"/>
    </g>
    <g id="line2d_24">
     <path d="M 334.0825 248.969937 
L 354.0825 248.969937 
" style="fill:none;opacity:0.7;stroke:#1f77b4;stroke-linecap:square;stroke-width:1.5;"/>
    </g>
    <g id="line2d_25"/>
    <g id="text_23">
     <!-- 1 agent -->
     <g transform="translate(362.0825 252.469937)scale(0.1 -0.1)">
      <use xlink:href="#DejaVuSans-31"/>
      <use x="63.623047" xlink:href="#DejaVuSans-20"/>
      <use x="95.410156" xlink:href="#DejaVuSans-61"/>
      <use x="156.689453" xlink:href="#DejaVuSans-67"/>
      <use x="220.166016" xlink:href="#DejaVuSans-65"/>
      <use x="281.689453" xlink:href="#DejaVuSans-6e"/>
      <use x="345.068359" xlink:href="#DejaVuSans-74"/>
     </g>
    </g>
    <g id="line2d_26">
     <path d="M 334.0825 263.648062 
L 354.0825 263.648062 
" style="fill:none;opacity:0.7;stroke:#ff7f0e;stroke-linecap:square;stroke-width:1.5;"/>
    </g>
    <g id="line2d_27"/>
    <g id="text_24">
     <!-- 2 agents -->
     <g transform="translate(362.0825 267.148062)scale(0.1 -0.1)">
      <use xlink:href="#DejaVuSans-32"/>
      <use x="63.623047" xlink:href="#DejaVuSans-20"/>
      <use x="95.410156" xlink:href="#DejaVuSans-61"/>
      <use x="156.689453" xlink:href="#DejaVuSans-67"/>
      <use x="220.166016" xlink:href="#DejaVuSans-65"/>
      <use x="281.689453" xlink:href="#DejaVuSans-6e"/>
      <use x="345.068359" xlink:href="#DejaVuSans-74"/>
      <use x="384.277344" xlink:href="#DejaVuSans-73"/>
     </g>
    </g>
    <g id="line2d_28">
     <path d="M 334.0825 278.326187 
L 354.0825 278.326187 
" style="fill:none;opacity:0.7;stroke:#2ca02c;stroke-linecap:square;stroke-width:1.5;"/>
    </g>
    <g id="line2d_29"/>
    <g id="text_25">
     <!-- 4 agents -->
     <defs>
      <path d="M 37.796875 64.3125 
L 12.890625 25.390625 
L 37.796875 25.390625 
z
M 35.203125 72.90625 
L 47.609375 72.90625 
L 47.609375 25.390625 
L 58.015625 25.390625 
L 58.015625 17.1875 
L 47.609375 17.1875 
L 47.609375 0 
L 37.796875 0 
L 37.796875 17.1875 
L 4.890625 17.1875 
L 4.890625 26.703125 
z
" id="DejaVuSans-34"/>
     </defs>
     <g transform="translate(362.0825 281.826187)scale(0.1 -0.1)">
      <use xlink:href="#DejaVuSans-34"/>
      <use x="63.623047" xlink:href="#DejaVuSans-20"/>
      <use x="95.410156" xlink:href="#DejaVuSans-61"/>
      <use x="156.689453" xlink:href="#DejaVuSans-67"/>
      <use x="220.166016" xlink:href="#DejaVuSans-65"/>
      <use x="281.689453" xlink:href="#DejaVuSans-6e"/>
      <use x="345.068359" xlink:href="#DejaVuSans-74"/>
      <use x="384.277344" xlink:href="#DejaVuSans-73"/>
     </g>
    </g>
    <g id="line2d_30">
     <path d="M 334.0825 293.004312 
L 354.0825 293.004312 
" style="fill:none;opacity:0.7;stroke:#d62728;stroke-linecap:square;stroke-width:1.5;"/>
    </g>
    <g id="line2d_31"/>
    <g id="text_26">
     <!-- 8 agents -->
     <defs>
      <path d="M 31.78125 34.625 
Q 24.75 34.625 20.71875 30.859375 
Q 16.703125 27.09375 16.703125 20.515625 
Q 16.703125 13.921875 20.71875 10.15625 
Q 24.75 6.390625 31.78125 6.390625 
Q 38.8125 6.390625 42.859375 10.171875 
Q 46.921875 13.96875 46.921875 20.515625 
Q 46.921875 27.09375 42.890625 30.859375 
Q 38.875 34.625 31.78125 34.625 
z
M 21.921875 38.8125 
Q 15.578125 40.375 12.03125 44.71875 
Q 8.5 49.078125 8.5 55.328125 
Q 8.5 64.0625 14.71875 69.140625 
Q 20.953125 74.21875 31.78125 74.21875 
Q 42.671875 74.21875 48.875 69.140625 
Q 55.078125 64.0625 55.078125 55.328125 
Q 55.078125 49.078125 51.53125 44.71875 
Q 48 40.375 41.703125 38.8125 
Q 48.828125 37.15625 52.796875 32.3125 
Q 56.78125 27.484375 56.78125 20.515625 
Q 56.78125 9.90625 50.3125 4.234375 
Q 43.84375 -1.421875 31.78125 -1.421875 
Q 19.734375 -1.421875 13.25 4.234375 
Q 6.78125 9.90625 6.78125 20.515625 
Q 6.78125 27.484375 10.78125 32.3125 
Q 14.796875 37.15625 21.921875 38.8125 
z
M 18.3125 54.390625 
Q 18.3125 48.734375 21.84375 45.5625 
Q 25.390625 42.390625 31.78125 42.390625 
Q 38.140625 42.390625 41.71875 45.5625 
Q 45.3125 48.734375 45.3125 54.390625 
Q 45.3125 60.0625 41.71875 63.234375 
Q 38.140625 66.40625 31.78125 66.40625 
Q 25.390625 66.40625 21.84375 63.234375 
Q 18.3125 60.0625 18.3125 54.390625 
z
" id="DejaVuSans-38"/>
     </defs>
     <g transform="translate(362.0825 296.504312)scale(0.1 -0.1)">
      <use xlink:href="#DejaVuSans-38"/>
      <use x="63.623047" xlink:href="#DejaVuSans-20"/>
      <use x="95.410156" xlink:href="#DejaVuSans-61"/>
      <use x="156.689453" xlink:href="#DejaVuSans-67"/>
      <use x="220.166016" xlink:href="#DejaVuSans-65"/>
      <use x="281.689453" xlink:href="#DejaVuSans-6e"/>
      <use x="345.068359" xlink:href="#DejaVuSans-74"/>
      <use x="384.277344" xlink:href="#DejaVuSans-73"/>
     </g>
    </g>
   </g>
  </g>
 </g>
 <defs>
  <clipPath id="pd5e6229fe0">
   <rect height="266.112" width="357.12" x="57.6" y="41.472"/>
  </clipPath>
 </defs>
</svg>
