<?xml version="1.0" encoding="utf-8" standalone="no"?>
<!DOCTYPE svg PUBLIC "-//W3C//DTD SVG 1.1//EN"
  "http://www.w3.org/Graphics/SVG/1.1/DTD/svg11.dtd">
<!-- Created with matplotlib (http://matplotlib.org/) -->
<svg height="345.6pt" version="1.1" viewBox="0 0 460.8 345.6" width="460.8pt" xmlns="http://www.w3.org/2000/svg" xmlns:xlink="http://www.w3.org/1999/xlink">
 <defs>
  <style type="text/css">
*{stroke-linecap:butt;stroke-linejoin:round;}
  </style>
 </defs>
 <g id="figure_1">
  <g id="patch_1">
   <path d="M 0 345.6 
L 460.8 345.6 
L 460.8 0 
L 0 0 
z
" style="fill:#ffffff;"/>
  </g>
  <g id="axes_1">
   <g id="patch_2">
    <path d="M 57.6 307.584 
L 414.72 307.584 
L 414.72 41.472 
L 57.6 41.472 
z
" style="fill:#ffffff;"/>
   </g>
   <g id="PolyCollection_1">
    <path clip-path="url(#pf1435c61ea)" d="M 73.832727 279.082369 
L 73.832727 261.077046 
L 81.949091 235.12123 
L 90.065455 218.48177 
L 98.181818 214.821955 
L 106.298182 200.81263 
L 114.414545 202.16261 
L 122.530909 195.686285 
L 130.647273 192.561417 
L 138.763636 186.812641 
L 146.88 179.325795 
L 154.996364 180.083522 
L 163.112727 179.12067 
L 171.229091 177.194369 
L 179.345455 172.824058 
L 187.461818 173.112325 
L 195.578182 170.517354 
L 203.694545 172.111722 
L 211.810909 173.432316 
L 219.927273 167.186817 
L 228.043636 173.099979 
L 236.16 172.925851 
L 244.276364 168.534118 
L 252.392727 165.983674 
L 260.509091 164.024395 
L 268.625455 158.949221 
L 276.741818 163.529012 
L 284.858182 166.037972 
L 292.974545 165.697021 
L 301.090909 167.877315 
L 309.207273 164.738078 
L 317.323636 160.206137 
L 325.44 158.317738 
L 333.556364 164.047857 
L 341.672727 164.283433 
L 349.789091 161.888646 
L 357.905455 163.414535 
L 366.021818 164.503608 
L 374.138182 163.559667 
L 382.254545 159.668894 
L 390.370909 157.116733 
L 398.487273 160.828463 
L 398.487273 187.365841 
L 398.487273 187.365841 
L 390.370909 184.975702 
L 382.254545 189.037118 
L 374.138182 188.892429 
L 366.021818 190.283656 
L 357.905455 187.990009 
L 349.789091 187.857676 
L 341.672727 190.251698 
L 333.556364 189.93212 
L 325.44 187.99583 
L 317.323636 190.066375 
L 309.207273 190.743229 
L 301.090909 194.099298 
L 292.974545 192.507811 
L 284.858182 191.731537 
L 276.741818 191.609548 
L 268.625455 188.240978 
L 260.509091 191.681387 
L 252.392727 193.970598 
L 244.276364 194.475564 
L 236.16 198.275977 
L 228.043636 199.004579 
L 219.927273 194.933311 
L 211.810909 201.40698 
L 203.694545 198.672534 
L 195.578182 197.985942 
L 187.461818 199.665659 
L 179.345455 202.081766 
L 171.229091 203.276122 
L 163.112727 206.404139 
L 154.996364 207.232263 
L 146.88 205.928829 
L 138.763636 210.918321 
L 130.647273 219.461147 
L 122.530909 220.128224 
L 114.414545 226.770437 
L 106.298182 228.01537 
L 98.181818 238.086516 
L 90.065455 240.740977 
L 81.949091 259.088306 
L 73.832727 279.082369 
z
" style="fill:#1f77b4;fill-opacity:0.3;"/>
   </g>
   <g id="PolyCollection_2">
    <path clip-path="url(#pf1435c61ea)" d="M 73.832727 273.348224 
L 73.832727 259.784869 
L 81.949091 222.909298 
L 90.065455 207.702987 
L 98.181818 192.663181 
L 106.298182 190.322533 
L 114.414545 186.471226 
L 122.530909 183.469397 
L 130.647273 181.456837 
L 138.763636 172.985213 
L 146.88 171.418138 
L 154.996364 173.885186 
L 163.112727 172.429641 
L 171.229091 169.295706 
L 179.345455 166.723585 
L 187.461818 169.257869 
L 195.578182 163.116457 
L 203.694545 159.234168 
L 211.810909 153.306431 
L 219.927273 148.549535 
L 228.043636 151.299452 
L 236.16 151.018946 
L 244.276364 146.980491 
L 252.392727 149.546815 
L 260.509091 141.434786 
L 268.625455 143.646375 
L 276.741818 139.765436 
L 284.858182 137.613369 
L 292.974545 141.135551 
L 301.090909 133.098406 
L 309.207273 134.493277 
L 317.323636 127.229784 
L 325.44 129.773037 
L 333.556364 124.120619 
L 341.672727 121.289092 
L 349.789091 124.83008 
L 357.905455 121.869443 
L 366.021818 121.448192 
L 374.138182 118.14128 
L 382.254545 118.106184 
L 390.370909 116.254666 
L 398.487273 117.695352 
L 398.487273 150.178988 
L 398.487273 150.178988 
L 390.370909 148.434778 
L 382.254545 150.447617 
L 374.138182 151.719547 
L 366.021818 153.631136 
L 357.905455 153.662406 
L 349.789091 157.141559 
L 341.672727 152.094551 
L 333.556364 154.3451 
L 325.44 159.518643 
L 317.323636 156.657137 
L 309.207273 162.380633 
L 301.090909 162.73278 
L 292.974545 166.648449 
L 284.858182 164.171243 
L 276.741818 166.997463 
L 268.625455 169.810959 
L 260.509091 168.56249 
L 252.392727 175.114353 
L 244.276364 173.136281 
L 236.16 175.43986 
L 228.043636 176.296215 
L 219.927273 174.554385 
L 211.810909 176.560541 
L 203.694545 182.802751 
L 195.578182 183.945815 
L 187.461818 188.521294 
L 179.345455 188.616847 
L 171.229091 190.958722 
L 163.112727 192.976859 
L 154.996364 195.884103 
L 146.88 191.993126 
L 138.763636 195.758247 
L 130.647273 202.792325 
L 122.530909 203.344336 
L 114.414545 206.91143 
L 106.298182 212.108635 
L 98.181818 213.259927 
L 90.065455 228.524305 
L 81.949091 241.624827 
L 73.832727 273.348224 
z
" style="fill:#ff7f0e;fill-opacity:0.3;"/>
   </g>
   <g id="PolyCollection_3">
    <path clip-path="url(#pf1435c61ea)" d="M 73.832727 263.357031 
L 73.832727 251.538036 
L 81.949091 215.109314 
L 90.065455 195.807509 
L 98.181818 187.925094 
L 106.298182 182.385353 
L 114.414545 176.014626 
L 122.530909 178.845811 
L 130.647273 176.102235 
L 138.763636 173.122024 
L 146.88 171.100906 
L 154.996364 167.730662 
L 163.112727 163.879789 
L 171.229091 160.253425 
L 179.345455 160.160978 
L 187.461818 158.70719 
L 195.578182 157.586973 
L 203.694545 154.907663 
L 211.810909 155.047707 
L 219.927273 151.095926 
L 228.043636 150.735051 
L 236.16 147.616674 
L 244.276364 145.20392 
L 252.392727 142.291238 
L 260.509091 144.774474 
L 268.625455 144.734222 
L 276.741818 142.978265 
L 284.858182 142.154508 
L 292.974545 140.096025 
L 301.090909 138.295841 
L 309.207273 138.12524 
L 317.323636 138.040043 
L 325.44 135.956738 
L 333.556364 134.595748 
L 341.672727 135.369267 
L 349.789091 133.728861 
L 357.905455 131.044166 
L 366.021818 133.367405 
L 374.138182 132.888917 
L 382.254545 129.035554 
L 390.370909 127.161527 
L 398.487273 128.805067 
L 398.487273 151.071468 
L 398.487273 151.071468 
L 390.370909 150.694729 
L 382.254545 151.647161 
L 374.138182 155.180971 
L 366.021818 154.282019 
L 357.905455 153.580749 
L 349.789091 155.897873 
L 341.672727 157.137631 
L 333.556364 156.670501 
L 325.44 157.797246 
L 317.323636 158.673356 
L 309.207273 159.096245 
L 301.090909 159.300373 
L 292.974545 161.024703 
L 284.858182 161.7765 
L 276.741818 162.230201 
L 268.625455 164.214294 
L 260.509091 164.944018 
L 252.392727 163.565298 
L 244.276364 165.635742 
L 236.16 166.532793 
L 228.043636 168.792172 
L 219.927273 169.120802 
L 211.810909 173.143543 
L 203.694545 173.094714 
L 195.578182 176.201077 
L 187.461818 175.396453 
L 179.345455 176.978502 
L 171.229091 177.753194 
L 163.112727 180.406711 
L 154.996364 183.447596 
L 146.88 185.705606 
L 138.763636 188.430981 
L 130.647273 190.938953 
L 122.530909 193.760196 
L 114.414545 193.223043 
L 106.298182 197.670847 
L 98.181818 203.92606 
L 90.065455 211.118498 
L 81.949091 229.764506 
L 73.832727 263.357031 
z
" style="fill:#2ca02c;fill-opacity:0.3;"/>
   </g>
   <g id="PolyCollection_4">
    <path clip-path="url(#pf1435c61ea)" d="M 73.832727 256.352023 
L 73.832727 248.369842 
L 81.949091 205.75199 
L 90.065455 191.752129 
L 98.181818 179.610836 
L 106.298182 175.719348 
L 114.414545 175.752551 
L 122.530909 174.8225 
L 130.647273 173.13046 
L 138.763636 173.084257 
L 146.88 170.71009 
L 154.996364 171.609475 
L 163.112727 169.361176 
L 171.229091 166.132892 
L 179.345455 165.153357 
L 187.461818 162.913494 
L 195.578182 162.8796 
L 203.694545 160.948284 
L 211.810909 160.397192 
L 219.927273 157.540179 
L 228.043636 157.771494 
L 236.16 157.837757 
L 244.276364 157.41769 
L 252.392727 159.758993 
L 260.509091 159.900001 
L 268.625455 159.049646 
L 276.741818 160.468045 
L 284.858182 157.820556 
L 292.974545 157.576029 
L 301.090909 159.383325 
L 309.207273 158.904721 
L 317.323636 158.631971 
L 325.44 160.168158 
L 333.556364 158.193915 
L 341.672727 157.984148 
L 349.789091 157.891653 
L 357.905455 157.916107 
L 366.021818 158.085154 
L 374.138182 156.581825 
L 382.254545 155.443724 
L 390.370909 156.954799 
L 398.487273 155.435257 
L 398.487273 169.969059 
L 398.487273 169.969059 
L 390.370909 171.347482 
L 382.254545 170.293383 
L 374.138182 171.022893 
L 366.021818 171.513254 
L 357.905455 171.412606 
L 349.789091 171.587615 
L 341.672727 172.013164 
L 333.556364 172.198039 
L 325.44 172.647618 
L 317.323636 171.239526 
L 309.207273 171.84386 
L 301.090909 173.355363 
L 292.974545 171.516951 
L 284.858182 171.620093 
L 276.741818 173.959036 
L 268.625455 172.971264 
L 260.509091 173.5275 
L 252.392727 173.828015 
L 244.276364 171.559828 
L 236.16 171.346737 
L 228.043636 172.689855 
L 219.927273 171.449005 
L 211.810909 173.57943 
L 203.694545 174.723972 
L 195.578182 175.607348 
L 187.461818 175.976847 
L 179.345455 177.339471 
L 171.229091 179.679981 
L 163.112727 181.491231 
L 154.996364 183.34685 
L 146.88 182.594154 
L 138.763636 184.350953 
L 130.647273 184.600429 
L 122.530909 186.528961 
L 114.414545 187.801122 
L 106.298182 189.387456 
L 98.181818 192.558892 
L 90.065455 202.637348 
L 81.949091 216.713811 
L 73.832727 256.352023 
z
" style="fill:#d62728;fill-opacity:0.3;"/>
   </g>
   <g id="matplotlib.axis_1">
    <g id="xtick_1">
     <g id="line2d_1">
      <defs>
       <path d="M 0 0 
L 0 3.5 
" id="m216ba5427d" style="stroke:#000000;stroke-width:0.8;"/>
      </defs>
      <g>
       <use style="stroke:#000000;stroke-width:0.8;" x="73.832727" xlink:href="#m216ba5427d" y="307.584"/>
      </g>
     </g>
     <g id="text_1">
      <!-- 0 -->
      <defs>
       <path d="M 31.78125 66.40625 
Q 24.171875 66.40625 20.328125 58.90625 
Q 16.5 51.421875 16.5 36.375 
Q 16.5 21.390625 20.328125 13.890625 
Q 24.171875 6.390625 31.78125 6.390625 
Q 39.453125 6.390625 43.28125 13.890625 
Q 47.125 21.390625 47.125 36.375 
Q 47.125 51.421875 43.28125 58.90625 
Q 39.453125 66.40625 31.78125 66.40625 
z
M 31.78125 74.21875 
Q 44.046875 74.21875 50.515625 64.515625 
Q 56.984375 54.828125 56.984375 36.375 
Q 56.984375 17.96875 50.515625 8.265625 
Q 44.046875 -1.421875 31.78125 -1.421875 
Q 19.53125 -1.421875 13.0625 8.265625 
Q 6.59375 17.96875 6.59375 36.375 
Q 6.59375 54.828125 13.0625 64.515625 
Q 19.53125 74.21875 31.78125 74.21875 
z
" id="DejaVuSans-30"/>
      </defs>
      <g transform="translate(70.651477 322.182437)scale(0.1 -0.1)">
       <use xlink:href="#DejaVuSans-30"/>
      </g>
     </g>
    </g>
    <g id="xtick_2">
     <g id="line2d_2">
      <g>
       <use style="stroke:#000000;stroke-width:0.8;" x="114.414545" xlink:href="#m216ba5427d" y="307.584"/>
      </g>
     </g>
     <g id="text_2">
      <!-- 250 -->
      <defs>
       <path d="M 19.1875 8.296875 
L 53.609375 8.296875 
L 53.609375 0 
L 7.328125 0 
L 7.328125 8.296875 
Q 12.9375 14.109375 22.625 23.890625 
Q 32.328125 33.6875 34.8125 36.53125 
Q 39.546875 41.84375 41.421875 45.53125 
Q 43.3125 49.21875 43.3125 52.78125 
Q 43.3125 58.59375 39.234375 62.25 
Q 35.15625 65.921875 28.609375 65.921875 
Q 23.96875 65.921875 18.8125 64.3125 
Q 13.671875 62.703125 7.8125 59.421875 
L 7.8125 69.390625 
Q 13.765625 71.78125 18.9375 73 
Q 24.125 74.21875 28.421875 74.21875 
Q 39.75 74.21875 46.484375 68.546875 
Q 53.21875 62.890625 53.21875 53.421875 
Q 53.21875 48.921875 51.53125 44.890625 
Q 49.859375 40.875 45.40625 35.40625 
Q 44.1875 33.984375 37.640625 27.21875 
Q 31.109375 20.453125 19.1875 8.296875 
z
" id="DejaVuSans-32"/>
       <path d="M 10.796875 72.90625 
L 49.515625 72.90625 
L 49.515625 64.59375 
L 19.828125 64.59375 
L 19.828125 46.734375 
Q 21.96875 47.46875 24.109375 47.828125 
Q 26.265625 48.1875 28.421875 48.1875 
Q 40.625 48.1875 47.75 41.5 
Q 54.890625 34.8125 54.890625 23.390625 
Q 54.890625 11.625 47.5625 5.09375 
Q 40.234375 -1.421875 26.90625 -1.421875 
Q 22.3125 -1.421875 17.546875 -0.640625 
Q 12.796875 0.140625 7.71875 1.703125 
L 7.71875 11.625 
Q 12.109375 9.234375 16.796875 8.0625 
Q 21.484375 6.890625 26.703125 6.890625 
Q 35.15625 6.890625 40.078125 11.328125 
Q 45.015625 15.765625 45.015625 23.390625 
Q 45.015625 31 40.078125 35.4375 
Q 35.15625 39.890625 26.703125 39.890625 
Q 22.75 39.890625 18.8125 39.015625 
Q 14.890625 38.140625 10.796875 36.28125 
z
" id="DejaVuSans-35"/>
      </defs>
      <g transform="translate(104.870795 322.182437)scale(0.1 -0.1)">
       <use xlink:href="#DejaVuSans-32"/>
       <use x="63.623047" xlink:href="#DejaVuSans-35"/>
       <use x="127.246094" xlink:href="#DejaVuSans-30"/>
      </g>
     </g>
    </g>
    <g id="xtick_3">
     <g id="line2d_3">
      <g>
       <use style="stroke:#000000;stroke-width:0.8;" x="154.996364" xlink:href="#m216ba5427d" y="307.584"/>
      </g>
     </g>
     <g id="text_3">
      <!-- 500 -->
      <g transform="translate(145.452614 322.182437)scale(0.1 -0.1)">
       <use xlink:href="#DejaVuSans-35"/>
       <use x="63.623047" xlink:href="#DejaVuSans-30"/>
       <use x="127.246094" xlink:href="#DejaVuSans-30"/>
      </g>
     </g>
    </g>
    <g id="xtick_4">
     <g id="line2d_4">
      <g>
       <use style="stroke:#000000;stroke-width:0.8;" x="195.578182" xlink:href="#m216ba5427d" y="307.584"/>
      </g>
     </g>
     <g id="text_4">
      <!-- 750 -->
      <defs>
       <path d="M 8.203125 72.90625 
L 55.078125 72.90625 
L 55.078125 68.703125 
L 28.609375 0 
L 18.3125 0 
L 43.21875 64.59375 
L 8.203125 64.59375 
z
" id="DejaVuSans-37"/>
      </defs>
      <g transform="translate(186.034432 322.182437)scale(0.1 -0.1)">
       <use xlink:href="#DejaVuSans-37"/>
       <use x="63.623047" xlink:href="#DejaVuSans-35"/>
       <use x="127.246094" xlink:href="#DejaVuSans-30"/>
      </g>
     </g>
    </g>
    <g id="xtick_5">
     <g id="line2d_5">
      <g>
       <use style="stroke:#000000;stroke-width:0.8;" x="236.16" xlink:href="#m216ba5427d" y="307.584"/>
      </g>
     </g>
     <g id="text_5">
      <!-- 1000 -->
      <defs>
       <path d="M 12.40625 8.296875 
L 28.515625 8.296875 
L 28.515625 63.921875 
L 10.984375 60.40625 
L 10.984375 69.390625 
L 28.421875 72.90625 
L 38.28125 72.90625 
L 38.28125 8.296875 
L 54.390625 8.296875 
L 54.390625 0 
L 12.40625 0 
z
" id="DejaVuSans-31"/>
      </defs>
      <g transform="translate(223.435 322.182437)scale(0.1 -0.1)">
       <use xlink:href="#DejaVuSans-31"/>
       <use x="63.623047" xlink:href="#DejaVuSans-30"/>
       <use x="127.246094" xlink:href="#DejaVuSans-30"/>
       <use x="190.869141" xlink:href="#DejaVuSans-30"/>
      </g>
     </g>
    </g>
    <g id="xtick_6">
     <g id="line2d_6">
      <g>
       <use style="stroke:#000000;stroke-width:0.8;" x="276.741818" xlink:href="#m216ba5427d" y="307.584"/>
      </g>
     </g>
     <g id="text_6">
      <!-- 1250 -->
      <g transform="translate(264.016818 322.182437)scale(0.1 -0.1)">
       <use xlink:href="#DejaVuSans-31"/>
       <use x="63.623047" xlink:href="#DejaVuSans-32"/>
       <use x="127.246094" xlink:href="#DejaVuSans-35"/>
       <use x="190.869141" xlink:href="#DejaVuSans-30"/>
      </g>
     </g>
    </g>
    <g id="xtick_7">
     <g id="line2d_7">
      <g>
       <use style="stroke:#000000;stroke-width:0.8;" x="317.323636" xlink:href="#m216ba5427d" y="307.584"/>
      </g>
     </g>
     <g id="text_7">
      <!-- 1500 -->
      <g transform="translate(304.598636 322.182437)scale(0.1 -0.1)">
       <use xlink:href="#DejaVuSans-31"/>
       <use x="63.623047" xlink:href="#DejaVuSans-35"/>
       <use x="127.246094" xlink:href="#DejaVuSans-30"/>
       <use x="190.869141" xlink:href="#DejaVuSans-30"/>
      </g>
     </g>
    </g>
    <g id="xtick_8">
     <g id="line2d_8">
      <g>
       <use style="stroke:#000000;stroke-width:0.8;" x="357.905455" xlink:href="#m216ba5427d" y="307.584"/>
      </g>
     </g>
     <g id="text_8">
      <!-- 1750 -->
      <g transform="translate(345.180455 322.182437)scale(0.1 -0.1)">
       <use xlink:href="#DejaVuSans-31"/>
       <use x="63.623047" xlink:href="#DejaVuSans-37"/>
       <use x="127.246094" xlink:href="#DejaVuSans-35"/>
       <use x="190.869141" xlink:href="#DejaVuSans-30"/>
      </g>
     </g>
    </g>
    <g id="xtick_9">
     <g id="line2d_9">
      <g>
       <use style="stroke:#000000;stroke-width:0.8;" x="398.487273" xlink:href="#m216ba5427d" y="307.584"/>
      </g>
     </g>
     <g id="text_9">
      <!-- 2000 -->
      <g transform="translate(385.762273 322.182437)scale(0.1 -0.1)">
       <use xlink:href="#DejaVuSans-32"/>
       <use x="63.623047" xlink:href="#DejaVuSans-30"/>
       <use x="127.246094" xlink:href="#DejaVuSans-30"/>
       <use x="190.869141" xlink:href="#DejaVuSans-30"/>
      </g>
     </g>
    </g>
    <g id="text_10">
     <!-- Episode Number -->
     <defs>
      <path d="M 9.8125 72.90625 
L 55.90625 72.90625 
L 55.90625 64.59375 
L 19.671875 64.59375 
L 19.671875 43.015625 
L 54.390625 43.015625 
L 54.390625 34.71875 
L 19.671875 34.71875 
L 19.671875 8.296875 
L 56.78125 8.296875 
L 56.78125 0 
L 9.8125 0 
z
" id="DejaVuSans-45"/>
      <path d="M 18.109375 8.203125 
L 18.109375 -20.796875 
L 9.078125 -20.796875 
L 9.078125 54.6875 
L 18.109375 54.6875 
L 18.109375 46.390625 
Q 20.953125 51.265625 25.265625 53.625 
Q 29.59375 56 35.59375 56 
Q 45.5625 56 51.78125 48.09375 
Q 58.015625 40.1875 58.015625 27.296875 
Q 58.015625 14.40625 51.78125 6.484375 
Q 45.5625 -1.421875 35.59375 -1.421875 
Q 29.59375 -1.421875 25.265625 0.953125 
Q 20.953125 3.328125 18.109375 8.203125 
z
M 48.6875 27.296875 
Q 48.6875 37.203125 44.609375 42.84375 
Q 40.53125 48.484375 33.40625 48.484375 
Q 26.265625 48.484375 22.1875 42.84375 
Q 18.109375 37.203125 18.109375 27.296875 
Q 18.109375 17.390625 22.1875 11.75 
Q 26.265625 6.109375 33.40625 6.109375 
Q 40.53125 6.109375 44.609375 11.75 
Q 48.6875 17.390625 48.6875 27.296875 
z
" id="DejaVuSans-70"/>
      <path d="M 9.421875 54.6875 
L 18.40625 54.6875 
L 18.40625 0 
L 9.421875 0 
z
M 9.421875 75.984375 
L 18.40625 75.984375 
L 18.40625 64.59375 
L 9.421875 64.59375 
z
" id="DejaVuSans-69"/>
      <path d="M 44.28125 53.078125 
L 44.28125 44.578125 
Q 40.484375 46.53125 36.375 47.5 
Q 32.28125 48.484375 27.875 48.484375 
Q 21.1875 48.484375 17.84375 46.4375 
Q 14.5 44.390625 14.5 40.28125 
Q 14.5 37.15625 16.890625 35.375 
Q 19.28125 33.59375 26.515625 31.984375 
L 29.59375 31.296875 
Q 39.15625 29.25 43.1875 25.515625 
Q 47.21875 21.78125 47.21875 15.09375 
Q 47.21875 7.46875 41.1875 3.015625 
Q 35.15625 -1.421875 24.609375 -1.421875 
Q 20.21875 -1.421875 15.453125 -0.5625 
Q 10.6875 0.296875 5.421875 2 
L 5.421875 11.28125 
Q 10.40625 8.6875 15.234375 7.390625 
Q 20.0625 6.109375 24.8125 6.109375 
Q 31.15625 6.109375 34.5625 8.28125 
Q 37.984375 10.453125 37.984375 14.40625 
Q 37.984375 18.0625 35.515625 20.015625 
Q 33.0625 21.96875 24.703125 23.78125 
L 21.578125 24.515625 
Q 13.234375 26.265625 9.515625 29.90625 
Q 5.8125 33.546875 5.8125 39.890625 
Q 5.8125 47.609375 11.28125 51.796875 
Q 16.75 56 26.8125 56 
Q 31.78125 56 36.171875 55.265625 
Q 40.578125 54.546875 44.28125 53.078125 
z
" id="DejaVuSans-73"/>
      <path d="M 30.609375 48.390625 
Q 23.390625 48.390625 19.1875 42.75 
Q 14.984375 37.109375 14.984375 27.296875 
Q 14.984375 17.484375 19.15625 11.84375 
Q 23.34375 6.203125 30.609375 6.203125 
Q 37.796875 6.203125 41.984375 11.859375 
Q 46.1875 17.53125 46.1875 27.296875 
Q 46.1875 37.015625 41.984375 42.703125 
Q 37.796875 48.390625 30.609375 48.390625 
z
M 30.609375 56 
Q 42.328125 56 49.015625 48.375 
Q 55.71875 40.765625 55.71875 27.296875 
Q 55.71875 13.875 49.015625 6.21875 
Q 42.328125 -1.421875 30.609375 -1.421875 
Q 18.84375 -1.421875 12.171875 6.21875 
Q 5.515625 13.875 5.515625 27.296875 
Q 5.515625 40.765625 12.171875 48.375 
Q 18.84375 56 30.609375 56 
z
" id="DejaVuSans-6f"/>
      <path d="M 45.40625 46.390625 
L 45.40625 75.984375 
L 54.390625 75.984375 
L 54.390625 0 
L 45.40625 0 
L 45.40625 8.203125 
Q 42.578125 3.328125 38.25 0.953125 
Q 33.9375 -1.421875 27.875 -1.421875 
Q 17.96875 -1.421875 11.734375 6.484375 
Q 5.515625 14.40625 5.515625 27.296875 
Q 5.515625 40.1875 11.734375 48.09375 
Q 17.96875 56 27.875 56 
Q 33.9375 56 38.25 53.625 
Q 42.578125 51.265625 45.40625 46.390625 
z
M 14.796875 27.296875 
Q 14.796875 17.390625 18.875 11.75 
Q 22.953125 6.109375 30.078125 6.109375 
Q 37.203125 6.109375 41.296875 11.75 
Q 45.40625 17.390625 45.40625 27.296875 
Q 45.40625 37.203125 41.296875 42.84375 
Q 37.203125 48.484375 30.078125 48.484375 
Q 22.953125 48.484375 18.875 42.84375 
Q 14.796875 37.203125 14.796875 27.296875 
z
" id="DejaVuSans-64"/>
      <path d="M 56.203125 29.59375 
L 56.203125 25.203125 
L 14.890625 25.203125 
Q 15.484375 15.921875 20.484375 11.0625 
Q 25.484375 6.203125 34.421875 6.203125 
Q 39.59375 6.203125 44.453125 7.46875 
Q 49.3125 8.734375 54.109375 11.28125 
L 54.109375 2.78125 
Q 49.265625 0.734375 44.1875 -0.34375 
Q 39.109375 -1.421875 33.890625 -1.421875 
Q 20.796875 -1.421875 13.15625 6.1875 
Q 5.515625 13.8125 5.515625 26.8125 
Q 5.515625 40.234375 12.765625 48.109375 
Q 20.015625 56 32.328125 56 
Q 43.359375 56 49.78125 48.890625 
Q 56.203125 41.796875 56.203125 29.59375 
z
M 47.21875 32.234375 
Q 47.125 39.59375 43.09375 43.984375 
Q 39.0625 48.390625 32.421875 48.390625 
Q 24.90625 48.390625 20.390625 44.140625 
Q 15.875 39.890625 15.1875 32.171875 
z
" id="DejaVuSans-65"/>
      <path id="DejaVuSans-20"/>
      <path d="M 9.8125 72.90625 
L 23.09375 72.90625 
L 55.421875 11.921875 
L 55.421875 72.90625 
L 64.984375 72.90625 
L 64.984375 0 
L 51.703125 0 
L 19.390625 60.984375 
L 19.390625 0 
L 9.8125 0 
z
" id="DejaVuSans-4e"/>
      <path d="M 8.5 21.578125 
L 8.5 54.6875 
L 17.484375 54.6875 
L 17.484375 21.921875 
Q 17.484375 14.15625 20.5 10.265625 
Q 23.53125 6.390625 29.59375 6.390625 
Q 36.859375 6.390625 41.078125 11.03125 
Q 45.3125 15.671875 45.3125 23.6875 
L 45.3125 54.6875 
L 54.296875 54.6875 
L 54.296875 0 
L 45.3125 0 
L 45.3125 8.40625 
Q 42.046875 3.421875 37.71875 1 
Q 33.40625 -1.421875 27.6875 -1.421875 
Q 18.265625 -1.421875 13.375 4.4375 
Q 8.5 10.296875 8.5 21.578125 
z
M 31.109375 56 
z
" id="DejaVuSans-75"/>
      <path d="M 52 44.1875 
Q 55.375 50.25 60.0625 53.125 
Q 64.75 56 71.09375 56 
Q 79.640625 56 84.28125 50.015625 
Q 88.921875 44.046875 88.921875 33.015625 
L 88.921875 0 
L 79.890625 0 
L 79.890625 32.71875 
Q 79.890625 40.578125 77.09375 44.375 
Q 74.3125 48.1875 68.609375 48.1875 
Q 61.625 48.1875 57.5625 43.546875 
Q 53.515625 38.921875 53.515625 30.90625 
L 53.515625 0 
L 44.484375 0 
L 44.484375 32.71875 
Q 44.484375 40.625 41.703125 44.40625 
Q 38.921875 48.1875 33.109375 48.1875 
Q 26.21875 48.1875 22.15625 43.53125 
Q 18.109375 38.875 18.109375 30.90625 
L 18.109375 0 
L 9.078125 0 
L 9.078125 54.6875 
L 18.109375 54.6875 
L 18.109375 46.1875 
Q 21.1875 51.21875 25.484375 53.609375 
Q 29.78125 56 35.6875 56 
Q 41.65625 56 45.828125 52.96875 
Q 50 49.953125 52 44.1875 
z
" id="DejaVuSans-6d"/>
      <path d="M 48.6875 27.296875 
Q 48.6875 37.203125 44.609375 42.84375 
Q 40.53125 48.484375 33.40625 48.484375 
Q 26.265625 48.484375 22.1875 42.84375 
Q 18.109375 37.203125 18.109375 27.296875 
Q 18.109375 17.390625 22.1875 11.75 
Q 26.265625 6.109375 33.40625 6.109375 
Q 40.53125 6.109375 44.609375 11.75 
Q 48.6875 17.390625 48.6875 27.296875 
z
M 18.109375 46.390625 
Q 20.953125 51.265625 25.265625 53.625 
Q 29.59375 56 35.59375 56 
Q 45.5625 56 51.78125 48.09375 
Q 58.015625 40.1875 58.015625 27.296875 
Q 58.015625 14.40625 51.78125 6.484375 
Q 45.5625 -1.421875 35.59375 -1.421875 
Q 29.59375 -1.421875 25.265625 0.953125 
Q 20.953125 3.328125 18.109375 8.203125 
L 18.109375 0 
L 9.078125 0 
L 9.078125 75.984375 
L 18.109375 75.984375 
z
" id="DejaVuSans-62"/>
      <path d="M 41.109375 46.296875 
Q 39.59375 47.171875 37.8125 47.578125 
Q 36.03125 48 33.890625 48 
Q 26.265625 48 22.1875 43.046875 
Q 18.109375 38.09375 18.109375 28.8125 
L 18.109375 0 
L 9.078125 0 
L 9.078125 54.6875 
L 18.109375 54.6875 
L 18.109375 46.1875 
Q 20.953125 51.171875 25.484375 53.578125 
Q 30.03125 56 36.53125 56 
Q 37.453125 56 38.578125 55.875 
Q 39.703125 55.765625 41.0625 55.515625 
z
" id="DejaVuSans-72"/>
     </defs>
     <g transform="translate(194.8475 335.860562)scale(0.1 -0.1)">
      <use xlink:href="#DejaVuSans-45"/>
      <use x="63.183594" xlink:href="#DejaVuSans-70"/>
      <use x="126.660156" xlink:href="#DejaVuSans-69"/>
      <use x="154.443359" xlink:href="#DejaVuSans-73"/>
      <use x="206.542969" xlink:href="#DejaVuSans-6f"/>
      <use x="267.724609" xlink:href="#DejaVuSans-64"/>
      <use x="331.201172" xlink:href="#DejaVuSans-65"/>
      <use x="392.724609" xlink:href="#DejaVuSans-20"/>
      <use x="424.511719" xlink:href="#DejaVuSans-4e"/>
      <use x="499.316406" xlink:href="#DejaVuSans-75"/>
      <use x="562.695312" xlink:href="#DejaVuSans-6d"/>
      <use x="660.107422" xlink:href="#DejaVuSans-62"/>
      <use x="723.583984" xlink:href="#DejaVuSans-65"/>
      <use x="785.107422" xlink:href="#DejaVuSans-72"/>
     </g>
    </g>
   </g>
   <g id="matplotlib.axis_2">
    <g id="ytick_1">
     <g id="line2d_10">
      <defs>
       <path d="M 0 0 
L -3.5 0 
" id="m5a7202a36b" style="stroke:#000000;stroke-width:0.8;"/>
      </defs>
      <g>
       <use style="stroke:#000000;stroke-width:0.8;" x="57.6" xlink:href="#m5a7202a36b" y="307.584"/>
      </g>
     </g>
     <g id="text_11">
      <!-- −200 -->
      <defs>
       <path d="M 10.59375 35.5 
L 73.1875 35.5 
L 73.1875 27.203125 
L 10.59375 27.203125 
z
" id="DejaVuSans-2212"/>
      </defs>
      <g transform="translate(23.132812 311.383219)scale(0.1 -0.1)">
       <use xlink:href="#DejaVuSans-2212"/>
       <use x="83.789062" xlink:href="#DejaVuSans-32"/>
       <use x="147.412109" xlink:href="#DejaVuSans-30"/>
       <use x="211.035156" xlink:href="#DejaVuSans-30"/>
      </g>
     </g>
    </g>
    <g id="ytick_2">
     <g id="line2d_11">
      <g>
       <use style="stroke:#000000;stroke-width:0.8;" x="57.6" xlink:href="#m5a7202a36b" y="278.016"/>
      </g>
     </g>
     <g id="text_12">
      <!-- −150 -->
      <g transform="translate(23.132812 281.815219)scale(0.1 -0.1)">
       <use xlink:href="#DejaVuSans-2212"/>
       <use x="83.789062" xlink:href="#DejaVuSans-31"/>
       <use x="147.412109" xlink:href="#DejaVuSans-35"/>
       <use x="211.035156" xlink:href="#DejaVuSans-30"/>
      </g>
     </g>
    </g>
    <g id="ytick_3">
     <g id="line2d_12">
      <g>
       <use style="stroke:#000000;stroke-width:0.8;" x="57.6" xlink:href="#m5a7202a36b" y="248.448"/>
      </g>
     </g>
     <g id="text_13">
      <!-- −100 -->
      <g transform="translate(23.132812 252.247219)scale(0.1 -0.1)">
       <use xlink:href="#DejaVuSans-2212"/>
       <use x="83.789062" xlink:href="#DejaVuSans-31"/>
       <use x="147.412109" xlink:href="#DejaVuSans-30"/>
       <use x="211.035156" xlink:href="#DejaVuSans-30"/>
      </g>
     </g>
    </g>
    <g id="ytick_4">
     <g id="line2d_13">
      <g>
       <use style="stroke:#000000;stroke-width:0.8;" x="57.6" xlink:href="#m5a7202a36b" y="218.88"/>
      </g>
     </g>
     <g id="text_14">
      <!-- −50 -->
      <g transform="translate(29.495313 222.679219)scale(0.1 -0.1)">
       <use xlink:href="#DejaVuSans-2212"/>
       <use x="83.789062" xlink:href="#DejaVuSans-35"/>
       <use x="147.412109" xlink:href="#DejaVuSans-30"/>
      </g>
     </g>
    </g>
    <g id="ytick_5">
     <g id="line2d_14">
      <g>
       <use style="stroke:#000000;stroke-width:0.8;" x="57.6" xlink:href="#m5a7202a36b" y="189.312"/>
      </g>
     </g>
     <g id="text_15">
      <!-- 0 -->
      <g transform="translate(44.2375 193.111219)scale(0.1 -0.1)">
       <use xlink:href="#DejaVuSans-30"/>
      </g>
     </g>
    </g>
    <g id="ytick_6">
     <g id="line2d_15">
      <g>
       <use style="stroke:#000000;stroke-width:0.8;" x="57.6" xlink:href="#m5a7202a36b" y="159.744"/>
      </g>
     </g>
     <g id="text_16">
      <!-- 50 -->
      <g transform="translate(37.875 163.543219)scale(0.1 -0.1)">
       <use xlink:href="#DejaVuSans-35"/>
       <use x="63.623047" xlink:href="#DejaVuSans-30"/>
      </g>
     </g>
    </g>
    <g id="ytick_7">
     <g id="line2d_16">
      <g>
       <use style="stroke:#000000;stroke-width:0.8;" x="57.6" xlink:href="#m5a7202a36b" y="130.176"/>
      </g>
     </g>
     <g id="text_17">
      <!-- 100 -->
      <g transform="translate(31.5125 133.975219)scale(0.1 -0.1)">
       <use xlink:href="#DejaVuSans-31"/>
       <use x="63.623047" xlink:href="#DejaVuSans-30"/>
       <use x="127.246094" xlink:href="#DejaVuSans-30"/>
      </g>
     </g>
    </g>
    <g id="ytick_8">
     <g id="line2d_17">
      <g>
       <use style="stroke:#000000;stroke-width:0.8;" x="57.6" xlink:href="#m5a7202a36b" y="100.608"/>
      </g>
     </g>
     <g id="text_18">
      <!-- 150 -->
      <g transform="translate(31.5125 104.407219)scale(0.1 -0.1)">
       <use xlink:href="#DejaVuSans-31"/>
       <use x="63.623047" xlink:href="#DejaVuSans-35"/>
       <use x="127.246094" xlink:href="#DejaVuSans-30"/>
      </g>
     </g>
    </g>
    <g id="ytick_9">
     <g id="line2d_18">
      <g>
       <use style="stroke:#000000;stroke-width:0.8;" x="57.6" xlink:href="#m5a7202a36b" y="71.04"/>
      </g>
     </g>
     <g id="text_19">
      <!-- 200 -->
      <g transform="translate(31.5125 74.839219)scale(0.1 -0.1)">
       <use xlink:href="#DejaVuSans-32"/>
       <use x="63.623047" xlink:href="#DejaVuSans-30"/>
       <use x="127.246094" xlink:href="#DejaVuSans-30"/>
      </g>
     </g>
    </g>
    <g id="ytick_10">
     <g id="line2d_19">
      <g>
       <use style="stroke:#000000;stroke-width:0.8;" x="57.6" xlink:href="#m5a7202a36b" y="41.472"/>
      </g>
     </g>
     <g id="text_20">
      <!-- 250 -->
      <g transform="translate(31.5125 45.271219)scale(0.1 -0.1)">
       <use xlink:href="#DejaVuSans-32"/>
       <use x="63.623047" xlink:href="#DejaVuSans-35"/>
       <use x="127.246094" xlink:href="#DejaVuSans-30"/>
      </g>
     </g>
    </g>
    <g id="text_21">
     <!-- Cumulative Reward -->
     <defs>
      <path d="M 64.40625 67.28125 
L 64.40625 56.890625 
Q 59.421875 61.53125 53.78125 63.8125 
Q 48.140625 66.109375 41.796875 66.109375 
Q 29.296875 66.109375 22.65625 58.46875 
Q 16.015625 50.828125 16.015625 36.375 
Q 16.015625 21.96875 22.65625 14.328125 
Q 29.296875 6.6875 41.796875 6.6875 
Q 48.140625 6.6875 53.78125 8.984375 
Q 59.421875 11.28125 64.40625 15.921875 
L 64.40625 5.609375 
Q 59.234375 2.09375 53.4375 0.328125 
Q 47.65625 -1.421875 41.21875 -1.421875 
Q 24.65625 -1.421875 15.125 8.703125 
Q 5.609375 18.84375 5.609375 36.375 
Q 5.609375 53.953125 15.125 64.078125 
Q 24.65625 74.21875 41.21875 74.21875 
Q 47.75 74.21875 53.53125 72.484375 
Q 59.328125 70.75 64.40625 67.28125 
z
" id="DejaVuSans-43"/>
      <path d="M 9.421875 75.984375 
L 18.40625 75.984375 
L 18.40625 0 
L 9.421875 0 
z
" id="DejaVuSans-6c"/>
      <path d="M 34.28125 27.484375 
Q 23.390625 27.484375 19.1875 25 
Q 14.984375 22.515625 14.984375 16.5 
Q 14.984375 11.71875 18.140625 8.90625 
Q 21.296875 6.109375 26.703125 6.109375 
Q 34.1875 6.109375 38.703125 11.40625 
Q 43.21875 16.703125 43.21875 25.484375 
L 43.21875 27.484375 
z
M 52.203125 31.203125 
L 52.203125 0 
L 43.21875 0 
L 43.21875 8.296875 
Q 40.140625 3.328125 35.546875 0.953125 
Q 30.953125 -1.421875 24.3125 -1.421875 
Q 15.921875 -1.421875 10.953125 3.296875 
Q 6 8.015625 6 15.921875 
Q 6 25.140625 12.171875 29.828125 
Q 18.359375 34.515625 30.609375 34.515625 
L 43.21875 34.515625 
L 43.21875 35.40625 
Q 43.21875 41.609375 39.140625 45 
Q 35.0625 48.390625 27.6875 48.390625 
Q 23 48.390625 18.546875 47.265625 
Q 14.109375 46.140625 10.015625 43.890625 
L 10.015625 52.203125 
Q 14.9375 54.109375 19.578125 55.046875 
Q 24.21875 56 28.609375 56 
Q 40.484375 56 46.34375 49.84375 
Q 52.203125 43.703125 52.203125 31.203125 
z
" id="DejaVuSans-61"/>
      <path d="M 18.3125 70.21875 
L 18.3125 54.6875 
L 36.8125 54.6875 
L 36.8125 47.703125 
L 18.3125 47.703125 
L 18.3125 18.015625 
Q 18.3125 11.328125 20.140625 9.421875 
Q 21.96875 7.515625 27.59375 7.515625 
L 36.8125 7.515625 
L 36.8125 0 
L 27.59375 0 
Q 17.1875 0 13.234375 3.875 
Q 9.28125 7.765625 9.28125 18.015625 
L 9.28125 47.703125 
L 2.6875 47.703125 
L 2.6875 54.6875 
L 9.28125 54.6875 
L 9.28125 70.21875 
z
" id="DejaVuSans-74"/>
      <path d="M 2.984375 54.6875 
L 12.5 54.6875 
L 29.59375 8.796875 
L 46.6875 54.6875 
L 56.203125 54.6875 
L 35.6875 0 
L 23.484375 0 
z
" id="DejaVuSans-76"/>
      <path d="M 44.390625 34.1875 
Q 47.5625 33.109375 50.5625 29.59375 
Q 53.5625 26.078125 56.59375 19.921875 
L 66.609375 0 
L 56 0 
L 46.6875 18.703125 
Q 43.0625 26.03125 39.671875 28.421875 
Q 36.28125 30.8125 30.421875 30.8125 
L 19.671875 30.8125 
L 19.671875 0 
L 9.8125 0 
L 9.8125 72.90625 
L 32.078125 72.90625 
Q 44.578125 72.90625 50.734375 67.671875 
Q 56.890625 62.453125 56.890625 51.90625 
Q 56.890625 45.015625 53.6875 40.46875 
Q 50.484375 35.9375 44.390625 34.1875 
z
M 19.671875 64.796875 
L 19.671875 38.921875 
L 32.078125 38.921875 
Q 39.203125 38.921875 42.84375 42.21875 
Q 46.484375 45.515625 46.484375 51.90625 
Q 46.484375 58.296875 42.84375 61.546875 
Q 39.203125 64.796875 32.078125 64.796875 
z
" id="DejaVuSans-52"/>
      <path d="M 4.203125 54.6875 
L 13.1875 54.6875 
L 24.421875 12.015625 
L 35.59375 54.6875 
L 46.1875 54.6875 
L 57.421875 12.015625 
L 68.609375 54.6875 
L 77.59375 54.6875 
L 63.28125 0 
L 52.6875 0 
L 40.921875 44.828125 
L 29.109375 0 
L 18.5 0 
z
" id="DejaVuSans-77"/>
     </defs>
     <g transform="translate(17.053125 223.58425)rotate(-90)scale(0.1 -0.1)">
      <use xlink:href="#DejaVuSans-43"/>
      <use x="69.824219" xlink:href="#DejaVuSans-75"/>
      <use x="133.203125" xlink:href="#DejaVuSans-6d"/>
      <use x="230.615234" xlink:href="#DejaVuSans-75"/>
      <use x="293.994141" xlink:href="#DejaVuSans-6c"/>
      <use x="321.777344" xlink:href="#DejaVuSans-61"/>
      <use x="383.056641" xlink:href="#DejaVuSans-74"/>
      <use x="422.265625" xlink:href="#DejaVuSans-69"/>
      <use x="450.048828" xlink:href="#DejaVuSans-76"/>
      <use x="509.228516" xlink:href="#DejaVuSans-65"/>
      <use x="570.751953" xlink:href="#DejaVuSans-20"/>
      <use x="602.539062" xlink:href="#DejaVuSans-52"/>
      <use x="671.958984" xlink:href="#DejaVuSans-65"/>
      <use x="733.482422" xlink:href="#DejaVuSans-77"/>
      <use x="815.269531" xlink:href="#DejaVuSans-61"/>
      <use x="876.548828" xlink:href="#DejaVuSans-72"/>
      <use x="917.646484" xlink:href="#DejaVuSans-64"/>
     </g>
    </g>
   </g>
   <g id="line2d_20">
    <path clip-path="url(#pf1435c61ea)" d="M 73.832727 270.079707 
L 81.949091 247.104768 
L 90.065455 229.611374 
L 98.181818 226.454235 
L 106.298182 214.414 
L 114.414545 214.466523 
L 122.530909 207.907255 
L 130.647273 206.011282 
L 138.763636 198.865481 
L 146.88 192.627312 
L 154.996364 193.657893 
L 163.112727 192.762405 
L 171.229091 190.235246 
L 179.345455 187.452912 
L 187.461818 186.388992 
L 195.578182 184.251648 
L 203.694545 185.392128 
L 211.810909 187.419648 
L 219.927273 181.060064 
L 228.043636 186.052279 
L 236.16 185.600914 
L 244.276364 181.504841 
L 252.392727 179.977136 
L 260.509091 177.852891 
L 268.625455 173.595099 
L 276.741818 177.56928 
L 284.858182 178.884754 
L 292.974545 179.102416 
L 301.090909 180.988306 
L 309.207273 177.740654 
L 317.323636 175.136256 
L 325.44 173.156784 
L 333.556364 176.989989 
L 341.672727 177.267566 
L 349.789091 174.873161 
L 357.905455 175.702272 
L 366.021818 177.393632 
L 374.138182 176.226048 
L 382.254545 174.353006 
L 390.370909 171.046217 
L 398.487273 174.097152 
" style="fill:none;opacity:0.7;stroke:#1f77b4;stroke-linecap:square;stroke-width:1.5;"/>
   </g>
   <g id="line2d_21">
    <path clip-path="url(#pf1435c61ea)" d="M 73.832727 266.566546 
L 81.949091 232.267063 
L 90.065455 218.113646 
L 98.181818 202.961554 
L 106.298182 201.215584 
L 114.414545 196.691328 
L 122.530909 193.406866 
L 130.647273 192.124581 
L 138.763636 184.37173 
L 146.88 181.705632 
L 154.996364 184.884645 
L 163.112727 182.70325 
L 171.229091 180.127214 
L 179.345455 177.670216 
L 187.461818 178.889582 
L 195.578182 173.531136 
L 203.694545 171.018459 
L 211.810909 164.933486 
L 219.927273 161.55196 
L 228.043636 163.797833 
L 236.16 163.229403 
L 244.276364 160.058386 
L 252.392727 162.330584 
L 260.509091 154.998638 
L 268.625455 156.728667 
L 276.741818 153.381449 
L 284.858182 150.892306 
L 292.974545 153.892 
L 301.090909 147.915593 
L 309.207273 148.436955 
L 317.323636 141.943461 
L 325.44 144.64584 
L 333.556364 139.232859 
L 341.672727 136.691822 
L 349.789091 140.985819 
L 357.905455 137.765925 
L 366.021818 137.539664 
L 374.138182 134.930414 
L 382.254545 134.276901 
L 390.370909 132.344722 
L 398.487273 133.93717 
" style="fill:none;opacity:0.7;stroke:#ff7f0e;stroke-linecap:square;stroke-width:1.5;"/>
   </g>
   <g id="line2d_22">
    <path clip-path="url(#pf1435c61ea)" d="M 73.832727 257.447534 
L 81.949091 222.43691 
L 90.065455 203.463003 
L 98.181818 195.925577 
L 106.298182 190.0281 
L 114.414545 184.618834 
L 122.530909 186.303003 
L 130.647273 183.520594 
L 138.763636 180.776503 
L 146.88 178.403256 
L 154.996364 175.589129 
L 163.112727 172.14325 
L 171.229091 169.00331 
L 179.345455 168.56974 
L 187.461818 167.051822 
L 195.578182 166.894025 
L 203.694545 164.001189 
L 211.810909 164.095625 
L 219.927273 160.108364 
L 228.043636 159.763611 
L 236.16 157.074734 
L 244.276364 155.419831 
L 252.392727 152.928268 
L 260.509091 154.859246 
L 268.625455 154.474258 
L 276.741818 152.604233 
L 284.858182 151.965504 
L 292.974545 150.560364 
L 301.090909 148.798107 
L 309.207273 148.610743 
L 317.323636 148.356699 
L 325.44 146.876992 
L 333.556364 145.633125 
L 341.672727 146.253449 
L 349.789091 144.813367 
L 357.905455 142.312457 
L 366.021818 143.824712 
L 374.138182 144.034944 
L 382.254545 140.341358 
L 390.370909 138.928128 
L 398.487273 139.938267 
" style="fill:none;opacity:0.7;stroke:#2ca02c;stroke-linecap:square;stroke-width:1.5;"/>
   </g>
   <g id="line2d_23">
    <path clip-path="url(#pf1435c61ea)" d="M 73.832727 252.360933 
L 81.949091 211.232901 
L 90.065455 197.194738 
L 98.181818 186.084864 
L 106.298182 182.553402 
L 114.414545 181.776837 
L 122.530909 180.67573 
L 130.647273 178.865445 
L 138.763636 178.717605 
L 146.88 176.652122 
L 154.996364 177.478162 
L 163.112727 175.426203 
L 171.229091 172.906437 
L 179.345455 171.246414 
L 187.461818 169.44517 
L 195.578182 169.243474 
L 203.694545 167.836128 
L 211.810909 166.988311 
L 219.927273 164.494592 
L 228.043636 165.230674 
L 236.16 164.592247 
L 244.276364 164.488759 
L 252.392727 166.793504 
L 260.509091 166.713751 
L 268.625455 166.010455 
L 276.741818 167.213541 
L 284.858182 164.720325 
L 292.974545 164.54649 
L 301.090909 166.369344 
L 309.207273 165.37429 
L 317.323636 164.935749 
L 325.44 166.407888 
L 333.556364 165.195977 
L 341.672727 164.998656 
L 349.789091 164.739634 
L 357.905455 164.664357 
L 366.021818 164.799204 
L 374.138182 163.802359 
L 382.254545 162.868553 
L 390.370909 164.151141 
L 398.487273 162.702158 
" style="fill:none;opacity:0.7;stroke:#d62728;stroke-linecap:square;stroke-width:1.5;"/>
   </g>
   <g id="patch_3">
    <path d="M 57.6 307.584 
L 57.6 41.472 
" style="fill:none;stroke:#000000;stroke-linecap:square;stroke-linejoin:miter;stroke-width:0.8;"/>
   </g>
   <g id="patch_4">
    <path d="M 414.72 307.584 
L 414.72 41.472 
" style="fill:none;stroke:#000000;stroke-linecap:square;stroke-linejoin:miter;stroke-width:0.8;"/>
   </g>
   <g id="patch_5">
    <path d="M 57.6 307.584 
L 414.72 307.584 
" style="fill:none;stroke:#000000;stroke-linecap:square;stroke-linejoin:miter;stroke-width:0.8;"/>
   </g>
   <g id="patch_6">
    <path d="M 57.6 41.472 
L 414.72 41.472 
" style="fill:none;stroke:#000000;stroke-linecap:square;stroke-linejoin:miter;stroke-width:0.8;"/>
   </g>
   <g id="text_22">
    <!-- Average Performance and Standard Error  -->
    <defs>
     <path d="M 34.1875 63.1875 
L 20.796875 26.90625 
L 47.609375 26.90625 
z
M 28.609375 72.90625 
L 39.796875 72.90625 
L 67.578125 0 
L 57.328125 0 
L 50.6875 18.703125 
L 17.828125 18.703125 
L 11.1875 0 
L 0.78125 0 
z
" id="DejaVuSans-41"/>
     <path d="M 45.40625 27.984375 
Q 45.40625 37.75 41.375 43.109375 
Q 37.359375 48.484375 30.078125 48.484375 
Q 22.859375 48.484375 18.828125 43.109375 
Q 14.796875 37.75 14.796875 27.984375 
Q 14.796875 18.265625 18.828125 12.890625 
Q 22.859375 7.515625 30.078125 7.515625 
Q 37.359375 7.515625 41.375 12.890625 
Q 45.40625 18.265625 45.40625 27.984375 
z
M 54.390625 6.78125 
Q 54.390625 -7.171875 48.1875 -13.984375 
Q 42 -20.796875 29.203125 -20.796875 
Q 24.46875 -20.796875 20.265625 -20.09375 
Q 16.0625 -19.390625 12.109375 -17.921875 
L 12.109375 -9.1875 
Q 16.0625 -11.328125 19.921875 -12.34375 
Q 23.78125 -13.375 27.78125 -13.375 
Q 36.625 -13.375 41.015625 -8.765625 
Q 45.40625 -4.15625 45.40625 5.171875 
L 45.40625 9.625 
Q 42.625 4.78125 38.28125 2.390625 
Q 33.9375 0 27.875 0 
Q 17.828125 0 11.671875 7.65625 
Q 5.515625 15.328125 5.515625 27.984375 
Q 5.515625 40.671875 11.671875 48.328125 
Q 17.828125 56 27.875 56 
Q 33.9375 56 38.28125 53.609375 
Q 42.625 51.21875 45.40625 46.390625 
L 45.40625 54.6875 
L 54.390625 54.6875 
z
" id="DejaVuSans-67"/>
     <path d="M 19.671875 64.796875 
L 19.671875 37.40625 
L 32.078125 37.40625 
Q 38.96875 37.40625 42.71875 40.96875 
Q 46.484375 44.53125 46.484375 51.125 
Q 46.484375 57.671875 42.71875 61.234375 
Q 38.96875 64.796875 32.078125 64.796875 
z
M 9.8125 72.90625 
L 32.078125 72.90625 
Q 44.34375 72.90625 50.609375 67.359375 
Q 56.890625 61.8125 56.890625 51.125 
Q 56.890625 40.328125 50.609375 34.8125 
Q 44.34375 29.296875 32.078125 29.296875 
L 19.671875 29.296875 
L 19.671875 0 
L 9.8125 0 
z
" id="DejaVuSans-50"/>
     <path d="M 37.109375 75.984375 
L 37.109375 68.5 
L 28.515625 68.5 
Q 23.6875 68.5 21.796875 66.546875 
Q 19.921875 64.59375 19.921875 59.515625 
L 19.921875 54.6875 
L 34.71875 54.6875 
L 34.71875 47.703125 
L 19.921875 47.703125 
L 19.921875 0 
L 10.890625 0 
L 10.890625 47.703125 
L 2.296875 47.703125 
L 2.296875 54.6875 
L 10.890625 54.6875 
L 10.890625 58.5 
Q 10.890625 67.625 15.140625 71.796875 
Q 19.390625 75.984375 28.609375 75.984375 
z
" id="DejaVuSans-66"/>
     <path d="M 54.890625 33.015625 
L 54.890625 0 
L 45.90625 0 
L 45.90625 32.71875 
Q 45.90625 40.484375 42.875 44.328125 
Q 39.84375 48.1875 33.796875 48.1875 
Q 26.515625 48.1875 22.3125 43.546875 
Q 18.109375 38.921875 18.109375 30.90625 
L 18.109375 0 
L 9.078125 0 
L 9.078125 54.6875 
L 18.109375 54.6875 
L 18.109375 46.1875 
Q 21.34375 51.125 25.703125 53.5625 
Q 30.078125 56 35.796875 56 
Q 45.21875 56 50.046875 50.171875 
Q 54.890625 44.34375 54.890625 33.015625 
z
" id="DejaVuSans-6e"/>
     <path d="M 48.78125 52.59375 
L 48.78125 44.1875 
Q 44.96875 46.296875 41.140625 47.34375 
Q 37.3125 48.390625 33.40625 48.390625 
Q 24.65625 48.390625 19.8125 42.84375 
Q 14.984375 37.3125 14.984375 27.296875 
Q 14.984375 17.28125 19.8125 11.734375 
Q 24.65625 6.203125 33.40625 6.203125 
Q 37.3125 6.203125 41.140625 7.25 
Q 44.96875 8.296875 48.78125 10.40625 
L 48.78125 2.09375 
Q 45.015625 0.34375 40.984375 -0.53125 
Q 36.96875 -1.421875 32.421875 -1.421875 
Q 20.0625 -1.421875 12.78125 6.34375 
Q 5.515625 14.109375 5.515625 27.296875 
Q 5.515625 40.671875 12.859375 48.328125 
Q 20.21875 56 33.015625 56 
Q 37.15625 56 41.109375 55.140625 
Q 45.0625 54.296875 48.78125 52.59375 
z
" id="DejaVuSans-63"/>
     <path d="M 53.515625 70.515625 
L 53.515625 60.890625 
Q 47.90625 63.578125 42.921875 64.890625 
Q 37.9375 66.21875 33.296875 66.21875 
Q 25.25 66.21875 20.875 63.09375 
Q 16.5 59.96875 16.5 54.203125 
Q 16.5 49.359375 19.40625 46.890625 
Q 22.3125 44.4375 30.421875 42.921875 
L 36.375 41.703125 
Q 47.40625 39.59375 52.65625 34.296875 
Q 57.90625 29 57.90625 20.125 
Q 57.90625 9.515625 50.796875 4.046875 
Q 43.703125 -1.421875 29.984375 -1.421875 
Q 24.8125 -1.421875 18.96875 -0.25 
Q 13.140625 0.921875 6.890625 3.21875 
L 6.890625 13.375 
Q 12.890625 10.015625 18.65625 8.296875 
Q 24.421875 6.59375 29.984375 6.59375 
Q 38.421875 6.59375 43.015625 9.90625 
Q 47.609375 13.234375 47.609375 19.390625 
Q 47.609375 24.75 44.3125 27.78125 
Q 41.015625 30.8125 33.5 32.328125 
L 27.484375 33.5 
Q 16.453125 35.6875 11.515625 40.375 
Q 6.59375 45.0625 6.59375 53.421875 
Q 6.59375 63.09375 13.40625 68.65625 
Q 20.21875 74.21875 32.171875 74.21875 
Q 37.3125 74.21875 42.625 73.28125 
Q 47.953125 72.359375 53.515625 70.515625 
z
" id="DejaVuSans-53"/>
    </defs>
    <g transform="translate(109.752188 22.034625)scale(0.12 -0.12)">
     <use xlink:href="#DejaVuSans-41"/>
     <use x="68.330078" xlink:href="#DejaVuSans-76"/>
     <use x="127.509766" xlink:href="#DejaVuSans-65"/>
     <use x="189.033203" xlink:href="#DejaVuSans-72"/>
     <use x="230.146484" xlink:href="#DejaVuSans-61"/>
     <use x="291.425781" xlink:href="#DejaVuSans-67"/>
     <use x="354.902344" xlink:href="#DejaVuSans-65"/>
     <use x="416.425781" xlink:href="#DejaVuSans-20"/>
     <use x="448.212891" xlink:href="#DejaVuSans-50"/>
     <use x="508.46875" xlink:href="#DejaVuSans-65"/>
     <use x="569.992188" xlink:href="#DejaVuSans-72"/>
     <use x="611.105469" xlink:href="#DejaVuSans-66"/>
     <use x="646.310547" xlink:href="#DejaVuSans-6f"/>
     <use x="707.492188" xlink:href="#DejaVuSans-72"/>
     <use x="748.589844" xlink:href="#DejaVuSans-6d"/>
     <use x="846.001953" xlink:href="#DejaVuSans-61"/>
     <use x="907.28125" xlink:href="#DejaVuSans-6e"/>
     <use x="970.660156" xlink:href="#DejaVuSans-63"/>
     <use x="1025.640625" xlink:href="#DejaVuSans-65"/>
     <use x="1087.164062" xlink:href="#DejaVuSans-20"/>
     <use x="1118.951172" xlink:href="#DejaVuSans-61"/>
     <use x="1180.230469" xlink:href="#DejaVuSans-6e"/>
     <use x="1243.609375" xlink:href="#DejaVuSans-64"/>
     <use x="1307.085938" xlink:href="#DejaVuSans-20"/>
     <use x="1338.873047" xlink:href="#DejaVuSans-53"/>
     <use x="1402.349609" xlink:href="#DejaVuSans-74"/>
     <use x="1441.558594" xlink:href="#DejaVuSans-61"/>
     <use x="1502.837891" xlink:href="#DejaVuSans-6e"/>
     <use x="1566.216797" xlink:href="#DejaVuSans-64"/>
     <use x="1629.693359" xlink:href="#DejaVuSans-61"/>
     <use x="1690.972656" xlink:href="#DejaVuSans-72"/>
     <use x="1732.070312" xlink:href="#DejaVuSans-64"/>
     <use x="1795.546875" xlink:href="#DejaVuSans-20"/>
     <use x="1827.333984" xlink:href="#DejaVuSans-45"/>
     <use x="1890.517578" xlink:href="#DejaVuSans-72"/>
     <use x="1931.615234" xlink:href="#DejaVuSans-72"/>
     <use x="1972.697266" xlink:href="#DejaVuSans-6f"/>
     <use x="2033.878906" xlink:href="#DejaVuSans-72"/>
     <use x="2074.992188" xlink:href="#DejaVuSans-20"/>
    </g>
    <!-- with DistQL-ALL tau 10 in CartPole-v1 -->
    <defs>
     <path d="M 54.890625 33.015625 
L 54.890625 0 
L 45.90625 0 
L 45.90625 32.71875 
Q 45.90625 40.484375 42.875 44.328125 
Q 39.84375 48.1875 33.796875 48.1875 
Q 26.515625 48.1875 22.3125 43.546875 
Q 18.109375 38.921875 18.109375 30.90625 
L 18.109375 0 
L 9.078125 0 
L 9.078125 75.984375 
L 18.109375 75.984375 
L 18.109375 46.1875 
Q 21.34375 51.125 25.703125 53.5625 
Q 30.078125 56 35.796875 56 
Q 45.21875 56 50.046875 50.171875 
Q 54.890625 44.34375 54.890625 33.015625 
z
" id="DejaVuSans-68"/>
     <path d="M 19.671875 64.796875 
L 19.671875 8.109375 
L 31.59375 8.109375 
Q 46.6875 8.109375 53.6875 14.9375 
Q 60.6875 21.78125 60.6875 36.53125 
Q 60.6875 51.171875 53.6875 57.984375 
Q 46.6875 64.796875 31.59375 64.796875 
z
M 9.8125 72.90625 
L 30.078125 72.90625 
Q 51.265625 72.90625 61.171875 64.09375 
Q 71.09375 55.28125 71.09375 36.53125 
Q 71.09375 17.671875 61.125 8.828125 
Q 51.171875 0 30.078125 0 
L 9.8125 0 
z
" id="DejaVuSans-44"/>
     <path d="M 39.40625 66.21875 
Q 28.65625 66.21875 22.328125 58.203125 
Q 16.015625 50.203125 16.015625 36.375 
Q 16.015625 22.609375 22.328125 14.59375 
Q 28.65625 6.59375 39.40625 6.59375 
Q 50.140625 6.59375 56.421875 14.59375 
Q 62.703125 22.609375 62.703125 36.375 
Q 62.703125 50.203125 56.421875 58.203125 
Q 50.140625 66.21875 39.40625 66.21875 
z
M 53.21875 1.3125 
L 66.21875 -12.890625 
L 54.296875 -12.890625 
L 43.5 -1.21875 
Q 41.890625 -1.3125 41.03125 -1.359375 
Q 40.1875 -1.421875 39.40625 -1.421875 
Q 24.03125 -1.421875 14.8125 8.859375 
Q 5.609375 19.140625 5.609375 36.375 
Q 5.609375 53.65625 14.8125 63.9375 
Q 24.03125 74.21875 39.40625 74.21875 
Q 54.734375 74.21875 63.90625 63.9375 
Q 73.09375 53.65625 73.09375 36.375 
Q 73.09375 23.6875 67.984375 14.640625 
Q 62.890625 5.609375 53.21875 1.3125 
z
" id="DejaVuSans-51"/>
     <path d="M 9.8125 72.90625 
L 19.671875 72.90625 
L 19.671875 8.296875 
L 55.171875 8.296875 
L 55.171875 0 
L 9.8125 0 
z
" id="DejaVuSans-4c"/>
     <path d="M 4.890625 31.390625 
L 31.203125 31.390625 
L 31.203125 23.390625 
L 4.890625 23.390625 
z
" id="DejaVuSans-2d"/>
    </defs>
    <g transform="translate(123.315938 35.472)scale(0.12 -0.12)">
     <use xlink:href="#DejaVuSans-77"/>
     <use x="81.787109" xlink:href="#DejaVuSans-69"/>
     <use x="109.570312" xlink:href="#DejaVuSans-74"/>
     <use x="148.779297" xlink:href="#DejaVuSans-68"/>
     <use x="212.158203" xlink:href="#DejaVuSans-20"/>
     <use x="243.945312" xlink:href="#DejaVuSans-44"/>
     <use x="320.947266" xlink:href="#DejaVuSans-69"/>
     <use x="348.730469" xlink:href="#DejaVuSans-73"/>
     <use x="400.830078" xlink:href="#DejaVuSans-74"/>
     <use x="440.039062" xlink:href="#DejaVuSans-51"/>
     <use x="518.75" xlink:href="#DejaVuSans-4c"/>
     <use x="574.447266" xlink:href="#DejaVuSans-2d"/>
     <use x="610.5" xlink:href="#DejaVuSans-41"/>
     <use x="678.908203" xlink:href="#DejaVuSans-4c"/>
     <use x="734.621094" xlink:href="#DejaVuSans-4c"/>
     <use x="790.333984" xlink:href="#DejaVuSans-20"/>
     <use x="822.121094" xlink:href="#DejaVuSans-74"/>
     <use x="861.330078" xlink:href="#DejaVuSans-61"/>
     <use x="922.609375" xlink:href="#DejaVuSans-75"/>
     <use x="985.988281" xlink:href="#DejaVuSans-20"/>
     <use x="1017.775391" xlink:href="#DejaVuSans-31"/>
     <use x="1081.398438" xlink:href="#DejaVuSans-30"/>
     <use x="1145.021484" xlink:href="#DejaVuSans-20"/>
     <use x="1176.808594" xlink:href="#DejaVuSans-69"/>
     <use x="1204.591797" xlink:href="#DejaVuSans-6e"/>
     <use x="1267.970703" xlink:href="#DejaVuSans-20"/>
     <use x="1299.757812" xlink:href="#DejaVuSans-43"/>
     <use x="1369.582031" xlink:href="#DejaVuSans-61"/>
     <use x="1430.861328" xlink:href="#DejaVuSans-72"/>
     <use x="1471.974609" xlink:href="#DejaVuSans-74"/>
     <use x="1511.183594" xlink:href="#DejaVuSans-50"/>
     <use x="1571.439453" xlink:href="#DejaVuSans-6f"/>
     <use x="1632.621094" xlink:href="#DejaVuSans-6c"/>
     <use x="1660.404297" xlink:href="#DejaVuSans-65"/>
     <use x="1721.927734" xlink:href="#DejaVuSans-2d"/>
     <use x="1757.980469" xlink:href="#DejaVuSans-76"/>
     <use x="1817.160156" xlink:href="#DejaVuSans-31"/>
    </g>
   </g>
   <g id="legend_1">
    <g id="patch_7">
     <path d="M 332.0825 302.584 
L 407.72 302.584 
Q 409.72 302.584 409.72 300.584 
L 409.72 242.8715 
Q 409.72 240.8715 407.72 240.8715 
L 332.0825 240.8715 
Q 330.0825 240.8715 330.0825 242.8715 
L 330.0825 300.584 
Q 330.0825 302.584 332.0825 302.584 
z
" style="fill:#ffffff;opacity:0.8;stroke:#cccccc;stroke-linejoin:miter;"/>
    </g>
    <g id="line2d_24">
     <path d="M 334.0825 248.969937 
L 354.0825 248.969937 
" style="fill:none;opacity:0.7;stroke:#1f77b4;stroke-linecap:square;stroke-width:1.5;"/>
    </g>
    <g id="line2d_25"/>
    <g id="text_23">
     <!-- 1 agent -->
     <g transform="translate(362.0825 252.469937)scale(0.1 -0.1)">
      <use xlink:href="#DejaVuSans-31"/>
      <use x="63.623047" xlink:href="#DejaVuSans-20"/>
      <use x="95.410156" xlink:href="#DejaVuSans-61"/>
      <use x="156.689453" xlink:href="#DejaVuSans-67"/>
      <use x="220.166016" xlink:href="#DejaVuSans-65"/>
      <use x="281.689453" xlink:href="#DejaVuSans-6e"/>
      <use x="345.068359" xlink:href="#DejaVuSans-74"/>
     </g>
    </g>
    <g id="line2d_26">
     <path d="M 334.0825 263.648062 
L 354.0825 263.648062 
" style="fill:none;opacity:0.7;stroke:#ff7f0e;stroke-linecap:square;stroke-width:1.5;"/>
    </g>
    <g id="line2d_27"/>
    <g id="text_24">
     <!-- 2 agents -->
     <g transform="translate(362.0825 267.148062)scale(0.1 -0.1)">
      <use xlink:href="#DejaVuSans-32"/>
      <use x="63.623047" xlink:href="#DejaVuSans-20"/>
      <use x="95.410156" xlink:href="#DejaVuSans-61"/>
      <use x="156.689453" xlink:href="#DejaVuSans-67"/>
      <use x="220.166016" xlink:href="#DejaVuSans-65"/>
      <use x="281.689453" xlink:href="#DejaVuSans-6e"/>
      <use x="345.068359" xlink:href="#DejaVuSans-74"/>
      <use x="384.277344" xlink:href="#DejaVuSans-73"/>
     </g>
    </g>
    <g id="line2d_28">
     <path d="M 334.0825 278.326187 
L 354.0825 278.326187 
" style="fill:none;opacity:0.7;stroke:#2ca02c;stroke-linecap:square;stroke-width:1.5;"/>
    </g>
    <g id="line2d_29"/>
    <g id="text_25">
     <!-- 4 agents -->
     <defs>
      <path d="M 37.796875 64.3125 
L 12.890625 25.390625 
L 37.796875 25.390625 
z
M 35.203125 72.90625 
L 47.609375 72.90625 
L 47.609375 25.390625 
L 58.015625 25.390625 
L 58.015625 17.1875 
L 47.609375 17.1875 
L 47.609375 0 
L 37.796875 0 
L 37.796875 17.1875 
L 4.890625 17.1875 
L 4.890625 26.703125 
z
" id="DejaVuSans-34"/>
     </defs>
     <g transform="translate(362.0825 281.826187)scale(0.1 -0.1)">
      <use xlink:href="#DejaVuSans-34"/>
      <use x="63.623047" xlink:href="#DejaVuSans-20"/>
      <use x="95.410156" xlink:href="#DejaVuSans-61"/>
      <use x="156.689453" xlink:href="#DejaVuSans-67"/>
      <use x="220.166016" xlink:href="#DejaVuSans-65"/>
      <use x="281.689453" xlink:href="#DejaVuSans-6e"/>
      <use x="345.068359" xlink:href="#DejaVuSans-74"/>
      <use x="384.277344" xlink:href="#DejaVuSans-73"/>
     </g>
    </g>
    <g id="line2d_30">
     <path d="M 334.0825 293.004312 
L 354.0825 293.004312 
" style="fill:none;opacity:0.7;stroke:#d62728;stroke-linecap:square;stroke-width:1.5;"/>
    </g>
    <g id="line2d_31"/>
    <g id="text_26">
     <!-- 8 agents -->
     <defs>
      <path d="M 31.78125 34.625 
Q 24.75 34.625 20.71875 30.859375 
Q 16.703125 27.09375 16.703125 20.515625 
Q 16.703125 13.921875 20.71875 10.15625 
Q 24.75 6.390625 31.78125 6.390625 
Q 38.8125 6.390625 42.859375 10.171875 
Q 46.921875 13.96875 46.921875 20.515625 
Q 46.921875 27.09375 42.890625 30.859375 
Q 38.875 34.625 31.78125 34.625 
z
M 21.921875 38.8125 
Q 15.578125 40.375 12.03125 44.71875 
Q 8.5 49.078125 8.5 55.328125 
Q 8.5 64.0625 14.71875 69.140625 
Q 20.953125 74.21875 31.78125 74.21875 
Q 42.671875 74.21875 48.875 69.140625 
Q 55.078125 64.0625 55.078125 55.328125 
Q 55.078125 49.078125 51.53125 44.71875 
Q 48 40.375 41.703125 38.8125 
Q 48.828125 37.15625 52.796875 32.3125 
Q 56.78125 27.484375 56.78125 20.515625 
Q 56.78125 9.90625 50.3125 4.234375 
Q 43.84375 -1.421875 31.78125 -1.421875 
Q 19.734375 -1.421875 13.25 4.234375 
Q 6.78125 9.90625 6.78125 20.515625 
Q 6.78125 27.484375 10.78125 32.3125 
Q 14.796875 37.15625 21.921875 38.8125 
z
M 18.3125 54.390625 
Q 18.3125 48.734375 21.84375 45.5625 
Q 25.390625 42.390625 31.78125 42.390625 
Q 38.140625 42.390625 41.71875 45.5625 
Q 45.3125 48.734375 45.3125 54.390625 
Q 45.3125 60.0625 41.71875 63.234375 
Q 38.140625 66.40625 31.78125 66.40625 
Q 25.390625 66.40625 21.84375 63.234375 
Q 18.3125 60.0625 18.3125 54.390625 
z
" id="DejaVuSans-38"/>
     </defs>
     <g transform="translate(362.0825 296.504312)scale(0.1 -0.1)">
      <use xlink:href="#DejaVuSans-38"/>
      <use x="63.623047" xlink:href="#DejaVuSans-20"/>
      <use x="95.410156" xlink:href="#DejaVuSans-61"/>
      <use x="156.689453" xlink:href="#DejaVuSans-67"/>
      <use x="220.166016" xlink:href="#DejaVuSans-65"/>
      <use x="281.689453" xlink:href="#DejaVuSans-6e"/>
      <use x="345.068359" xlink:href="#DejaVuSans-74"/>
      <use x="384.277344" xlink:href="#DejaVuSans-73"/>
     </g>
    </g>
   </g>
  </g>
 </g>
 <defs>
  <clipPath id="pf1435c61ea">
   <rect height="266.112" width="357.12" x="57.6" y="41.472"/>
  </clipPath>
 </defs>
</svg>
