<?xml version="1.0" encoding="utf-8" standalone="no"?>
<!DOCTYPE svg PUBLIC "-//W3C//DTD SVG 1.1//EN"
  "http://www.w3.org/Graphics/SVG/1.1/DTD/svg11.dtd">
<!-- Created with matplotlib (http://matplotlib.org/) -->
<svg height="345.6pt" version="1.1" viewBox="0 0 460.8 345.6" width="460.8pt" xmlns="http://www.w3.org/2000/svg" xmlns:xlink="http://www.w3.org/1999/xlink">
 <defs>
  <style type="text/css">
*{stroke-linecap:butt;stroke-linejoin:round;}
  </style>
 </defs>
 <g id="figure_1">
  <g id="patch_1">
   <path d="M 0 345.6 
L 460.8 345.6 
L 460.8 0 
L 0 0 
z
" style="fill:#ffffff;"/>
  </g>
  <g id="axes_1">
   <g id="patch_2">
    <path d="M 57.6 307.584 
L 414.72 307.584 
L 414.72 41.472 
L 57.6 41.472 
z
" style="fill:#ffffff;"/>
   </g>
   <g id="PolyCollection_1">
    <path clip-path="url(#p1dc3fddba2)" d="M 73.832727 213.602534 
L 73.832727 175.931881 
L 81.949091 143.741847 
L 90.065455 134.705958 
L 98.181818 128.370616 
L 106.298182 119.129812 
L 114.414545 113.003546 
L 122.530909 106.880042 
L 130.647273 96.543615 
L 138.763636 92.328682 
L 146.88 87.079301 
L 154.996364 84.13659 
L 163.112727 75.244394 
L 171.229091 71.165092 
L 179.345455 67.489972 
L 187.461818 63.219645 
L 195.578182 63.721123 
L 203.694545 62.964547 
L 211.810909 60.548875 
L 219.927273 60.152974 
L 228.043636 58.937317 
L 236.16 57.558594 
L 244.276364 57.41086 
L 252.392727 56.859205 
L 260.509091 55.881752 
L 268.625455 55.616412 
L 276.741818 55.339696 
L 284.858182 55.492018 
L 292.974545 55.298359 
L 301.090909 55.195898 
L 309.207273 55.086563 
L 317.323636 55.102907 
L 325.44 55.045296 
L 333.556364 54.842512 
L 341.672727 54.924097 
L 349.789091 54.85424 
L 357.905455 54.800943 
L 366.021818 54.877739 
L 374.138182 54.854921 
L 382.254545 54.7695 
L 390.370909 54.882421 
L 398.487273 54.960902 
L 398.487273 55.824867 
L 398.487273 55.824867 
L 390.370909 55.99663 
L 382.254545 55.597134 
L 374.138182 55.731503 
L 366.021818 56.032806 
L 357.905455 55.628305 
L 349.789091 55.957086 
L 341.672727 55.980512 
L 333.556364 55.76308 
L 325.44 56.118316 
L 317.323636 57.781089 
L 309.207273 58.224234 
L 301.090909 60.837996 
L 292.974545 59.779969 
L 284.858182 61.056848 
L 276.741818 59.360123 
L 268.625455 61.152244 
L 260.509091 63.934574 
L 252.392727 67.38042 
L 244.276364 67.594809 
L 236.16 68.600973 
L 228.043636 73.3457 
L 219.927273 74.690693 
L 211.810909 76.013659 
L 203.694545 79.059512 
L 195.578182 80.347493 
L 187.461818 80.897529 
L 179.345455 86.405487 
L 171.229091 92.269322 
L 163.112727 96.718383 
L 154.996364 107.995751 
L 146.88 109.585836 
L 138.763636 114.973001 
L 130.647273 119.991804 
L 122.530909 129.269077 
L 114.414545 133.10257 
L 106.298182 137.500533 
L 98.181818 146.213637 
L 90.065455 154.756288 
L 81.949091 169.938188 
L 73.832727 213.602534 
z
" style="fill:#1f77b4;fill-opacity:0.3;"/>
   </g>
   <g id="PolyCollection_2">
    <path clip-path="url(#p1dc3fddba2)" d="M 73.832727 207.719489 
L 73.832727 180.761978 
L 81.949091 146.133423 
L 90.065455 127.259542 
L 98.181818 118.08826 
L 106.298182 103.623857 
L 114.414545 93.149013 
L 122.530909 83.747545 
L 130.647273 70.596427 
L 138.763636 65.395823 
L 146.88 60.544018 
L 154.996364 58.209256 
L 163.112727 56.77711 
L 171.229091 56.085809 
L 179.345455 55.785456 
L 187.461818 55.492423 
L 195.578182 55.484593 
L 203.694545 55.238156 
L 211.810909 55.21233 
L 219.927273 55.109698 
L 228.043636 55.088243 
L 236.16 55.075357 
L 244.276364 55.029475 
L 252.392727 54.995117 
L 260.509091 54.9354 
L 268.625455 54.897594 
L 276.741818 54.886093 
L 284.858182 54.858855 
L 292.974545 54.872186 
L 301.090909 54.880746 
L 309.207273 54.826761 
L 317.323636 54.827498 
L 325.44 54.855117 
L 333.556364 54.761733 
L 341.672727 54.858905 
L 349.789091 54.740677 
L 357.905455 54.753152 
L 366.021818 54.719932 
L 374.138182 54.754887 
L 382.254545 54.704706 
L 390.370909 54.735847 
L 398.487273 54.737996 
L 398.487273 55.229949 
L 398.487273 55.229949 
L 390.370909 55.276184 
L 382.254545 55.247905 
L 374.138182 55.296757 
L 366.021818 55.233784 
L 357.905455 55.279964 
L 349.789091 55.229185 
L 341.672727 55.464282 
L 333.556364 55.374888 
L 325.44 55.445588 
L 317.323636 55.406879 
L 309.207273 55.441479 
L 301.090909 55.503139 
L 292.974545 55.517875 
L 284.858182 55.463054 
L 276.741818 55.53485 
L 268.625455 55.59363 
L 260.509091 55.610133 
L 252.392727 55.662361 
L 244.276364 55.798462 
L 236.16 55.857364 
L 228.043636 55.905176 
L 219.927273 55.949557 
L 211.810909 56.090967 
L 203.694545 56.134783 
L 195.578182 56.585413 
L 187.461818 57.040164 
L 179.345455 57.647283 
L 171.229091 59.021005 
L 163.112727 60.416431 
L 154.996364 64.199185 
L 146.88 69.705956 
L 138.763636 77.084428 
L 130.647273 84.6687 
L 122.530909 100.860184 
L 114.414545 110.271205 
L 106.298182 121.568095 
L 98.181818 134.649252 
L 90.065455 142.149424 
L 81.949091 168.289042 
L 73.832727 207.719489 
z
" style="fill:#ff7f0e;fill-opacity:0.3;"/>
   </g>
   <g id="PolyCollection_3">
    <path clip-path="url(#p1dc3fddba2)" d="M 73.832727 205.298765 
L 73.832727 184.450967 
L 81.949091 147.866625 
L 90.065455 119.56617 
L 98.181818 107.089037 
L 106.298182 88.373563 
L 114.414545 73.081974 
L 122.530909 62.902815 
L 130.647273 58.759147 
L 138.763636 56.718208 
L 146.88 56.14 
L 154.996364 55.762624 
L 163.112727 55.518641 
L 171.229091 55.445727 
L 179.345455 55.340032 
L 187.461818 55.220219 
L 195.578182 55.21139 
L 203.694545 55.144826 
L 211.810909 55.055576 
L 219.927273 55.034588 
L 228.043636 55.042241 
L 236.16 55.036859 
L 244.276364 55.038184 
L 252.392727 54.904075 
L 260.509091 54.943118 
L 268.625455 54.900324 
L 276.741818 54.865614 
L 284.858182 54.885263 
L 292.974545 54.865842 
L 301.090909 54.764567 
L 309.207273 54.836387 
L 317.323636 54.809926 
L 325.44 54.86337 
L 333.556364 54.735296 
L 341.672727 54.773682 
L 349.789091 54.783131 
L 357.905455 54.776515 
L 366.021818 54.717624 
L 374.138182 54.735702 
L 382.254545 54.703237 
L 390.370909 54.653303 
L 398.487273 54.688851 
L 398.487273 55.042373 
L 398.487273 55.042373 
L 390.370909 55.018182 
L 382.254545 55.041085 
L 374.138182 55.124904 
L 366.021818 55.089665 
L 357.905455 55.16204 
L 349.789091 55.188009 
L 341.672727 55.165511 
L 333.556364 55.120517 
L 325.44 55.264819 
L 317.323636 55.19348 
L 309.207273 55.262218 
L 301.090909 55.173988 
L 292.974545 55.291045 
L 284.858182 55.293846 
L 276.741818 55.296883 
L 268.625455 55.392514 
L 260.509091 55.405626 
L 252.392727 55.360105 
L 244.276364 55.519807 
L 236.16 55.542856 
L 228.043636 55.553767 
L 219.927273 55.522446 
L 211.810909 55.595379 
L 203.694545 55.715057 
L 195.578182 55.749124 
L 187.461818 55.806105 
L 179.345455 55.965767 
L 171.229091 56.098125 
L 163.112727 56.28142 
L 154.996364 56.643137 
L 146.88 57.325351 
L 138.763636 58.753112 
L 130.647273 62.546511 
L 122.530909 69.710207 
L 114.414545 83.199043 
L 106.298182 99.568905 
L 98.181818 119.286137 
L 90.065455 131.219748 
L 81.949091 161.992962 
L 73.832727 205.298765 
z
" style="fill:#2ca02c;fill-opacity:0.3;"/>
   </g>
   <g id="PolyCollection_4">
    <path clip-path="url(#p1dc3fddba2)" d="M 73.832727 200.426646 
L 73.832727 185.485707 
L 81.949091 149.682811 
L 90.065455 112.467428 
L 98.181818 95.420997 
L 106.298182 72.208156 
L 114.414545 63.523564 
L 122.530909 58.277907 
L 130.647273 57.074541 
L 138.763636 55.992321 
L 146.88 55.740447 
L 154.996364 55.415379 
L 163.112727 55.334157 
L 171.229091 55.303568 
L 179.345455 55.212814 
L 187.461818 55.204191 
L 195.578182 55.130035 
L 203.694545 55.041633 
L 211.810909 54.980822 
L 219.927273 54.980166 
L 228.043636 54.986083 
L 236.16 54.943519 
L 244.276364 54.916322 
L 252.392727 54.918611 
L 260.509091 54.847916 
L 268.625455 54.860255 
L 276.741818 54.813854 
L 284.858182 54.827754 
L 292.974545 54.820215 
L 301.090909 54.739552 
L 309.207273 54.763552 
L 317.323636 54.736181 
L 325.44 54.713233 
L 333.556364 54.723856 
L 341.672727 54.691775 
L 349.789091 54.664054 
L 357.905455 54.664808 
L 366.021818 54.682567 
L 374.138182 54.64392 
L 382.254545 54.653593 
L 390.370909 54.63165 
L 398.487273 54.630601 
L 398.487273 54.868054 
L 398.487273 54.868054 
L 390.370909 54.886811 
L 382.254545 54.900169 
L 374.138182 54.883806 
L 366.021818 54.925138 
L 357.905455 54.922178 
L 349.789091 54.915425 
L 341.672727 54.954312 
L 333.556364 54.99986 
L 325.44 54.982198 
L 317.323636 55.009578 
L 309.207273 55.067983 
L 301.090909 55.034639 
L 292.974545 55.11002 
L 284.858182 55.110002 
L 276.741818 55.116874 
L 268.625455 55.165354 
L 260.509091 55.180088 
L 252.392727 55.231427 
L 244.276364 55.250808 
L 236.16 55.299323 
L 228.043636 55.312825 
L 219.927273 55.334236 
L 211.810909 55.301793 
L 203.694545 55.388095 
L 195.578182 55.519004 
L 187.461818 55.592279 
L 179.345455 55.611636 
L 171.229091 55.719241 
L 163.112727 55.735293 
L 154.996364 55.889834 
L 146.88 56.377549 
L 138.763636 57.069137 
L 130.647273 59.152148 
L 122.530909 61.333963 
L 114.414545 67.840201 
L 106.298182 78.471946 
L 98.181818 103.585052 
L 90.065455 120.464227 
L 81.949091 159.821215 
L 73.832727 200.426646 
z
" style="fill:#d62728;fill-opacity:0.3;"/>
   </g>
   <g id="matplotlib.axis_1">
    <g id="xtick_1">
     <g id="line2d_1">
      <defs>
       <path d="M 0 0 
L 0 3.5 
" id="m339412b04e" style="stroke:#000000;stroke-width:0.8;"/>
      </defs>
      <g>
       <use style="stroke:#000000;stroke-width:0.8;" x="73.832727" xlink:href="#m339412b04e" y="307.584"/>
      </g>
     </g>
     <g id="text_1">
      <!-- 0 -->
      <defs>
       <path d="M 31.78125 66.40625 
Q 24.171875 66.40625 20.328125 58.90625 
Q 16.5 51.421875 16.5 36.375 
Q 16.5 21.390625 20.328125 13.890625 
Q 24.171875 6.390625 31.78125 6.390625 
Q 39.453125 6.390625 43.28125 13.890625 
Q 47.125 21.390625 47.125 36.375 
Q 47.125 51.421875 43.28125 58.90625 
Q 39.453125 66.40625 31.78125 66.40625 
z
M 31.78125 74.21875 
Q 44.046875 74.21875 50.515625 64.515625 
Q 56.984375 54.828125 56.984375 36.375 
Q 56.984375 17.96875 50.515625 8.265625 
Q 44.046875 -1.421875 31.78125 -1.421875 
Q 19.53125 -1.421875 13.0625 8.265625 
Q 6.59375 17.96875 6.59375 36.375 
Q 6.59375 54.828125 13.0625 64.515625 
Q 19.53125 74.21875 31.78125 74.21875 
z
" id="DejaVuSans-30"/>
      </defs>
      <g transform="translate(70.651477 322.182437)scale(0.1 -0.1)">
       <use xlink:href="#DejaVuSans-30"/>
      </g>
     </g>
    </g>
    <g id="xtick_2">
     <g id="line2d_2">
      <g>
       <use style="stroke:#000000;stroke-width:0.8;" x="114.414545" xlink:href="#m339412b04e" y="307.584"/>
      </g>
     </g>
     <g id="text_2">
      <!-- 250 -->
      <defs>
       <path d="M 19.1875 8.296875 
L 53.609375 8.296875 
L 53.609375 0 
L 7.328125 0 
L 7.328125 8.296875 
Q 12.9375 14.109375 22.625 23.890625 
Q 32.328125 33.6875 34.8125 36.53125 
Q 39.546875 41.84375 41.421875 45.53125 
Q 43.3125 49.21875 43.3125 52.78125 
Q 43.3125 58.59375 39.234375 62.25 
Q 35.15625 65.921875 28.609375 65.921875 
Q 23.96875 65.921875 18.8125 64.3125 
Q 13.671875 62.703125 7.8125 59.421875 
L 7.8125 69.390625 
Q 13.765625 71.78125 18.9375 73 
Q 24.125 74.21875 28.421875 74.21875 
Q 39.75 74.21875 46.484375 68.546875 
Q 53.21875 62.890625 53.21875 53.421875 
Q 53.21875 48.921875 51.53125 44.890625 
Q 49.859375 40.875 45.40625 35.40625 
Q 44.1875 33.984375 37.640625 27.21875 
Q 31.109375 20.453125 19.1875 8.296875 
z
" id="DejaVuSans-32"/>
       <path d="M 10.796875 72.90625 
L 49.515625 72.90625 
L 49.515625 64.59375 
L 19.828125 64.59375 
L 19.828125 46.734375 
Q 21.96875 47.46875 24.109375 47.828125 
Q 26.265625 48.1875 28.421875 48.1875 
Q 40.625 48.1875 47.75 41.5 
Q 54.890625 34.8125 54.890625 23.390625 
Q 54.890625 11.625 47.5625 5.09375 
Q 40.234375 -1.421875 26.90625 -1.421875 
Q 22.3125 -1.421875 17.546875 -0.640625 
Q 12.796875 0.140625 7.71875 1.703125 
L 7.71875 11.625 
Q 12.109375 9.234375 16.796875 8.0625 
Q 21.484375 6.890625 26.703125 6.890625 
Q 35.15625 6.890625 40.078125 11.328125 
Q 45.015625 15.765625 45.015625 23.390625 
Q 45.015625 31 40.078125 35.4375 
Q 35.15625 39.890625 26.703125 39.890625 
Q 22.75 39.890625 18.8125 39.015625 
Q 14.890625 38.140625 10.796875 36.28125 
z
" id="DejaVuSans-35"/>
      </defs>
      <g transform="translate(104.870795 322.182437)scale(0.1 -0.1)">
       <use xlink:href="#DejaVuSans-32"/>
       <use x="63.623047" xlink:href="#DejaVuSans-35"/>
       <use x="127.246094" xlink:href="#DejaVuSans-30"/>
      </g>
     </g>
    </g>
    <g id="xtick_3">
     <g id="line2d_3">
      <g>
       <use style="stroke:#000000;stroke-width:0.8;" x="154.996364" xlink:href="#m339412b04e" y="307.584"/>
      </g>
     </g>
     <g id="text_3">
      <!-- 500 -->
      <g transform="translate(145.452614 322.182437)scale(0.1 -0.1)">
       <use xlink:href="#DejaVuSans-35"/>
       <use x="63.623047" xlink:href="#DejaVuSans-30"/>
       <use x="127.246094" xlink:href="#DejaVuSans-30"/>
      </g>
     </g>
    </g>
    <g id="xtick_4">
     <g id="line2d_4">
      <g>
       <use style="stroke:#000000;stroke-width:0.8;" x="195.578182" xlink:href="#m339412b04e" y="307.584"/>
      </g>
     </g>
     <g id="text_4">
      <!-- 750 -->
      <defs>
       <path d="M 8.203125 72.90625 
L 55.078125 72.90625 
L 55.078125 68.703125 
L 28.609375 0 
L 18.3125 0 
L 43.21875 64.59375 
L 8.203125 64.59375 
z
" id="DejaVuSans-37"/>
      </defs>
      <g transform="translate(186.034432 322.182437)scale(0.1 -0.1)">
       <use xlink:href="#DejaVuSans-37"/>
       <use x="63.623047" xlink:href="#DejaVuSans-35"/>
       <use x="127.246094" xlink:href="#DejaVuSans-30"/>
      </g>
     </g>
    </g>
    <g id="xtick_5">
     <g id="line2d_5">
      <g>
       <use style="stroke:#000000;stroke-width:0.8;" x="236.16" xlink:href="#m339412b04e" y="307.584"/>
      </g>
     </g>
     <g id="text_5">
      <!-- 1000 -->
      <defs>
       <path d="M 12.40625 8.296875 
L 28.515625 8.296875 
L 28.515625 63.921875 
L 10.984375 60.40625 
L 10.984375 69.390625 
L 28.421875 72.90625 
L 38.28125 72.90625 
L 38.28125 8.296875 
L 54.390625 8.296875 
L 54.390625 0 
L 12.40625 0 
z
" id="DejaVuSans-31"/>
      </defs>
      <g transform="translate(223.435 322.182437)scale(0.1 -0.1)">
       <use xlink:href="#DejaVuSans-31"/>
       <use x="63.623047" xlink:href="#DejaVuSans-30"/>
       <use x="127.246094" xlink:href="#DejaVuSans-30"/>
       <use x="190.869141" xlink:href="#DejaVuSans-30"/>
      </g>
     </g>
    </g>
    <g id="xtick_6">
     <g id="line2d_6">
      <g>
       <use style="stroke:#000000;stroke-width:0.8;" x="276.741818" xlink:href="#m339412b04e" y="307.584"/>
      </g>
     </g>
     <g id="text_6">
      <!-- 1250 -->
      <g transform="translate(264.016818 322.182437)scale(0.1 -0.1)">
       <use xlink:href="#DejaVuSans-31"/>
       <use x="63.623047" xlink:href="#DejaVuSans-32"/>
       <use x="127.246094" xlink:href="#DejaVuSans-35"/>
       <use x="190.869141" xlink:href="#DejaVuSans-30"/>
      </g>
     </g>
    </g>
    <g id="xtick_7">
     <g id="line2d_7">
      <g>
       <use style="stroke:#000000;stroke-width:0.8;" x="317.323636" xlink:href="#m339412b04e" y="307.584"/>
      </g>
     </g>
     <g id="text_7">
      <!-- 1500 -->
      <g transform="translate(304.598636 322.182437)scale(0.1 -0.1)">
       <use xlink:href="#DejaVuSans-31"/>
       <use x="63.623047" xlink:href="#DejaVuSans-35"/>
       <use x="127.246094" xlink:href="#DejaVuSans-30"/>
       <use x="190.869141" xlink:href="#DejaVuSans-30"/>
      </g>
     </g>
    </g>
    <g id="xtick_8">
     <g id="line2d_8">
      <g>
       <use style="stroke:#000000;stroke-width:0.8;" x="357.905455" xlink:href="#m339412b04e" y="307.584"/>
      </g>
     </g>
     <g id="text_8">
      <!-- 1750 -->
      <g transform="translate(345.180455 322.182437)scale(0.1 -0.1)">
       <use xlink:href="#DejaVuSans-31"/>
       <use x="63.623047" xlink:href="#DejaVuSans-37"/>
       <use x="127.246094" xlink:href="#DejaVuSans-35"/>
       <use x="190.869141" xlink:href="#DejaVuSans-30"/>
      </g>
     </g>
    </g>
    <g id="xtick_9">
     <g id="line2d_9">
      <g>
       <use style="stroke:#000000;stroke-width:0.8;" x="398.487273" xlink:href="#m339412b04e" y="307.584"/>
      </g>
     </g>
     <g id="text_9">
      <!-- 2000 -->
      <g transform="translate(385.762273 322.182437)scale(0.1 -0.1)">
       <use xlink:href="#DejaVuSans-32"/>
       <use x="63.623047" xlink:href="#DejaVuSans-30"/>
       <use x="127.246094" xlink:href="#DejaVuSans-30"/>
       <use x="190.869141" xlink:href="#DejaVuSans-30"/>
      </g>
     </g>
    </g>
    <g id="text_10">
     <!-- Episode Number -->
     <defs>
      <path d="M 9.8125 72.90625 
L 55.90625 72.90625 
L 55.90625 64.59375 
L 19.671875 64.59375 
L 19.671875 43.015625 
L 54.390625 43.015625 
L 54.390625 34.71875 
L 19.671875 34.71875 
L 19.671875 8.296875 
L 56.78125 8.296875 
L 56.78125 0 
L 9.8125 0 
z
" id="DejaVuSans-45"/>
      <path d="M 18.109375 8.203125 
L 18.109375 -20.796875 
L 9.078125 -20.796875 
L 9.078125 54.6875 
L 18.109375 54.6875 
L 18.109375 46.390625 
Q 20.953125 51.265625 25.265625 53.625 
Q 29.59375 56 35.59375 56 
Q 45.5625 56 51.78125 48.09375 
Q 58.015625 40.1875 58.015625 27.296875 
Q 58.015625 14.40625 51.78125 6.484375 
Q 45.5625 -1.421875 35.59375 -1.421875 
Q 29.59375 -1.421875 25.265625 0.953125 
Q 20.953125 3.328125 18.109375 8.203125 
z
M 48.6875 27.296875 
Q 48.6875 37.203125 44.609375 42.84375 
Q 40.53125 48.484375 33.40625 48.484375 
Q 26.265625 48.484375 22.1875 42.84375 
Q 18.109375 37.203125 18.109375 27.296875 
Q 18.109375 17.390625 22.1875 11.75 
Q 26.265625 6.109375 33.40625 6.109375 
Q 40.53125 6.109375 44.609375 11.75 
Q 48.6875 17.390625 48.6875 27.296875 
z
" id="DejaVuSans-70"/>
      <path d="M 9.421875 54.6875 
L 18.40625 54.6875 
L 18.40625 0 
L 9.421875 0 
z
M 9.421875 75.984375 
L 18.40625 75.984375 
L 18.40625 64.59375 
L 9.421875 64.59375 
z
" id="DejaVuSans-69"/>
      <path d="M 44.28125 53.078125 
L 44.28125 44.578125 
Q 40.484375 46.53125 36.375 47.5 
Q 32.28125 48.484375 27.875 48.484375 
Q 21.1875 48.484375 17.84375 46.4375 
Q 14.5 44.390625 14.5 40.28125 
Q 14.5 37.15625 16.890625 35.375 
Q 19.28125 33.59375 26.515625 31.984375 
L 29.59375 31.296875 
Q 39.15625 29.25 43.1875 25.515625 
Q 47.21875 21.78125 47.21875 15.09375 
Q 47.21875 7.46875 41.1875 3.015625 
Q 35.15625 -1.421875 24.609375 -1.421875 
Q 20.21875 -1.421875 15.453125 -0.5625 
Q 10.6875 0.296875 5.421875 2 
L 5.421875 11.28125 
Q 10.40625 8.6875 15.234375 7.390625 
Q 20.0625 6.109375 24.8125 6.109375 
Q 31.15625 6.109375 34.5625 8.28125 
Q 37.984375 10.453125 37.984375 14.40625 
Q 37.984375 18.0625 35.515625 20.015625 
Q 33.0625 21.96875 24.703125 23.78125 
L 21.578125 24.515625 
Q 13.234375 26.265625 9.515625 29.90625 
Q 5.8125 33.546875 5.8125 39.890625 
Q 5.8125 47.609375 11.28125 51.796875 
Q 16.75 56 26.8125 56 
Q 31.78125 56 36.171875 55.265625 
Q 40.578125 54.546875 44.28125 53.078125 
z
" id="DejaVuSans-73"/>
      <path d="M 30.609375 48.390625 
Q 23.390625 48.390625 19.1875 42.75 
Q 14.984375 37.109375 14.984375 27.296875 
Q 14.984375 17.484375 19.15625 11.84375 
Q 23.34375 6.203125 30.609375 6.203125 
Q 37.796875 6.203125 41.984375 11.859375 
Q 46.1875 17.53125 46.1875 27.296875 
Q 46.1875 37.015625 41.984375 42.703125 
Q 37.796875 48.390625 30.609375 48.390625 
z
M 30.609375 56 
Q 42.328125 56 49.015625 48.375 
Q 55.71875 40.765625 55.71875 27.296875 
Q 55.71875 13.875 49.015625 6.21875 
Q 42.328125 -1.421875 30.609375 -1.421875 
Q 18.84375 -1.421875 12.171875 6.21875 
Q 5.515625 13.875 5.515625 27.296875 
Q 5.515625 40.765625 12.171875 48.375 
Q 18.84375 56 30.609375 56 
z
" id="DejaVuSans-6f"/>
      <path d="M 45.40625 46.390625 
L 45.40625 75.984375 
L 54.390625 75.984375 
L 54.390625 0 
L 45.40625 0 
L 45.40625 8.203125 
Q 42.578125 3.328125 38.25 0.953125 
Q 33.9375 -1.421875 27.875 -1.421875 
Q 17.96875 -1.421875 11.734375 6.484375 
Q 5.515625 14.40625 5.515625 27.296875 
Q 5.515625 40.1875 11.734375 48.09375 
Q 17.96875 56 27.875 56 
Q 33.9375 56 38.25 53.625 
Q 42.578125 51.265625 45.40625 46.390625 
z
M 14.796875 27.296875 
Q 14.796875 17.390625 18.875 11.75 
Q 22.953125 6.109375 30.078125 6.109375 
Q 37.203125 6.109375 41.296875 11.75 
Q 45.40625 17.390625 45.40625 27.296875 
Q 45.40625 37.203125 41.296875 42.84375 
Q 37.203125 48.484375 30.078125 48.484375 
Q 22.953125 48.484375 18.875 42.84375 
Q 14.796875 37.203125 14.796875 27.296875 
z
" id="DejaVuSans-64"/>
      <path d="M 56.203125 29.59375 
L 56.203125 25.203125 
L 14.890625 25.203125 
Q 15.484375 15.921875 20.484375 11.0625 
Q 25.484375 6.203125 34.421875 6.203125 
Q 39.59375 6.203125 44.453125 7.46875 
Q 49.3125 8.734375 54.109375 11.28125 
L 54.109375 2.78125 
Q 49.265625 0.734375 44.1875 -0.34375 
Q 39.109375 -1.421875 33.890625 -1.421875 
Q 20.796875 -1.421875 13.15625 6.1875 
Q 5.515625 13.8125 5.515625 26.8125 
Q 5.515625 40.234375 12.765625 48.109375 
Q 20.015625 56 32.328125 56 
Q 43.359375 56 49.78125 48.890625 
Q 56.203125 41.796875 56.203125 29.59375 
z
M 47.21875 32.234375 
Q 47.125 39.59375 43.09375 43.984375 
Q 39.0625 48.390625 32.421875 48.390625 
Q 24.90625 48.390625 20.390625 44.140625 
Q 15.875 39.890625 15.1875 32.171875 
z
" id="DejaVuSans-65"/>
      <path id="DejaVuSans-20"/>
      <path d="M 9.8125 72.90625 
L 23.09375 72.90625 
L 55.421875 11.921875 
L 55.421875 72.90625 
L 64.984375 72.90625 
L 64.984375 0 
L 51.703125 0 
L 19.390625 60.984375 
L 19.390625 0 
L 9.8125 0 
z
" id="DejaVuSans-4e"/>
      <path d="M 8.5 21.578125 
L 8.5 54.6875 
L 17.484375 54.6875 
L 17.484375 21.921875 
Q 17.484375 14.15625 20.5 10.265625 
Q 23.53125 6.390625 29.59375 6.390625 
Q 36.859375 6.390625 41.078125 11.03125 
Q 45.3125 15.671875 45.3125 23.6875 
L 45.3125 54.6875 
L 54.296875 54.6875 
L 54.296875 0 
L 45.3125 0 
L 45.3125 8.40625 
Q 42.046875 3.421875 37.71875 1 
Q 33.40625 -1.421875 27.6875 -1.421875 
Q 18.265625 -1.421875 13.375 4.4375 
Q 8.5 10.296875 8.5 21.578125 
z
M 31.109375 56 
z
" id="DejaVuSans-75"/>
      <path d="M 52 44.1875 
Q 55.375 50.25 60.0625 53.125 
Q 64.75 56 71.09375 56 
Q 79.640625 56 84.28125 50.015625 
Q 88.921875 44.046875 88.921875 33.015625 
L 88.921875 0 
L 79.890625 0 
L 79.890625 32.71875 
Q 79.890625 40.578125 77.09375 44.375 
Q 74.3125 48.1875 68.609375 48.1875 
Q 61.625 48.1875 57.5625 43.546875 
Q 53.515625 38.921875 53.515625 30.90625 
L 53.515625 0 
L 44.484375 0 
L 44.484375 32.71875 
Q 44.484375 40.625 41.703125 44.40625 
Q 38.921875 48.1875 33.109375 48.1875 
Q 26.21875 48.1875 22.15625 43.53125 
Q 18.109375 38.875 18.109375 30.90625 
L 18.109375 0 
L 9.078125 0 
L 9.078125 54.6875 
L 18.109375 54.6875 
L 18.109375 46.1875 
Q 21.1875 51.21875 25.484375 53.609375 
Q 29.78125 56 35.6875 56 
Q 41.65625 56 45.828125 52.96875 
Q 50 49.953125 52 44.1875 
z
" id="DejaVuSans-6d"/>
      <path d="M 48.6875 27.296875 
Q 48.6875 37.203125 44.609375 42.84375 
Q 40.53125 48.484375 33.40625 48.484375 
Q 26.265625 48.484375 22.1875 42.84375 
Q 18.109375 37.203125 18.109375 27.296875 
Q 18.109375 17.390625 22.1875 11.75 
Q 26.265625 6.109375 33.40625 6.109375 
Q 40.53125 6.109375 44.609375 11.75 
Q 48.6875 17.390625 48.6875 27.296875 
z
M 18.109375 46.390625 
Q 20.953125 51.265625 25.265625 53.625 
Q 29.59375 56 35.59375 56 
Q 45.5625 56 51.78125 48.09375 
Q 58.015625 40.1875 58.015625 27.296875 
Q 58.015625 14.40625 51.78125 6.484375 
Q 45.5625 -1.421875 35.59375 -1.421875 
Q 29.59375 -1.421875 25.265625 0.953125 
Q 20.953125 3.328125 18.109375 8.203125 
L 18.109375 0 
L 9.078125 0 
L 9.078125 75.984375 
L 18.109375 75.984375 
z
" id="DejaVuSans-62"/>
      <path d="M 41.109375 46.296875 
Q 39.59375 47.171875 37.8125 47.578125 
Q 36.03125 48 33.890625 48 
Q 26.265625 48 22.1875 43.046875 
Q 18.109375 38.09375 18.109375 28.8125 
L 18.109375 0 
L 9.078125 0 
L 9.078125 54.6875 
L 18.109375 54.6875 
L 18.109375 46.1875 
Q 20.953125 51.171875 25.484375 53.578125 
Q 30.03125 56 36.53125 56 
Q 37.453125 56 38.578125 55.875 
Q 39.703125 55.765625 41.0625 55.515625 
z
" id="DejaVuSans-72"/>
     </defs>
     <g transform="translate(194.8475 335.860562)scale(0.1 -0.1)">
      <use xlink:href="#DejaVuSans-45"/>
      <use x="63.183594" xlink:href="#DejaVuSans-70"/>
      <use x="126.660156" xlink:href="#DejaVuSans-69"/>
      <use x="154.443359" xlink:href="#DejaVuSans-73"/>
      <use x="206.542969" xlink:href="#DejaVuSans-6f"/>
      <use x="267.724609" xlink:href="#DejaVuSans-64"/>
      <use x="331.201172" xlink:href="#DejaVuSans-65"/>
      <use x="392.724609" xlink:href="#DejaVuSans-20"/>
      <use x="424.511719" xlink:href="#DejaVuSans-4e"/>
      <use x="499.316406" xlink:href="#DejaVuSans-75"/>
      <use x="562.695312" xlink:href="#DejaVuSans-6d"/>
      <use x="660.107422" xlink:href="#DejaVuSans-62"/>
      <use x="723.583984" xlink:href="#DejaVuSans-65"/>
      <use x="785.107422" xlink:href="#DejaVuSans-72"/>
     </g>
    </g>
   </g>
   <g id="matplotlib.axis_2">
    <g id="ytick_1">
     <g id="line2d_10">
      <defs>
       <path d="M 0 0 
L -3.5 0 
" id="mfdaa4b288f" style="stroke:#000000;stroke-width:0.8;"/>
      </defs>
      <g>
       <use style="stroke:#000000;stroke-width:0.8;" x="57.6" xlink:href="#mfdaa4b288f" y="307.584"/>
      </g>
     </g>
     <g id="text_11">
      <!-- −800 -->
      <defs>
       <path d="M 10.59375 35.5 
L 73.1875 35.5 
L 73.1875 27.203125 
L 10.59375 27.203125 
z
" id="DejaVuSans-2212"/>
       <path d="M 31.78125 34.625 
Q 24.75 34.625 20.71875 30.859375 
Q 16.703125 27.09375 16.703125 20.515625 
Q 16.703125 13.921875 20.71875 10.15625 
Q 24.75 6.390625 31.78125 6.390625 
Q 38.8125 6.390625 42.859375 10.171875 
Q 46.921875 13.96875 46.921875 20.515625 
Q 46.921875 27.09375 42.890625 30.859375 
Q 38.875 34.625 31.78125 34.625 
z
M 21.921875 38.8125 
Q 15.578125 40.375 12.03125 44.71875 
Q 8.5 49.078125 8.5 55.328125 
Q 8.5 64.0625 14.71875 69.140625 
Q 20.953125 74.21875 31.78125 74.21875 
Q 42.671875 74.21875 48.875 69.140625 
Q 55.078125 64.0625 55.078125 55.328125 
Q 55.078125 49.078125 51.53125 44.71875 
Q 48 40.375 41.703125 38.8125 
Q 48.828125 37.15625 52.796875 32.3125 
Q 56.78125 27.484375 56.78125 20.515625 
Q 56.78125 9.90625 50.3125 4.234375 
Q 43.84375 -1.421875 31.78125 -1.421875 
Q 19.734375 -1.421875 13.25 4.234375 
Q 6.78125 9.90625 6.78125 20.515625 
Q 6.78125 27.484375 10.78125 32.3125 
Q 14.796875 37.15625 21.921875 38.8125 
z
M 18.3125 54.390625 
Q 18.3125 48.734375 21.84375 45.5625 
Q 25.390625 42.390625 31.78125 42.390625 
Q 38.140625 42.390625 41.71875 45.5625 
Q 45.3125 48.734375 45.3125 54.390625 
Q 45.3125 60.0625 41.71875 63.234375 
Q 38.140625 66.40625 31.78125 66.40625 
Q 25.390625 66.40625 21.84375 63.234375 
Q 18.3125 60.0625 18.3125 54.390625 
z
" id="DejaVuSans-38"/>
      </defs>
      <g transform="translate(23.132812 311.383219)scale(0.1 -0.1)">
       <use xlink:href="#DejaVuSans-2212"/>
       <use x="83.789062" xlink:href="#DejaVuSans-38"/>
       <use x="147.412109" xlink:href="#DejaVuSans-30"/>
       <use x="211.035156" xlink:href="#DejaVuSans-30"/>
      </g>
     </g>
    </g>
    <g id="ytick_2">
     <g id="line2d_11">
      <g>
       <use style="stroke:#000000;stroke-width:0.8;" x="57.6" xlink:href="#mfdaa4b288f" y="276.276706"/>
      </g>
     </g>
     <g id="text_12">
      <!-- −700 -->
      <g transform="translate(23.132812 280.075925)scale(0.1 -0.1)">
       <use xlink:href="#DejaVuSans-2212"/>
       <use x="83.789062" xlink:href="#DejaVuSans-37"/>
       <use x="147.412109" xlink:href="#DejaVuSans-30"/>
       <use x="211.035156" xlink:href="#DejaVuSans-30"/>
      </g>
     </g>
    </g>
    <g id="ytick_3">
     <g id="line2d_12">
      <g>
       <use style="stroke:#000000;stroke-width:0.8;" x="57.6" xlink:href="#mfdaa4b288f" y="244.969412"/>
      </g>
     </g>
     <g id="text_13">
      <!-- −600 -->
      <defs>
       <path d="M 33.015625 40.375 
Q 26.375 40.375 22.484375 35.828125 
Q 18.609375 31.296875 18.609375 23.390625 
Q 18.609375 15.53125 22.484375 10.953125 
Q 26.375 6.390625 33.015625 6.390625 
Q 39.65625 6.390625 43.53125 10.953125 
Q 47.40625 15.53125 47.40625 23.390625 
Q 47.40625 31.296875 43.53125 35.828125 
Q 39.65625 40.375 33.015625 40.375 
z
M 52.59375 71.296875 
L 52.59375 62.3125 
Q 48.875 64.0625 45.09375 64.984375 
Q 41.3125 65.921875 37.59375 65.921875 
Q 27.828125 65.921875 22.671875 59.328125 
Q 17.53125 52.734375 16.796875 39.40625 
Q 19.671875 43.65625 24.015625 45.921875 
Q 28.375 48.1875 33.59375 48.1875 
Q 44.578125 48.1875 50.953125 41.515625 
Q 57.328125 34.859375 57.328125 23.390625 
Q 57.328125 12.15625 50.6875 5.359375 
Q 44.046875 -1.421875 33.015625 -1.421875 
Q 20.359375 -1.421875 13.671875 8.265625 
Q 6.984375 17.96875 6.984375 36.375 
Q 6.984375 53.65625 15.1875 63.9375 
Q 23.390625 74.21875 37.203125 74.21875 
Q 40.921875 74.21875 44.703125 73.484375 
Q 48.484375 72.75 52.59375 71.296875 
z
" id="DejaVuSans-36"/>
      </defs>
      <g transform="translate(23.132812 248.768631)scale(0.1 -0.1)">
       <use xlink:href="#DejaVuSans-2212"/>
       <use x="83.789062" xlink:href="#DejaVuSans-36"/>
       <use x="147.412109" xlink:href="#DejaVuSans-30"/>
       <use x="211.035156" xlink:href="#DejaVuSans-30"/>
      </g>
     </g>
    </g>
    <g id="ytick_4">
     <g id="line2d_13">
      <g>
       <use style="stroke:#000000;stroke-width:0.8;" x="57.6" xlink:href="#mfdaa4b288f" y="213.662118"/>
      </g>
     </g>
     <g id="text_14">
      <!-- −500 -->
      <g transform="translate(23.132812 217.461336)scale(0.1 -0.1)">
       <use xlink:href="#DejaVuSans-2212"/>
       <use x="83.789062" xlink:href="#DejaVuSans-35"/>
       <use x="147.412109" xlink:href="#DejaVuSans-30"/>
       <use x="211.035156" xlink:href="#DejaVuSans-30"/>
      </g>
     </g>
    </g>
    <g id="ytick_5">
     <g id="line2d_14">
      <g>
       <use style="stroke:#000000;stroke-width:0.8;" x="57.6" xlink:href="#mfdaa4b288f" y="182.354824"/>
      </g>
     </g>
     <g id="text_15">
      <!-- −400 -->
      <defs>
       <path d="M 37.796875 64.3125 
L 12.890625 25.390625 
L 37.796875 25.390625 
z
M 35.203125 72.90625 
L 47.609375 72.90625 
L 47.609375 25.390625 
L 58.015625 25.390625 
L 58.015625 17.1875 
L 47.609375 17.1875 
L 47.609375 0 
L 37.796875 0 
L 37.796875 17.1875 
L 4.890625 17.1875 
L 4.890625 26.703125 
z
" id="DejaVuSans-34"/>
      </defs>
      <g transform="translate(23.132812 186.154042)scale(0.1 -0.1)">
       <use xlink:href="#DejaVuSans-2212"/>
       <use x="83.789062" xlink:href="#DejaVuSans-34"/>
       <use x="147.412109" xlink:href="#DejaVuSans-30"/>
       <use x="211.035156" xlink:href="#DejaVuSans-30"/>
      </g>
     </g>
    </g>
    <g id="ytick_6">
     <g id="line2d_15">
      <g>
       <use style="stroke:#000000;stroke-width:0.8;" x="57.6" xlink:href="#mfdaa4b288f" y="151.047529"/>
      </g>
     </g>
     <g id="text_16">
      <!-- −300 -->
      <defs>
       <path d="M 40.578125 39.3125 
Q 47.65625 37.796875 51.625 33 
Q 55.609375 28.21875 55.609375 21.1875 
Q 55.609375 10.40625 48.1875 4.484375 
Q 40.765625 -1.421875 27.09375 -1.421875 
Q 22.515625 -1.421875 17.65625 -0.515625 
Q 12.796875 0.390625 7.625 2.203125 
L 7.625 11.71875 
Q 11.71875 9.328125 16.59375 8.109375 
Q 21.484375 6.890625 26.8125 6.890625 
Q 36.078125 6.890625 40.9375 10.546875 
Q 45.796875 14.203125 45.796875 21.1875 
Q 45.796875 27.640625 41.28125 31.265625 
Q 36.765625 34.90625 28.71875 34.90625 
L 20.21875 34.90625 
L 20.21875 43.015625 
L 29.109375 43.015625 
Q 36.375 43.015625 40.234375 45.921875 
Q 44.09375 48.828125 44.09375 54.296875 
Q 44.09375 59.90625 40.109375 62.90625 
Q 36.140625 65.921875 28.71875 65.921875 
Q 24.65625 65.921875 20.015625 65.03125 
Q 15.375 64.15625 9.8125 62.3125 
L 9.8125 71.09375 
Q 15.4375 72.65625 20.34375 73.4375 
Q 25.25 74.21875 29.59375 74.21875 
Q 40.828125 74.21875 47.359375 69.109375 
Q 53.90625 64.015625 53.90625 55.328125 
Q 53.90625 49.265625 50.4375 45.09375 
Q 46.96875 40.921875 40.578125 39.3125 
z
" id="DejaVuSans-33"/>
      </defs>
      <g transform="translate(23.132812 154.846748)scale(0.1 -0.1)">
       <use xlink:href="#DejaVuSans-2212"/>
       <use x="83.789062" xlink:href="#DejaVuSans-33"/>
       <use x="147.412109" xlink:href="#DejaVuSans-30"/>
       <use x="211.035156" xlink:href="#DejaVuSans-30"/>
      </g>
     </g>
    </g>
    <g id="ytick_7">
     <g id="line2d_16">
      <g>
       <use style="stroke:#000000;stroke-width:0.8;" x="57.6" xlink:href="#mfdaa4b288f" y="119.740235"/>
      </g>
     </g>
     <g id="text_17">
      <!-- −200 -->
      <g transform="translate(23.132812 123.539454)scale(0.1 -0.1)">
       <use xlink:href="#DejaVuSans-2212"/>
       <use x="83.789062" xlink:href="#DejaVuSans-32"/>
       <use x="147.412109" xlink:href="#DejaVuSans-30"/>
       <use x="211.035156" xlink:href="#DejaVuSans-30"/>
      </g>
     </g>
    </g>
    <g id="ytick_8">
     <g id="line2d_17">
      <g>
       <use style="stroke:#000000;stroke-width:0.8;" x="57.6" xlink:href="#mfdaa4b288f" y="88.432941"/>
      </g>
     </g>
     <g id="text_18">
      <!-- −100 -->
      <g transform="translate(23.132812 92.23216)scale(0.1 -0.1)">
       <use xlink:href="#DejaVuSans-2212"/>
       <use x="83.789062" xlink:href="#DejaVuSans-31"/>
       <use x="147.412109" xlink:href="#DejaVuSans-30"/>
       <use x="211.035156" xlink:href="#DejaVuSans-30"/>
      </g>
     </g>
    </g>
    <g id="ytick_9">
     <g id="line2d_18">
      <g>
       <use style="stroke:#000000;stroke-width:0.8;" x="57.6" xlink:href="#mfdaa4b288f" y="57.125647"/>
      </g>
     </g>
     <g id="text_19">
      <!-- 0 -->
      <g transform="translate(44.2375 60.924866)scale(0.1 -0.1)">
       <use xlink:href="#DejaVuSans-30"/>
      </g>
     </g>
    </g>
    <g id="text_20">
     <!-- Cumulative Reward -->
     <defs>
      <path d="M 64.40625 67.28125 
L 64.40625 56.890625 
Q 59.421875 61.53125 53.78125 63.8125 
Q 48.140625 66.109375 41.796875 66.109375 
Q 29.296875 66.109375 22.65625 58.46875 
Q 16.015625 50.828125 16.015625 36.375 
Q 16.015625 21.96875 22.65625 14.328125 
Q 29.296875 6.6875 41.796875 6.6875 
Q 48.140625 6.6875 53.78125 8.984375 
Q 59.421875 11.28125 64.40625 15.921875 
L 64.40625 5.609375 
Q 59.234375 2.09375 53.4375 0.328125 
Q 47.65625 -1.421875 41.21875 -1.421875 
Q 24.65625 -1.421875 15.125 8.703125 
Q 5.609375 18.84375 5.609375 36.375 
Q 5.609375 53.953125 15.125 64.078125 
Q 24.65625 74.21875 41.21875 74.21875 
Q 47.75 74.21875 53.53125 72.484375 
Q 59.328125 70.75 64.40625 67.28125 
z
" id="DejaVuSans-43"/>
      <path d="M 9.421875 75.984375 
L 18.40625 75.984375 
L 18.40625 0 
L 9.421875 0 
z
" id="DejaVuSans-6c"/>
      <path d="M 34.28125 27.484375 
Q 23.390625 27.484375 19.1875 25 
Q 14.984375 22.515625 14.984375 16.5 
Q 14.984375 11.71875 18.140625 8.90625 
Q 21.296875 6.109375 26.703125 6.109375 
Q 34.1875 6.109375 38.703125 11.40625 
Q 43.21875 16.703125 43.21875 25.484375 
L 43.21875 27.484375 
z
M 52.203125 31.203125 
L 52.203125 0 
L 43.21875 0 
L 43.21875 8.296875 
Q 40.140625 3.328125 35.546875 0.953125 
Q 30.953125 -1.421875 24.3125 -1.421875 
Q 15.921875 -1.421875 10.953125 3.296875 
Q 6 8.015625 6 15.921875 
Q 6 25.140625 12.171875 29.828125 
Q 18.359375 34.515625 30.609375 34.515625 
L 43.21875 34.515625 
L 43.21875 35.40625 
Q 43.21875 41.609375 39.140625 45 
Q 35.0625 48.390625 27.6875 48.390625 
Q 23 48.390625 18.546875 47.265625 
Q 14.109375 46.140625 10.015625 43.890625 
L 10.015625 52.203125 
Q 14.9375 54.109375 19.578125 55.046875 
Q 24.21875 56 28.609375 56 
Q 40.484375 56 46.34375 49.84375 
Q 52.203125 43.703125 52.203125 31.203125 
z
" id="DejaVuSans-61"/>
      <path d="M 18.3125 70.21875 
L 18.3125 54.6875 
L 36.8125 54.6875 
L 36.8125 47.703125 
L 18.3125 47.703125 
L 18.3125 18.015625 
Q 18.3125 11.328125 20.140625 9.421875 
Q 21.96875 7.515625 27.59375 7.515625 
L 36.8125 7.515625 
L 36.8125 0 
L 27.59375 0 
Q 17.1875 0 13.234375 3.875 
Q 9.28125 7.765625 9.28125 18.015625 
L 9.28125 47.703125 
L 2.6875 47.703125 
L 2.6875 54.6875 
L 9.28125 54.6875 
L 9.28125 70.21875 
z
" id="DejaVuSans-74"/>
      <path d="M 2.984375 54.6875 
L 12.5 54.6875 
L 29.59375 8.796875 
L 46.6875 54.6875 
L 56.203125 54.6875 
L 35.6875 0 
L 23.484375 0 
z
" id="DejaVuSans-76"/>
      <path d="M 44.390625 34.1875 
Q 47.5625 33.109375 50.5625 29.59375 
Q 53.5625 26.078125 56.59375 19.921875 
L 66.609375 0 
L 56 0 
L 46.6875 18.703125 
Q 43.0625 26.03125 39.671875 28.421875 
Q 36.28125 30.8125 30.421875 30.8125 
L 19.671875 30.8125 
L 19.671875 0 
L 9.8125 0 
L 9.8125 72.90625 
L 32.078125 72.90625 
Q 44.578125 72.90625 50.734375 67.671875 
Q 56.890625 62.453125 56.890625 51.90625 
Q 56.890625 45.015625 53.6875 40.46875 
Q 50.484375 35.9375 44.390625 34.1875 
z
M 19.671875 64.796875 
L 19.671875 38.921875 
L 32.078125 38.921875 
Q 39.203125 38.921875 42.84375 42.21875 
Q 46.484375 45.515625 46.484375 51.90625 
Q 46.484375 58.296875 42.84375 61.546875 
Q 39.203125 64.796875 32.078125 64.796875 
z
" id="DejaVuSans-52"/>
      <path d="M 4.203125 54.6875 
L 13.1875 54.6875 
L 24.421875 12.015625 
L 35.59375 54.6875 
L 46.1875 54.6875 
L 57.421875 12.015625 
L 68.609375 54.6875 
L 77.59375 54.6875 
L 63.28125 0 
L 52.6875 0 
L 40.921875 44.828125 
L 29.109375 0 
L 18.5 0 
z
" id="DejaVuSans-77"/>
     </defs>
     <g transform="translate(17.053125 223.58425)rotate(-90)scale(0.1 -0.1)">
      <use xlink:href="#DejaVuSans-43"/>
      <use x="69.824219" xlink:href="#DejaVuSans-75"/>
      <use x="133.203125" xlink:href="#DejaVuSans-6d"/>
      <use x="230.615234" xlink:href="#DejaVuSans-75"/>
      <use x="293.994141" xlink:href="#DejaVuSans-6c"/>
      <use x="321.777344" xlink:href="#DejaVuSans-61"/>
      <use x="383.056641" xlink:href="#DejaVuSans-74"/>
      <use x="422.265625" xlink:href="#DejaVuSans-69"/>
      <use x="450.048828" xlink:href="#DejaVuSans-76"/>
      <use x="509.228516" xlink:href="#DejaVuSans-65"/>
      <use x="570.751953" xlink:href="#DejaVuSans-20"/>
      <use x="602.539062" xlink:href="#DejaVuSans-52"/>
      <use x="671.958984" xlink:href="#DejaVuSans-65"/>
      <use x="733.482422" xlink:href="#DejaVuSans-77"/>
      <use x="815.269531" xlink:href="#DejaVuSans-61"/>
      <use x="876.548828" xlink:href="#DejaVuSans-72"/>
      <use x="917.646484" xlink:href="#DejaVuSans-64"/>
     </g>
    </g>
   </g>
   <g id="line2d_19">
    <path clip-path="url(#p1dc3fddba2)" d="M 73.832727 194.767207 
L 81.949091 156.840018 
L 90.065455 144.731123 
L 98.181818 137.292127 
L 106.298182 128.315173 
L 114.414545 123.053058 
L 122.530909 118.074559 
L 130.647273 108.267709 
L 138.763636 103.650842 
L 146.88 98.332568 
L 154.996364 96.066171 
L 163.112727 85.981388 
L 171.229091 81.717207 
L 179.345455 76.94773 
L 187.461818 72.058587 
L 195.578182 72.034308 
L 203.694545 71.012029 
L 211.810909 68.281267 
L 219.927273 67.421833 
L 228.043636 66.141509 
L 236.16 63.079783 
L 244.276364 62.502835 
L 252.392727 62.119813 
L 260.509091 59.908163 
L 268.625455 58.384328 
L 276.741818 57.34991 
L 284.858182 58.274433 
L 292.974545 57.539164 
L 301.090909 58.016947 
L 309.207273 56.655399 
L 317.323636 56.441998 
L 325.44 55.581806 
L 333.556364 55.302796 
L 341.672727 55.452304 
L 349.789091 55.405663 
L 357.905455 55.214624 
L 366.021818 55.455272 
L 374.138182 55.293212 
L 382.254545 55.183317 
L 390.370909 55.439526 
L 398.487273 55.392884 
" style="fill:none;opacity:0.7;stroke:#1f77b4;stroke-linecap:square;stroke-width:1.5;"/>
   </g>
   <g id="line2d_20">
    <path clip-path="url(#p1dc3fddba2)" d="M 73.832727 194.240734 
L 81.949091 157.211233 
L 90.065455 134.704483 
L 98.181818 126.368756 
L 106.298182 112.595976 
L 114.414545 101.710109 
L 122.530909 92.303864 
L 130.647273 77.632564 
L 138.763636 71.240125 
L 146.88 65.124987 
L 154.996364 61.204221 
L 163.112727 58.59677 
L 171.229091 57.553407 
L 179.345455 56.716369 
L 187.461818 56.266294 
L 195.578182 56.035003 
L 203.694545 55.68647 
L 211.810909 55.651649 
L 219.927273 55.529627 
L 228.043636 55.496709 
L 236.16 55.46636 
L 244.276364 55.413969 
L 252.392727 55.328739 
L 260.509091 55.272766 
L 268.625455 55.245612 
L 276.741818 55.210471 
L 284.858182 55.160955 
L 292.974545 55.195031 
L 301.090909 55.191942 
L 309.207273 55.13412 
L 317.323636 55.117188 
L 325.44 55.150352 
L 333.556364 55.068311 
L 341.672727 55.161594 
L 349.789091 54.984931 
L 357.905455 55.016558 
L 366.021818 54.976858 
L 374.138182 55.025822 
L 382.254545 54.976305 
L 390.370909 55.006015 
L 398.487273 54.983973 
" style="fill:none;opacity:0.7;stroke:#ff7f0e;stroke-linecap:square;stroke-width:1.5;"/>
   </g>
   <g id="line2d_21">
    <path clip-path="url(#p1dc3fddba2)" d="M 73.832727 194.874866 
L 81.949091 154.929794 
L 90.065455 125.392959 
L 98.181818 113.187587 
L 106.298182 93.971234 
L 114.414545 78.140509 
L 122.530909 66.306511 
L 130.647273 60.652829 
L 138.763636 57.73566 
L 146.88 56.732675 
L 154.996364 56.202881 
L 163.112727 55.90003 
L 171.229091 55.771926 
L 179.345455 55.6529 
L 187.461818 55.513162 
L 195.578182 55.480257 
L 203.694545 55.429942 
L 211.810909 55.325478 
L 219.927273 55.278517 
L 228.043636 55.298004 
L 236.16 55.289858 
L 244.276364 55.278996 
L 252.392727 55.13209 
L 260.509091 55.174372 
L 268.625455 55.146419 
L 276.741818 55.081249 
L 284.858182 55.089555 
L 292.974545 55.078444 
L 301.090909 54.969277 
L 309.207273 55.049303 
L 317.323636 55.001703 
L 325.44 55.064094 
L 333.556364 54.927907 
L 341.672727 54.969597 
L 349.789091 54.98557 
L 357.905455 54.969277 
L 366.021818 54.903644 
L 374.138182 54.930303 
L 382.254545 54.872161 
L 390.370909 54.835742 
L 398.487273 54.865612 
" style="fill:none;opacity:0.7;stroke:#2ca02c;stroke-linecap:square;stroke-width:1.5;"/>
   </g>
   <g id="line2d_22">
    <path clip-path="url(#p1dc3fddba2)" d="M 73.832727 192.956176 
L 81.949091 154.752013 
L 90.065455 116.465828 
L 98.181818 99.503025 
L 106.298182 75.340051 
L 114.414545 65.681883 
L 122.530909 59.805935 
L 130.647273 58.113344 
L 138.763636 56.530729 
L 146.88 56.058998 
L 154.996364 55.652607 
L 163.112727 55.534725 
L 171.229091 55.511405 
L 179.345455 55.412225 
L 187.461818 55.398235 
L 195.578182 55.324519 
L 203.694545 55.214864 
L 211.810909 55.141308 
L 219.927273 55.157201 
L 228.043636 55.149454 
L 236.16 55.121421 
L 244.276364 55.083565 
L 252.392727 55.075019 
L 260.509091 55.014002 
L 268.625455 55.012804 
L 276.741818 54.965364 
L 284.858182 54.968878 
L 292.974545 54.965118 
L 301.090909 54.887096 
L 309.207273 54.915767 
L 317.323636 54.87288 
L 325.44 54.847715 
L 333.556364 54.861858 
L 341.672727 54.823043 
L 349.789091 54.78974 
L 357.905455 54.793493 
L 366.021818 54.803852 
L 374.138182 54.763863 
L 382.254545 54.776881 
L 390.370909 54.759231 
L 398.487273 54.749328 
" style="fill:none;opacity:0.7;stroke:#d62728;stroke-linecap:square;stroke-width:1.5;"/>
   </g>
   <g id="patch_3">
    <path d="M 57.6 307.584 
L 57.6 41.472 
" style="fill:none;stroke:#000000;stroke-linecap:square;stroke-linejoin:miter;stroke-width:0.8;"/>
   </g>
   <g id="patch_4">
    <path d="M 414.72 307.584 
L 414.72 41.472 
" style="fill:none;stroke:#000000;stroke-linecap:square;stroke-linejoin:miter;stroke-width:0.8;"/>
   </g>
   <g id="patch_5">
    <path d="M 57.6 307.584 
L 414.72 307.584 
" style="fill:none;stroke:#000000;stroke-linecap:square;stroke-linejoin:miter;stroke-width:0.8;"/>
   </g>
   <g id="patch_6">
    <path d="M 57.6 41.472 
L 414.72 41.472 
" style="fill:none;stroke:#000000;stroke-linecap:square;stroke-linejoin:miter;stroke-width:0.8;"/>
   </g>
   <g id="text_21">
    <!-- Average Performance and Standard Error  -->
    <defs>
     <path d="M 34.1875 63.1875 
L 20.796875 26.90625 
L 47.609375 26.90625 
z
M 28.609375 72.90625 
L 39.796875 72.90625 
L 67.578125 0 
L 57.328125 0 
L 50.6875 18.703125 
L 17.828125 18.703125 
L 11.1875 0 
L 0.78125 0 
z
" id="DejaVuSans-41"/>
     <path d="M 45.40625 27.984375 
Q 45.40625 37.75 41.375 43.109375 
Q 37.359375 48.484375 30.078125 48.484375 
Q 22.859375 48.484375 18.828125 43.109375 
Q 14.796875 37.75 14.796875 27.984375 
Q 14.796875 18.265625 18.828125 12.890625 
Q 22.859375 7.515625 30.078125 7.515625 
Q 37.359375 7.515625 41.375 12.890625 
Q 45.40625 18.265625 45.40625 27.984375 
z
M 54.390625 6.78125 
Q 54.390625 -7.171875 48.1875 -13.984375 
Q 42 -20.796875 29.203125 -20.796875 
Q 24.46875 -20.796875 20.265625 -20.09375 
Q 16.0625 -19.390625 12.109375 -17.921875 
L 12.109375 -9.1875 
Q 16.0625 -11.328125 19.921875 -12.34375 
Q 23.78125 -13.375 27.78125 -13.375 
Q 36.625 -13.375 41.015625 -8.765625 
Q 45.40625 -4.15625 45.40625 5.171875 
L 45.40625 9.625 
Q 42.625 4.78125 38.28125 2.390625 
Q 33.9375 0 27.875 0 
Q 17.828125 0 11.671875 7.65625 
Q 5.515625 15.328125 5.515625 27.984375 
Q 5.515625 40.671875 11.671875 48.328125 
Q 17.828125 56 27.875 56 
Q 33.9375 56 38.28125 53.609375 
Q 42.625 51.21875 45.40625 46.390625 
L 45.40625 54.6875 
L 54.390625 54.6875 
z
" id="DejaVuSans-67"/>
     <path d="M 19.671875 64.796875 
L 19.671875 37.40625 
L 32.078125 37.40625 
Q 38.96875 37.40625 42.71875 40.96875 
Q 46.484375 44.53125 46.484375 51.125 
Q 46.484375 57.671875 42.71875 61.234375 
Q 38.96875 64.796875 32.078125 64.796875 
z
M 9.8125 72.90625 
L 32.078125 72.90625 
Q 44.34375 72.90625 50.609375 67.359375 
Q 56.890625 61.8125 56.890625 51.125 
Q 56.890625 40.328125 50.609375 34.8125 
Q 44.34375 29.296875 32.078125 29.296875 
L 19.671875 29.296875 
L 19.671875 0 
L 9.8125 0 
z
" id="DejaVuSans-50"/>
     <path d="M 37.109375 75.984375 
L 37.109375 68.5 
L 28.515625 68.5 
Q 23.6875 68.5 21.796875 66.546875 
Q 19.921875 64.59375 19.921875 59.515625 
L 19.921875 54.6875 
L 34.71875 54.6875 
L 34.71875 47.703125 
L 19.921875 47.703125 
L 19.921875 0 
L 10.890625 0 
L 10.890625 47.703125 
L 2.296875 47.703125 
L 2.296875 54.6875 
L 10.890625 54.6875 
L 10.890625 58.5 
Q 10.890625 67.625 15.140625 71.796875 
Q 19.390625 75.984375 28.609375 75.984375 
z
" id="DejaVuSans-66"/>
     <path d="M 54.890625 33.015625 
L 54.890625 0 
L 45.90625 0 
L 45.90625 32.71875 
Q 45.90625 40.484375 42.875 44.328125 
Q 39.84375 48.1875 33.796875 48.1875 
Q 26.515625 48.1875 22.3125 43.546875 
Q 18.109375 38.921875 18.109375 30.90625 
L 18.109375 0 
L 9.078125 0 
L 9.078125 54.6875 
L 18.109375 54.6875 
L 18.109375 46.1875 
Q 21.34375 51.125 25.703125 53.5625 
Q 30.078125 56 35.796875 56 
Q 45.21875 56 50.046875 50.171875 
Q 54.890625 44.34375 54.890625 33.015625 
z
" id="DejaVuSans-6e"/>
     <path d="M 48.78125 52.59375 
L 48.78125 44.1875 
Q 44.96875 46.296875 41.140625 47.34375 
Q 37.3125 48.390625 33.40625 48.390625 
Q 24.65625 48.390625 19.8125 42.84375 
Q 14.984375 37.3125 14.984375 27.296875 
Q 14.984375 17.28125 19.8125 11.734375 
Q 24.65625 6.203125 33.40625 6.203125 
Q 37.3125 6.203125 41.140625 7.25 
Q 44.96875 8.296875 48.78125 10.40625 
L 48.78125 2.09375 
Q 45.015625 0.34375 40.984375 -0.53125 
Q 36.96875 -1.421875 32.421875 -1.421875 
Q 20.0625 -1.421875 12.78125 6.34375 
Q 5.515625 14.109375 5.515625 27.296875 
Q 5.515625 40.671875 12.859375 48.328125 
Q 20.21875 56 33.015625 56 
Q 37.15625 56 41.109375 55.140625 
Q 45.0625 54.296875 48.78125 52.59375 
z
" id="DejaVuSans-63"/>
     <path d="M 53.515625 70.515625 
L 53.515625 60.890625 
Q 47.90625 63.578125 42.921875 64.890625 
Q 37.9375 66.21875 33.296875 66.21875 
Q 25.25 66.21875 20.875 63.09375 
Q 16.5 59.96875 16.5 54.203125 
Q 16.5 49.359375 19.40625 46.890625 
Q 22.3125 44.4375 30.421875 42.921875 
L 36.375 41.703125 
Q 47.40625 39.59375 52.65625 34.296875 
Q 57.90625 29 57.90625 20.125 
Q 57.90625 9.515625 50.796875 4.046875 
Q 43.703125 -1.421875 29.984375 -1.421875 
Q 24.8125 -1.421875 18.96875 -0.25 
Q 13.140625 0.921875 6.890625 3.21875 
L 6.890625 13.375 
Q 12.890625 10.015625 18.65625 8.296875 
Q 24.421875 6.59375 29.984375 6.59375 
Q 38.421875 6.59375 43.015625 9.90625 
Q 47.609375 13.234375 47.609375 19.390625 
Q 47.609375 24.75 44.3125 27.78125 
Q 41.015625 30.8125 33.5 32.328125 
L 27.484375 33.5 
Q 16.453125 35.6875 11.515625 40.375 
Q 6.59375 45.0625 6.59375 53.421875 
Q 6.59375 63.09375 13.40625 68.65625 
Q 20.21875 74.21875 32.171875 74.21875 
Q 37.3125 74.21875 42.625 73.28125 
Q 47.953125 72.359375 53.515625 70.515625 
z
" id="DejaVuSans-53"/>
    </defs>
    <g transform="translate(109.752188 22.034625)scale(0.12 -0.12)">
     <use xlink:href="#DejaVuSans-41"/>
     <use x="68.330078" xlink:href="#DejaVuSans-76"/>
     <use x="127.509766" xlink:href="#DejaVuSans-65"/>
     <use x="189.033203" xlink:href="#DejaVuSans-72"/>
     <use x="230.146484" xlink:href="#DejaVuSans-61"/>
     <use x="291.425781" xlink:href="#DejaVuSans-67"/>
     <use x="354.902344" xlink:href="#DejaVuSans-65"/>
     <use x="416.425781" xlink:href="#DejaVuSans-20"/>
     <use x="448.212891" xlink:href="#DejaVuSans-50"/>
     <use x="508.46875" xlink:href="#DejaVuSans-65"/>
     <use x="569.992188" xlink:href="#DejaVuSans-72"/>
     <use x="611.105469" xlink:href="#DejaVuSans-66"/>
     <use x="646.310547" xlink:href="#DejaVuSans-6f"/>
     <use x="707.492188" xlink:href="#DejaVuSans-72"/>
     <use x="748.589844" xlink:href="#DejaVuSans-6d"/>
     <use x="846.001953" xlink:href="#DejaVuSans-61"/>
     <use x="907.28125" xlink:href="#DejaVuSans-6e"/>
     <use x="970.660156" xlink:href="#DejaVuSans-63"/>
     <use x="1025.640625" xlink:href="#DejaVuSans-65"/>
     <use x="1087.164062" xlink:href="#DejaVuSans-20"/>
     <use x="1118.951172" xlink:href="#DejaVuSans-61"/>
     <use x="1180.230469" xlink:href="#DejaVuSans-6e"/>
     <use x="1243.609375" xlink:href="#DejaVuSans-64"/>
     <use x="1307.085938" xlink:href="#DejaVuSans-20"/>
     <use x="1338.873047" xlink:href="#DejaVuSans-53"/>
     <use x="1402.349609" xlink:href="#DejaVuSans-74"/>
     <use x="1441.558594" xlink:href="#DejaVuSans-61"/>
     <use x="1502.837891" xlink:href="#DejaVuSans-6e"/>
     <use x="1566.216797" xlink:href="#DejaVuSans-64"/>
     <use x="1629.693359" xlink:href="#DejaVuSans-61"/>
     <use x="1690.972656" xlink:href="#DejaVuSans-72"/>
     <use x="1732.070312" xlink:href="#DejaVuSans-64"/>
     <use x="1795.546875" xlink:href="#DejaVuSans-20"/>
     <use x="1827.333984" xlink:href="#DejaVuSans-45"/>
     <use x="1890.517578" xlink:href="#DejaVuSans-72"/>
     <use x="1931.615234" xlink:href="#DejaVuSans-72"/>
     <use x="1972.697266" xlink:href="#DejaVuSans-6f"/>
     <use x="2033.878906" xlink:href="#DejaVuSans-72"/>
     <use x="2074.992188" xlink:href="#DejaVuSans-20"/>
    </g>
    <!-- with DistQL-ALL tau 100 in Taxi-v2 -->
    <defs>
     <path d="M 54.890625 33.015625 
L 54.890625 0 
L 45.90625 0 
L 45.90625 32.71875 
Q 45.90625 40.484375 42.875 44.328125 
Q 39.84375 48.1875 33.796875 48.1875 
Q 26.515625 48.1875 22.3125 43.546875 
Q 18.109375 38.921875 18.109375 30.90625 
L 18.109375 0 
L 9.078125 0 
L 9.078125 75.984375 
L 18.109375 75.984375 
L 18.109375 46.1875 
Q 21.34375 51.125 25.703125 53.5625 
Q 30.078125 56 35.796875 56 
Q 45.21875 56 50.046875 50.171875 
Q 54.890625 44.34375 54.890625 33.015625 
z
" id="DejaVuSans-68"/>
     <path d="M 19.671875 64.796875 
L 19.671875 8.109375 
L 31.59375 8.109375 
Q 46.6875 8.109375 53.6875 14.9375 
Q 60.6875 21.78125 60.6875 36.53125 
Q 60.6875 51.171875 53.6875 57.984375 
Q 46.6875 64.796875 31.59375 64.796875 
z
M 9.8125 72.90625 
L 30.078125 72.90625 
Q 51.265625 72.90625 61.171875 64.09375 
Q 71.09375 55.28125 71.09375 36.53125 
Q 71.09375 17.671875 61.125 8.828125 
Q 51.171875 0 30.078125 0 
L 9.8125 0 
z
" id="DejaVuSans-44"/>
     <path d="M 39.40625 66.21875 
Q 28.65625 66.21875 22.328125 58.203125 
Q 16.015625 50.203125 16.015625 36.375 
Q 16.015625 22.609375 22.328125 14.59375 
Q 28.65625 6.59375 39.40625 6.59375 
Q 50.140625 6.59375 56.421875 14.59375 
Q 62.703125 22.609375 62.703125 36.375 
Q 62.703125 50.203125 56.421875 58.203125 
Q 50.140625 66.21875 39.40625 66.21875 
z
M 53.21875 1.3125 
L 66.21875 -12.890625 
L 54.296875 -12.890625 
L 43.5 -1.21875 
Q 41.890625 -1.3125 41.03125 -1.359375 
Q 40.1875 -1.421875 39.40625 -1.421875 
Q 24.03125 -1.421875 14.8125 8.859375 
Q 5.609375 19.140625 5.609375 36.375 
Q 5.609375 53.65625 14.8125 63.9375 
Q 24.03125 74.21875 39.40625 74.21875 
Q 54.734375 74.21875 63.90625 63.9375 
Q 73.09375 53.65625 73.09375 36.375 
Q 73.09375 23.6875 67.984375 14.640625 
Q 62.890625 5.609375 53.21875 1.3125 
z
" id="DejaVuSans-51"/>
     <path d="M 9.8125 72.90625 
L 19.671875 72.90625 
L 19.671875 8.296875 
L 55.171875 8.296875 
L 55.171875 0 
L 9.8125 0 
z
" id="DejaVuSans-4c"/>
     <path d="M 4.890625 31.390625 
L 31.203125 31.390625 
L 31.203125 23.390625 
L 4.890625 23.390625 
z
" id="DejaVuSans-2d"/>
     <path d="M -0.296875 72.90625 
L 61.375 72.90625 
L 61.375 64.59375 
L 35.5 64.59375 
L 35.5 0 
L 25.59375 0 
L 25.59375 64.59375 
L -0.296875 64.59375 
z
" id="DejaVuSans-54"/>
     <path d="M 54.890625 54.6875 
L 35.109375 28.078125 
L 55.90625 0 
L 45.3125 0 
L 29.390625 21.484375 
L 13.484375 0 
L 2.875 0 
L 24.125 28.609375 
L 4.6875 54.6875 
L 15.28125 54.6875 
L 29.78125 35.203125 
L 44.28125 54.6875 
z
" id="DejaVuSans-78"/>
    </defs>
    <g transform="translate(132.284063 35.472)scale(0.12 -0.12)">
     <use xlink:href="#DejaVuSans-77"/>
     <use x="81.787109" xlink:href="#DejaVuSans-69"/>
     <use x="109.570312" xlink:href="#DejaVuSans-74"/>
     <use x="148.779297" xlink:href="#DejaVuSans-68"/>
     <use x="212.158203" xlink:href="#DejaVuSans-20"/>
     <use x="243.945312" xlink:href="#DejaVuSans-44"/>
     <use x="320.947266" xlink:href="#DejaVuSans-69"/>
     <use x="348.730469" xlink:href="#DejaVuSans-73"/>
     <use x="400.830078" xlink:href="#DejaVuSans-74"/>
     <use x="440.039062" xlink:href="#DejaVuSans-51"/>
     <use x="518.75" xlink:href="#DejaVuSans-4c"/>
     <use x="574.447266" xlink:href="#DejaVuSans-2d"/>
     <use x="610.5" xlink:href="#DejaVuSans-41"/>
     <use x="678.908203" xlink:href="#DejaVuSans-4c"/>
     <use x="734.621094" xlink:href="#DejaVuSans-4c"/>
     <use x="790.333984" xlink:href="#DejaVuSans-20"/>
     <use x="822.121094" xlink:href="#DejaVuSans-74"/>
     <use x="861.330078" xlink:href="#DejaVuSans-61"/>
     <use x="922.609375" xlink:href="#DejaVuSans-75"/>
     <use x="985.988281" xlink:href="#DejaVuSans-20"/>
     <use x="1017.775391" xlink:href="#DejaVuSans-31"/>
     <use x="1081.398438" xlink:href="#DejaVuSans-30"/>
     <use x="1145.021484" xlink:href="#DejaVuSans-30"/>
     <use x="1208.644531" xlink:href="#DejaVuSans-20"/>
     <use x="1240.431641" xlink:href="#DejaVuSans-69"/>
     <use x="1268.214844" xlink:href="#DejaVuSans-6e"/>
     <use x="1331.59375" xlink:href="#DejaVuSans-20"/>
     <use x="1363.380859" xlink:href="#DejaVuSans-54"/>
     <use x="1424.214844" xlink:href="#DejaVuSans-61"/>
     <use x="1485.494141" xlink:href="#DejaVuSans-78"/>
     <use x="1544.673828" xlink:href="#DejaVuSans-69"/>
     <use x="1572.457031" xlink:href="#DejaVuSans-2d"/>
     <use x="1608.509766" xlink:href="#DejaVuSans-76"/>
     <use x="1667.689453" xlink:href="#DejaVuSans-32"/>
    </g>
   </g>
   <g id="legend_1">
    <g id="patch_7">
     <path d="M 332.0825 302.584 
L 407.72 302.584 
Q 409.72 302.584 409.72 300.584 
L 409.72 242.8715 
Q 409.72 240.8715 407.72 240.8715 
L 332.0825 240.8715 
Q 330.0825 240.8715 330.0825 242.8715 
L 330.0825 300.584 
Q 330.0825 302.584 332.0825 302.584 
z
" style="fill:#ffffff;opacity:0.8;stroke:#cccccc;stroke-linejoin:miter;"/>
    </g>
    <g id="line2d_23">
     <path d="M 334.0825 248.969937 
L 354.0825 248.969937 
" style="fill:none;opacity:0.7;stroke:#1f77b4;stroke-linecap:square;stroke-width:1.5;"/>
    </g>
    <g id="line2d_24"/>
    <g id="text_22">
     <!-- 1 agent -->
     <g transform="translate(362.0825 252.469937)scale(0.1 -0.1)">
      <use xlink:href="#DejaVuSans-31"/>
      <use x="63.623047" xlink:href="#DejaVuSans-20"/>
      <use x="95.410156" xlink:href="#DejaVuSans-61"/>
      <use x="156.689453" xlink:href="#DejaVuSans-67"/>
      <use x="220.166016" xlink:href="#DejaVuSans-65"/>
      <use x="281.689453" xlink:href="#DejaVuSans-6e"/>
      <use x="345.068359" xlink:href="#DejaVuSans-74"/>
     </g>
    </g>
    <g id="line2d_25">
     <path d="M 334.0825 263.648062 
L 354.0825 263.648062 
" style="fill:none;opacity:0.7;stroke:#ff7f0e;stroke-linecap:square;stroke-width:1.5;"/>
    </g>
    <g id="line2d_26"/>
    <g id="text_23">
     <!-- 2 agents -->
     <g transform="translate(362.0825 267.148062)scale(0.1 -0.1)">
      <use xlink:href="#DejaVuSans-32"/>
      <use x="63.623047" xlink:href="#DejaVuSans-20"/>
      <use x="95.410156" xlink:href="#DejaVuSans-61"/>
      <use x="156.689453" xlink:href="#DejaVuSans-67"/>
      <use x="220.166016" xlink:href="#DejaVuSans-65"/>
      <use x="281.689453" xlink:href="#DejaVuSans-6e"/>
      <use x="345.068359" xlink:href="#DejaVuSans-74"/>
      <use x="384.277344" xlink:href="#DejaVuSans-73"/>
     </g>
    </g>
    <g id="line2d_27">
     <path d="M 334.0825 278.326187 
L 354.0825 278.326187 
" style="fill:none;opacity:0.7;stroke:#2ca02c;stroke-linecap:square;stroke-width:1.5;"/>
    </g>
    <g id="line2d_28"/>
    <g id="text_24">
     <!-- 4 agents -->
     <g transform="translate(362.0825 281.826187)scale(0.1 -0.1)">
      <use xlink:href="#DejaVuSans-34"/>
      <use x="63.623047" xlink:href="#DejaVuSans-20"/>
      <use x="95.410156" xlink:href="#DejaVuSans-61"/>
      <use x="156.689453" xlink:href="#DejaVuSans-67"/>
      <use x="220.166016" xlink:href="#DejaVuSans-65"/>
      <use x="281.689453" xlink:href="#DejaVuSans-6e"/>
      <use x="345.068359" xlink:href="#DejaVuSans-74"/>
      <use x="384.277344" xlink:href="#DejaVuSans-73"/>
     </g>
    </g>
    <g id="line2d_29">
     <path d="M 334.0825 293.004312 
L 354.0825 293.004312 
" style="fill:none;opacity:0.7;stroke:#d62728;stroke-linecap:square;stroke-width:1.5;"/>
    </g>
    <g id="line2d_30"/>
    <g id="text_25">
     <!-- 8 agents -->
     <g transform="translate(362.0825 296.504312)scale(0.1 -0.1)">
      <use xlink:href="#DejaVuSans-38"/>
      <use x="63.623047" xlink:href="#DejaVuSans-20"/>
      <use x="95.410156" xlink:href="#DejaVuSans-61"/>
      <use x="156.689453" xlink:href="#DejaVuSans-67"/>
      <use x="220.166016" xlink:href="#DejaVuSans-65"/>
      <use x="281.689453" xlink:href="#DejaVuSans-6e"/>
      <use x="345.068359" xlink:href="#DejaVuSans-74"/>
      <use x="384.277344" xlink:href="#DejaVuSans-73"/>
     </g>
    </g>
   </g>
  </g>
 </g>
 <defs>
  <clipPath id="p1dc3fddba2">
   <rect height="266.112" width="357.12" x="57.6" y="41.472"/>
  </clipPath>
 </defs>
</svg>
